<?xml version="1.0" standalone="no"?>
<!DOCTYPE svg PUBLIC "-//W3C//DTD SVG 1.1//EN" "http://www.w3.org/Graphics/SVG/1.1/DTD/svg11.dtd" >
<svg xmlns="http://www.w3.org/2000/svg" xmlns:xlink="http://www.w3.org/1999/xlink" version="1.1">
<metadata>
Created by FontForge 20201107 at Thu May 11 07:51:56 2017
 By 
Copyright 2015 Adobe Systems Incorporated. All rights reserved.
</metadata>
<defs>
<font id="SVN-TheVoice" horiz-adv-x="1294" >
  <font-face 
    font-family="SVN-The Voice"
    font-weight="400"
    font-stretch="normal"
    units-per-em="2048"
    panose-1="2 4 6 3 5 5 6 2 2 4"
    ascent="1638"
    descent="-410"
    x-height="963"
    cap-height="1311"
    bbox="-247 -365 2267 1987"
    underline-thickness="109"
    underline-position="-250"
    unicode-range="U+0020-2122"
  />
<missing-glyph horiz-adv-x="737" 
 />
    <glyph glyph-name=".notdef" horiz-adv-x="737" 
 />
    <glyph glyph-name=".null" horiz-adv-x="0" 
 />
    <glyph glyph-name="nonmarkingreturn" horiz-adv-x="571" 
 />
    <glyph glyph-name="space" unicode=" " horiz-adv-x="737" 
 />
    <glyph glyph-name="space" unicode="&#xa0;" horiz-adv-x="737" 
 />
    <glyph glyph-name="exclam" unicode="!" horiz-adv-x="569" 
d="M477 776q0 -32 -12 -141l-33 -291h-295l-33 291q-12 109 -12 141v535h385v-535zM471 0h-373v258h373v-258z" />
    <glyph glyph-name="quotedbl" unicode="&#x22;" horiz-adv-x="768" 
d="M676 756h-230v555h230v-555zM322 756h-230v555h230v-555z" />
    <glyph glyph-name="numbersign" unicode="#" horiz-adv-x="1262" 
d="M1169 936l-24 -168h-203l-35 -225h203l-25 -168h-202l-58 -375h-192l57 375h-203l-57 -375h-192l57 375h-203l25 168h202l35 225h-202l26 168h201l57 375h193l-58 -375h203l57 375h193l-57 -375h202zM750 768h-203l-35 -225h203z" />
    <glyph glyph-name="dollar" unicode="$" horiz-adv-x="1307" 
d="M1214 317q0 -101 -53 -142q-52 -40 -190 -40h-236v-207h-147v207h-496v152h496v225h-252q-68 0 -114.5 16t-75 49t-41.5 82.5t-13 116.5v178q0 238 244 238h252v194h147v-194h479v-152h-479v-204h236q137 0 190 -41t53 -142v-336zM588 836v204h-121q-51 0 -51 -65v-74
q0 -65 51 -65h121zM891 442q0 70 -53 70h-103v-225h103q53 0 53 69v86z" />
    <glyph glyph-name="percent" unicode="%" horiz-adv-x="1925" 
d="M1833 137q0 -77 -41.5 -107t-132.5 -30h-352q-91 0 -132.5 30t-41.5 107v402q0 77 41.5 107t132.5 30h352q91 0 132.5 -30t41.5 -107v-402zM1473 1311l-801 -1311h-223l800 1311h224zM793 772q0 -77 -42 -107t-133 -30h-352q-91 0 -132.5 30.5t-41.5 106.5v402
q0 76 41.5 106.5t132.5 30.5h352q91 0 133 -30t42 -107v-402zM1604 516q0 53 -54 53h-135q-53 0 -53 -53v-356q0 -54 53 -54h135q54 0 54 54v356zM563 1151q0 53 -53 53h-135q-53 0 -53 -53v-356q0 -54 53 -54h135q53 0 53 54v356z" />
    <glyph glyph-name="ampersand" unicode="&#x26;" horiz-adv-x="1595" 
d="M1524 0h-414q-51 0 -72 10q-11 5 -22.5 14.5t-24.5 22.5l-67 78l-64 -78q-20 -25 -41.5 -36t-52.5 -11h-442q-98 0 -165 57t-67 162v422q0 73 49 125q50 53 119 53h107l-111 123q-61 67 -61 160q0 92 58 150q59 59 163 59h815v-168h-639q-10 0 -10 -15l469 -581l79 106
q25 31 25 92v82h168v-114q0 -47 -7.5 -76.5t-31.5 -58.5l-127 -164l156 -195q40 -51 102 -51h109v-168zM819 254l-338 418h-4v-447q0 -57 39 -57h213q27 0 49 31z" />
    <glyph glyph-name="quotesingle" unicode="'" horiz-adv-x="414" 
d="M322 756h-230v555h230v-555z" />
    <glyph glyph-name="parenleft" unicode="(" horiz-adv-x="733" 
d="M641 -209h-244q-151 0 -228 72t-77 215v946q0 143 76.5 215t228.5 72h244v-152h-86q-48 0 -77 -25t-29 -73v-1020q0 -98 106 -98h86v-152z" />
    <glyph glyph-name="parenright" unicode=")" horiz-adv-x="733" 
d="M641 78q0 -287 -305 -287h-244v152h86q107 0 107 98v1020q0 49 -28 73.5t-79 24.5h-86v152h244q305 0 305 -287v-946z" />
    <glyph glyph-name="asterisk" unicode="*" horiz-adv-x="840" 
d="M748 928h-216l109 -187l-115 -65l-106 184l-107 -184l-114 65l106 187h-213v131h215l-108 186l114 66l107 -185l106 185l115 -66l-109 -186h216v-131z" />
    <glyph glyph-name="plus" unicode="+" horiz-adv-x="840" 
d="M748 344h-263v-262h-131v262h-262v131h262v262h131v-262h263v-131z" />
    <glyph glyph-name="comma" unicode="," horiz-adv-x="569" 
d="M477 12l-170 -192h-151l88 180h-152v270h385v-258z" />
    <glyph glyph-name="hyphen" unicode="-" horiz-adv-x="829" 
d="M737 328h-645v307h645v-307z" />
    <glyph glyph-name="period" unicode="." horiz-adv-x="569" 
d="M477 0h-385v270h385v-270z" />
    <glyph glyph-name="slash" unicode="/" horiz-adv-x="897" 
d="M805 1311l-500 -1311h-213l500 1311h213z" />
    <glyph glyph-name="zero" unicode="0" horiz-adv-x="1487" 
d="M1395 229q0 -52 -16.5 -94.5t-47 -72.5t-75 -46t-101.5 -16h-823q-114 0 -177 62t-63 167v852q0 106 61.5 168t178.5 62h823q57 0 102 -16.5t75.5 -46.5t46.5 -72.5t16 -94.5v-852zM1010 1092q0 51 -66 51h-401q-66 0 -66 -51v-873q0 -51 66 -51h401q66 0 66 51v873z" />
    <glyph glyph-name="one" unicode="1" horiz-adv-x="735" 
d="M643 0h-385v987h-166v158l414 166h137v-1311z" />
    <glyph glyph-name="two" unicode="2" horiz-adv-x="1454" 
d="M1362 0h-1270v573q2 57 15.5 94.5t40.5 61.5t68.5 39t98.5 27l594 118q38 9 53 25.5t15 50.5v98q0 56 -80 56h-809v168h1004q142 0 206 -66t64 -182v-232q0 -109 -51.5 -165t-161.5 -78l-621 -125q-63 -12 -63 -92v-203h897v-168z" />
    <glyph glyph-name="three" unicode="3" horiz-adv-x="1468" 
d="M1376 258q0 -124 -70 -191t-212 -67h-1002v168h840q59 0 59 59v312q0 59 -59 59h-514v168h514q59 0 59 59v254q0 35 -15 49.5t-48 14.5h-819v168h985q143 0 212.5 -67.5t69.5 -190.5v-166q0 -106 -54 -151q-52 -43 -196 -54v-4q72 -5 120.5 -18.5t77 -37.5t40.5 -60.5
t12 -88.5v-215z" />
    <glyph glyph-name="four" unicode="4" horiz-adv-x="1593" 
d="M1501 373h-176v-373h-373v373h-860v280l811 658h422v-639h176v-299zM952 672v495l-606 -491v-4h606z" />
    <glyph glyph-name="five" unicode="5" horiz-adv-x="1466" 
d="M1374 252q0 -130 -76 -191q-74 -61 -200 -61h-1006v168h840q25 0 41 15t16 42v350q0 35 -15 49.5t-48 14.5h-834v672h1282v-168h-897v-336h629q62 0 111.5 -16t84.5 -46t53.5 -73t18.5 -97v-323z" />
    <glyph glyph-name="six" unicode="6" horiz-adv-x="1454" 
d="M1362 238q0 -60 -17.5 -104.5t-49 -74.5t-75 -44.5t-96.5 -14.5h-794q-53 0 -96.5 14.5t-75 44.5t-49 74.5t-17.5 104.5v835q0 120 66 179q67 59 172 59h1011v-168h-796q-68 0 -68 -53v-336h4q10 43 28 62.5t56 19.5h559q105 0 172 -59q66 -59 66 -179v-360zM989 604
q0 64 -65 64h-381q-66 0 -66 -64v-373q0 -63 66 -63h381q65 0 65 63v373z" />
    <glyph glyph-name="seven" unicode="7" horiz-adv-x="1479" 
d="M1386 1143q-75 -56 -144.5 -127t-135.5 -159q-132 -176 -234.5 -389.5t-183.5 -467.5h-399q69 240 186 465q119 227 251 398q133 171 263 276v4h-897v168h1282z" />
    <glyph glyph-name="eight" unicode="8" horiz-adv-x="1454" 
d="M1362 258q0 -258 -281 -258h-708q-281 0 -281 258v219q0 61 21.5 103.5t61 69.5t96 40.5t126.5 18.5v4q-72 6 -128.5 20.5t-96 41.5t-60 67.5t-20.5 99.5v135q0 117 61 175.5t199 58.5h750q138 0 199 -58t61 -176v-135q0 -59 -20 -100t-59 -67.5t-96 -41t-130 -20.5v-4
q147 -11 225 -62q80 -51 80 -170v-219zM989 1085q0 58 -63 58h-398q-63 0 -63 -58v-239q0 -31 15 -45.5t48 -14.5h398q33 0 48 14.5t15 45.5v239zM989 559q0 59 -59 59h-406q-59 0 -59 -59v-332q0 -59 59 -59h406q59 0 59 59v332z" />
    <glyph glyph-name="nine" unicode="9" horiz-adv-x="1454" 
d="M1362 238q0 -60 -17.5 -104.5t-49 -74.5t-75 -44.5t-96.5 -14.5h-1011v168h796q68 0 68 53v357h-4q-8 -40 -27 -61t-57 -21h-559q-53 0 -96.5 14.5t-75 44t-49 74t-17.5 104.5v340q0 120 66 179q67 59 172 59h794q105 0 172 -59q66 -59 66 -179v-835zM977 1079
q0 64 -66 64h-381q-65 0 -65 -64v-352q0 -63 65 -63h381q66 0 66 63v352z" />
    <glyph glyph-name="colon" unicode=":" horiz-adv-x="569" 
d="M477 508h-385v270h385v-270zM477 0h-385v270h385v-270z" />
    <glyph glyph-name="semicolon" unicode=";" horiz-adv-x="569" 
d="M477 508h-385v270h385v-270zM477 12l-170 -192h-151l88 180h-152v270h385v-258z" />
    <glyph glyph-name="less" unicode="&#x3c;" horiz-adv-x="922" 
d="M829 33l-737 315v125l737 313v-141l-557 -235l557 -236v-141z" />
    <glyph glyph-name="equal" unicode="=" horiz-adv-x="922" 
d="M829 500h-737v131h737v-131zM829 188h-737v131h737v-131z" />
    <glyph glyph-name="greater" unicode="&#x3e;" horiz-adv-x="922" 
d="M829 348l-737 -315v141l553 236l-553 235v141l737 -315v-123z" />
    <glyph glyph-name="question" unicode="?" horiz-adv-x="1333" 
d="M1241 803q0 -51 -12 -84.5t-40.5 -53t-76.5 -27t-119 -7.5h-157q-42 0 -59 -18t-17 -58v-211h-373v330q0 58 41 91.5t117 33.5h243q36 0 52 16.5t16 56.5v205q0 37 -18.5 51.5t-69.5 14.5h-676v168h891q150 0 203 -52q55 -51 55 -174v-282zM760 0h-373v258h373v-258z" />
    <glyph glyph-name="at" unicode="@" horiz-adv-x="1407" 
d="M1315 758q0 -97 -33.5 -182t-93.5 -154t-128.5 -106t-131.5 -37q-25 0 -49.5 9.5t-46 25.5t-40.5 38t-32 47q-84 -120 -191 -120q-50 -1 -95 23.5t-79.5 66.5t-54 98t-18.5 119q-2 91 29.5 173.5t85.5 144.5t125 97.5t149 34.5q97 0 139 -73l16 57h211l-135 -539
q-10 -43 -10 -61q0 -29 14 -29q45 0 106 49q60 48 104 133t44 185q0 98 -33 179.5t-93.5 140t-147 90.5t-193.5 32q-68 1 -134 -17.5t-125 -53.5t-108.5 -84t-85.5 -109.5t-56 -131t-19 -147.5q0 -145 70 -270q71 -125 193 -199q121 -73 265 -73q147 0 257 64
q111 65 171 169h131q-17 -38 -42 -76.5t-59 -78.5q-66 -78 -184 -136q-116 -57 -274 -57q-132 0 -249 52.5t-208 146.5q-90 94 -137 210.5t-47 247.5q0 123 46.5 240t131.5 211t204 148.5t259 54.5q135 0 243 -43t183 -117.5t115.5 -175.5t40.5 -217zM801 823q0 34 -21 72
q-21 39 -53 39q-84 0 -139 -120q-56 -121 -56 -288q0 -29 3 -53.5t10.5 -42.5t20 -28.5t32.5 -10.5q50 0 96 73q47 75 77 177q30 105 30 182z" />
    <glyph glyph-name="A" unicode="A" horiz-adv-x="1653" 
d="M1585 0h-414l-163 373h-596l-162 -373h-184l587 1311h336zM932 541l-223 495l-220 -495h443z" />
    <glyph glyph-name="B" unicode="B" horiz-adv-x="1458" 
d="M1366 242q0 -52 -15.5 -96.5t-47 -76.5t-79.5 -50.5t-112 -18.5h-1020v1311h1020q58 0 105 -16t80 -47t51 -77t18 -106v-203q-2 -55 -16 -90t-47 -55.5t-88.5 -30.5t-139.5 -14v-6q85 -6 140.5 -15t88 -29.5t46.5 -55.5t16 -93v-231zM993 1057q0 45 -15 65.5t-52 20.5
h-449v-398h449q36 0 51.5 21t15.5 63v228zM993 492q0 45 -15 65.5t-52 20.5h-449v-410h449q36 0 51.5 21t15.5 63v240z" />
    <glyph glyph-name="C" unicode="C" horiz-adv-x="1231" 
d="M1149 0h-799q-129 0 -193.5 67.5t-64.5 190.5v795q0 121 64.5 189.5t193.5 68.5h799v-168h-602q-70 0 -70 -70v-835q0 -38 17.5 -54t52.5 -16h602v-168z" />
    <glyph glyph-name="D" unicode="D" horiz-adv-x="1483" 
d="M1391 258q0 -124 -64 -191t-194 -67h-1041v1311h1041q130 0 194 -67t64 -191v-795zM1006 1073q0 70 -70 70l-459 -2v-973h459q70 0 70 70v835z" />
    <glyph glyph-name="E" unicode="E" horiz-adv-x="1253" 
d="M1176 0h-1084v1311h1084v-168h-699v-398h635v-167h-635v-410h699v-168z" />
    <glyph glyph-name="F" unicode="F" horiz-adv-x="1253" 
d="M1176 1143h-699v-398h635v-167h-635v-578h-385v1311h1084v-168z" />
    <glyph glyph-name="G" unicode="G" horiz-adv-x="1483" 
d="M1391 0h-342v115h-5q-8 -61 -43.5 -88t-109.5 -27h-541q-129 0 -193.5 67.5t-64.5 190.5v795q0 121 64.5 189.5t193.5 68.5h1000v-168h-803q-70 0 -70 -70v-835q0 -38 17.5 -54t52.5 -16h416q55 0 55 53v393h-309v168h682v-782z" />
    <glyph glyph-name="H" unicode="H" horiz-adv-x="1473" 
d="M1380 0h-385v578h-518v-578h-385v1311h385v-566h518v566h385v-1311z" />
    <glyph glyph-name="I" unicode="I" horiz-adv-x="569" 
d="M477 0h-385v1311h385v-1311z" />
    <glyph glyph-name="J" unicode="J" horiz-adv-x="1113" 
d="M1030 299q0 -148 -61 -224q-62 -75 -214 -75h-701v168h498q93 0 93 88v1055h385v-1012z" />
    <glyph glyph-name="K" unicode="K" horiz-adv-x="1501" 
d="M1425 0h-430l-317 641l-201 -213v-428h-385v1311h385v-627l621 627h221l-369 -410z" />
    <glyph glyph-name="L" unicode="L" horiz-adv-x="1217" 
d="M1176 0h-1084v1311h385v-1143h699v-168z" />
    <glyph glyph-name="M" unicode="M" horiz-adv-x="2244" 
d="M2185 0h-389v1062q0 93 -94 90h-254q-41 0 -73 -7q-33 -6 -39 -34q-2 -14 -3.5 -26t-1.5 -23v-1062h-390v1071q-4 84 -94 81h-254q-41 0 -73 -7q-33 -6 -39 -34q-2 -14 -3.5 -26t-1.5 -23v-1062h-390v1311h991h12h843q253 0 253 -339v-972z" />
    <glyph glyph-name="N" unicode="N" horiz-adv-x="1412" 
d="M1330 0h-389v1062q0 93 -94 90h-254q-41 0 -73 -7q-33 -6 -39 -34q-2 -14 -3.5 -26t-1.5 -23v-1062h-390v1311h375h128h488q253 0 253 -339v-972z" />
    <glyph glyph-name="O" unicode="O" horiz-adv-x="1483" 
d="M1391 258q0 -124 -64 -191t-194 -67h-783q-129 0 -193.5 67.5t-64.5 190.5v795q0 121 64.5 189.5t193.5 68.5h783q130 0 194 -67t64 -191v-795zM1006 1073q0 70 -70 70h-389q-70 0 -70 -70v-835q0 -38 17.5 -54t52.5 -16h389q70 0 70 70v835z" />
    <glyph glyph-name="P" unicode="P" horiz-adv-x="1470" 
d="M1378 723q0 -260 -303 -260h-598v-463h-385v1311h983q303 0 303 -260v-328zM1006 1034q0 61 -21 85t-76 24h-432v-512h432q54 0 75.5 23.5t21.5 84.5v295z" />
    <glyph glyph-name="Q" unicode="Q" horiz-adv-x="1483" 
d="M1391 258q0 -124 -64 -191t-194 -67h-132l86 -150h-192l-86 150h-459q-129 0 -193.5 67.5t-64.5 190.5v795q0 121 64.5 189.5t193.5 68.5h783q130 0 194 -67t64 -191v-795zM1006 1073q0 70 -70 70h-389q-70 0 -70 -70v-835q0 -38 17.5 -54t52.5 -16h168l-107 188h193
l106 -188h29q70 0 70 70v835z" />
    <glyph glyph-name="R" unicode="R" horiz-adv-x="1458" 
d="M1391 0h-402l-225 578h-287v-578h-385v1311h1020q64 0 111.5 -18t79 -50t47.5 -77t16 -99v-279q0 -188 -203 -217zM993 1059q0 46 -16 65t-55 19h-445v-398h445q39 0 55 20.5t16 68.5v225z" />
    <glyph glyph-name="S" unicode="S" horiz-adv-x="1382" 
d="M1290 254q0 -57 -16 -104t-47.5 -80.5t-78.5 -51.5t-110 -18h-946v168h758q36 0 52 16.5t16 61.5v176q0 39 -15 56.5t-53 17.5h-506q-121 0 -186.5 66.5t-65.5 191.5v299q0 57 15 104t46 81.5t78.5 53.5t112.5 19h946v-168h-751q-42 0 -58 -17t-16 -57v-139q0 -34 15 -52
t52 -18h500q130 0 194 -68.5t64 -185.5v-352z" />
    <glyph glyph-name="T" unicode="T" horiz-adv-x="1274" 
d="M1233 1143h-404v-1143h-385v1143h-403v168h1192v-168z" />
    <glyph glyph-name="U" unicode="U" horiz-adv-x="1458" 
d="M1366 223q0 -45 -18 -85.5t-49.5 -71t-73 -48.5t-88.5 -18h-815q-46 -2 -88 16.5t-73.5 50t-50.5 72t-18 84.5v1088h385v-1088q0 -55 62 -55h589q62 0 62 55v1088h176v-1088z" />
    <glyph glyph-name="V" unicode="V" horiz-adv-x="1503" 
d="M1430 1311l-502 -1311h-350l-510 1311h407l387 -1028l375 1028h193z" />
    <glyph glyph-name="W" unicode="W" horiz-adv-x="2103" 
d="M2025 1311l-346 -1311h-389l-233 854h-4l-224 -854h-397l-366 1311h397l272 -1028h4l269 1028h303l272 -1028h4l260 1028h178z" />
    <glyph glyph-name="X" unicode="X" horiz-adv-x="1495" 
d="M1432 0h-457l-297 455l-377 -455h-221l500 604l-471 707h454l271 -408l329 408h223l-460 -557z" />
    <glyph glyph-name="Y" unicode="Y" horiz-adv-x="1513" 
d="M1444 1311l-486 -756v-555h-401v563l-489 748h448l365 -566l358 566h205z" />
    <glyph glyph-name="Z" unicode="Z" horiz-adv-x="1360" 
d="M1319 1311l-729 -1143h674v-168h-1223l733 1143h-629v168h1174z" />
    <glyph glyph-name="bracketleft" unicode="[" horiz-adv-x="700" 
d="M608 -209h-516v1520h516v-168h-180v-1184h180v-168z" />
    <glyph glyph-name="backslash" unicode="\" horiz-adv-x="897" 
d="M805 0h-213l-500 1311h213z" />
    <glyph glyph-name="bracketright" unicode="]" horiz-adv-x="700" 
d="M608 -209h-516v168h180v1184h-180v168h516v-1520z" />
    <glyph glyph-name="asciicircum" unicode="^" horiz-adv-x="872" 
d="M780 655h-137l-207 480l-209 -480h-135l283 656h123z" />
    <glyph glyph-name="underscore" unicode="_" horiz-adv-x="737" 
d="M737 -311h-737v98h737v-98z" />
    <glyph glyph-name="grave" unicode="`" horiz-adv-x="688" 
d="M596 1069h-203l-301 299h314z" />
    <glyph glyph-name="a" unicode="a" 
d="M1223 0h-310l-16 100h-4q-17 -45 -45 -72.5t-84 -27.5h-461q-60 0 -103.5 17.5t-72 55t-42 96.5t-13.5 142v45q0 84 13 143.5t41.5 97t73.5 54.5t109 17h557v110q0 41 -49 41h-511v144h677q240 0 240 -250v-713zM866 516h-379q-59 0 -59 -65v-236q0 -63 53 -63h326
q31 0 45 14t14 49v301z" />
    <glyph glyph-name="b" unicode="b" horiz-adv-x="1315" 
d="M1243 248q0 -126 -61.5 -187t-169.5 -61h-463q-31 0 -59 25.5t-37 64.5h-4v-90h-357v1311h357v-447h8q21 52 44.5 75.5t67.5 23.5h443q231 0 231 -250v-465zM887 745q0 66 -64 66h-311q-35 0 -49 -14.5t-14 -51.5v-528q0 -65 55 -65h319q35 0 49.5 14.5t14.5 50.5v528z
" />
    <glyph glyph-name="c" unicode="c" horiz-adv-x="973" 
d="M914 0h-607q-122 0 -178.5 65t-56.5 183v467q0 118 56.5 183t178.5 65h607v-152h-427q-59 0 -59 -66v-528q0 -65 59 -65h427v-152z" />
    <glyph glyph-name="d" unicode="d" horiz-adv-x="1315" 
d="M1223 0h-357v90h-4q-9 -39 -36.5 -64.5t-59.5 -25.5h-463q-108 0 -169.5 61t-61.5 187v465q0 250 231 250h442q45 0 68.5 -23.5t44.5 -75.5h8v447h357v-1311zM866 745q0 37 -14 51.5t-49 14.5h-311q-64 0 -64 -66v-528q0 -36 14.5 -50.5t49.5 -14.5h319q55 0 55 65v528z
" />
    <glyph glyph-name="e" unicode="e" 
d="M1223 393h-795v-176q0 -65 59 -65h545v-152h-725q-122 0 -178.5 65t-56.5 183v467q0 118 56.5 183t178.5 65h680q236 0 236 -248v-322zM866 545v200q0 66 -59 66h-320q-59 0 -59 -66v-200h438z" />
    <glyph glyph-name="f" unicode="f" horiz-adv-x="1016" 
d="M917 1159h-268q-59 0 -59 -65v-131h340v-144h-340v-819h-357v819h-192v144h192v100q0 248 236 248h448v-152z" />
    <glyph glyph-name="g" unicode="g" 
d="M1223 -117q0 -105 -59 -176q-59 -72 -177 -72h-688v152h487q43 0 61.5 21.5t18.5 64.5v225h-4q-11 -26 -20 -44t-21 -29.5t-30 -17.5t-46 -7h-442q-231 0 -231 250v465q0 127 61 187.5t170 60.5h463q33 0 60 -26t36 -65h4v91h357v-1080zM866 745q0 66 -55 66h-319
q-35 0 -49.5 -14.5t-14.5 -51.5v-528q0 -65 64 -65h311q34 0 48.5 14.5t14.5 50.5v528z" />
    <glyph glyph-name="h" unicode="h" horiz-adv-x="1303" 
d="M1231 0h-357v745q0 66 -63 66h-299q-35 0 -49 -14.5t-14 -51.5v-745h-357v1311h357v-420h4q20 41 44.5 56.5t71.5 15.5h430q232 0 232 -250v-713z" />
    <glyph glyph-name="i" unicode="i" horiz-adv-x="541" 
d="M449 0h-357v963h357v-963zM450 1067h-364v172h364v-172z" />
    <glyph glyph-name="j" unicode="j" horiz-adv-x="541" 
d="M449 -117q0 -105 -59 -176q-59 -72 -177 -72h-460v152h259q43 0 61.5 21.5t18.5 64.5v1090h357v-1080zM450 1067h-364v172h364v-172z" />
    <glyph glyph-name="k" unicode="k" horiz-adv-x="1323" 
d="M1251 0h-385l-276 498l-141 -107v-391h-357v1311h357v-727l493 379h272l-352 -254z" />
    <glyph glyph-name="l" unicode="l" horiz-adv-x="541" 
d="M449 0h-357v1311h357v-1311z" />
    <glyph glyph-name="m" unicode="m" horiz-adv-x="2003" 
d="M1931 0h-356v745q0 66 -64 66h-268q-35 0 -49 -14.5t-14 -51.5v-745h-357v745q0 66 -63 66h-268q-35 0 -49.5 -14.5t-14.5 -51.5v-745h-356v963h344h116h500h134h110h424q231 0 231 -250v-713z" />
    <glyph glyph-name="n" unicode="n" horiz-adv-x="1282" 
d="M1210 0h-356v745q0 66 -63 66h-299q-35 0 -49.5 -14.5t-14.5 -51.5v-745h-356v963h344h116h447q231 0 231 -250v-713z" />
    <glyph glyph-name="o" unicode="o" 
d="M1223 248q0 -248 -236 -248h-680q-122 0 -178.5 65t-56.5 183v467q0 118 56.5 183t178.5 65h680q236 0 236 -248v-467zM866 745q0 66 -59 66h-320q-59 0 -59 -66v-528q0 -65 59 -65h320q59 0 59 65v528z" />
    <glyph glyph-name="p" unicode="p" 
d="M1223 250q0 -250 -232 -250h-442q-23 0 -38.5 5t-28.5 17t-23.5 30.5t-22.5 45.5h-8v-463h-356v1328h356v-91h4q9 40 37 65.5t59 25.5h463q110 0 171 -60.5t61 -187.5v-465zM866 745q0 38 -14.5 52t-48.5 14h-320q-55 0 -55 -66v-528q0 -36 14.5 -50.5t49.5 -14.5h311
q63 0 63 65v528z" />
    <glyph glyph-name="q" unicode="q" 
d="M1223 -365h-357v463h-8q-21 -51 -44.5 -74.5t-68.5 -23.5h-442q-231 0 -231 250v465q0 127 61 187.5t170 60.5h463q33 0 60 -26t36 -65h4v91h357v-1328zM866 745q0 66 -55 66h-319q-35 0 -49.5 -14.5t-14.5 -51.5v-528q0 -65 64 -65h311q34 0 48.5 14.5t14.5 50.5v528z
" />
    <glyph glyph-name="r" unicode="r" horiz-adv-x="940" 
d="M868 770h-376q-36 0 -50 -14.5t-14 -50.5v-705h-356v963h321l15 -105h4q9 105 155 105h301v-193z" />
    <glyph glyph-name="s" unicode="s" horiz-adv-x="1239" 
d="M1167 207q0 -100 -63 -153.5t-174 -53.5h-858v143h676q27 0 49 17.5t22 46.5v57q0 28 -22 44t-56 16h-458q-105 0 -158 64t-53 190v137q0 124 55.5 186t155.5 62h685v-144h-489q-28 0 -43.5 -14.5t-15.5 -38.5v-51q0 -56 59 -56h451q108 0 172.5 -52t64.5 -156v-244z" />
    <glyph glyph-name="t" unicode="t" horiz-adv-x="1001" 
d="M929 0h-468q-60 0 -104.5 19t-73.5 54t-43.5 84.5t-14.5 110.5v551h-186v144h186v196l357 47v-243h346v-144h-346v-581q0 -42 18.5 -64t61.5 -22h267v-152z" />
    <glyph glyph-name="u" unicode="u" horiz-adv-x="1282" 
d="M1210 0h-344v98h-4q-14 -51 -39 -74.5t-73 -23.5h-447q-231 0 -231 250v713h356v-746q0 -65 64 -65h299q34 0 48.5 14.5t14.5 50.5v746h356v-963z" />
    <glyph glyph-name="v" unicode="v" horiz-adv-x="1405" 
d="M1341 963l-456 -963h-357l-462 963h383l366 -770l363 770h163z" />
    <glyph glyph-name="w" unicode="w" horiz-adv-x="1788" 
d="M1733 963l-248 -963h-371l-213 776h-4l-188 -776h-377l-264 963h348l200 -697h5l170 697h413l195 -697h4l164 697h166z" />
    <glyph glyph-name="x" unicode="x" horiz-adv-x="1282" 
d="M1219 0h-437l-219 299l-299 -299h-194l407 408l-416 555h437l223 -306l301 301h192l-407 -407z" />
    <glyph glyph-name="y" unicode="y" horiz-adv-x="1282" 
d="M1210 -117q0 -106 -58 -176q-59 -72 -177 -72h-669v152h468q43 0 61.5 21.5t18.5 64.5v229h-6q-14 -54 -39.5 -78t-73.5 -24h-432q-231 0 -231 250v713h356v-746q0 -65 64 -65h299q34 0 48.5 14.5t14.5 50.5v746h356v-1080z" />
    <glyph glyph-name="z" unicode="z" horiz-adv-x="1268" 
d="M1206 0h-1165l608 819h-567v144h1098l-607 -820h633v-143z" />
    <glyph glyph-name="braceleft" unicode="{" horiz-adv-x="909" 
d="M817 -209h-272q-108 0 -188 64q-81 63 -81 155v332q0 76 -55 104q-56 29 -129 29v152q71 0 127 29q57 28 57 104v332q-1 45 21 85.5t59.5 70.5t86.5 47t102 16h272v-168h-102q-103 0 -103 -101v-323q0 -81 -56.5 -123.5t-152.5 -42.5v-4q96 0 152.5 -42.5t56.5 -123.5
v-324q0 -100 103 -100h102v-168z" />
    <glyph glyph-name="bar" unicode="|" horiz-adv-x="381" 
d="M289 -365h-197v1676h197v-1676z" />
    <glyph glyph-name="braceright" unicode="}" horiz-adv-x="909" 
d="M817 475q-74 0 -129 -30q-55 -28 -55 -103v-332q1 -45 -21 -85.5t-59.5 -70.5t-86.5 -47t-101 -16h-273v168h103q51 0 76.5 27t25.5 73v324q0 81 56.5 123.5t152.5 42.5v4q-96 0 -152.5 42.5t-56.5 123.5v323q0 48 -25.5 74.5t-76.5 26.5h-103v168h273q110 0 189 -64
q79 -63 79 -155v-332q0 -74 56 -104q58 -29 128 -29v-152z" />
    <glyph glyph-name="asciitilde" unicode="~" horiz-adv-x="944" 
d="M852 436l-25 -33q-45 -60 -94 -84t-117 -24t-129 33l-90 47q-36 18 -69 18q-34 0 -59 -12.5t-48 -42.5l-24 -33l-105 78l25 33q23 30 46 51t48.5 33.5t54.5 18t62 5.5q62 0 129 -32l90 -46q32 -20 69 -20q36 0 60 12.5t47 42.5l25 33z" />
    <glyph glyph-name="sterling" unicode="&#xa3;" horiz-adv-x="1507" 
d="M1415 238q0 -114 -76 -176t-225 -62h-973v162q254 68 254 282q0 71 -57 146h-246v151h144q-7 11 -16 27.5t-22 38.5q-24 44 -36 76t-12 67v129q0 56 21.5 99t61.5 72.5t98 45t130 15.5h667q68 0 121.5 -15t90 -43t56 -67.5t19.5 -87.5v-152h-373v133q0 36 -16 50t-53 14
h-367q-84 0 -84 -84q0 -25 7 -46q8 -23 22.5 -50.5t23.5 -44.5l93 -177h589v-151h-526q21 -65 21 -137q0 -46 -12 -84.5t-34.5 -72t-56 -64t-76.5 -60.5v-4h375q54 0 74 22.5t20 71.5v148h373v-172z" />
    <glyph glyph-name="yen" unicode="&#xa5;" horiz-adv-x="1616" 
d="M1497 1311l-289 -447h189v-151h-287l-100 -158v-31h387v-151h-387v-373h-402v373h-387v151h387v39l-98 150h-289v151h191l-291 447h442l369 -566l360 566h205z" />
    <glyph glyph-name="dieresis" unicode="&#xa8;" horiz-adv-x="1024" 
 />
    <glyph glyph-name="copyright" unicode="&#xa9;" horiz-adv-x="1495" 
d="M1403 657q0 -137 -49.5 -253t-143.5 -210t-213 -144t-252 -50q-88 -2 -171 21.5t-156.5 67t-134.5 104.5t-104.5 134.5t-67 157t-21.5 172.5q0 179 88 328q88 150 238 238q149 88 329 88q89 1 173 -22.5t157.5 -66.5t134.5 -103.5t104.5 -133t66.5 -156t22 -172.5z
M1288 657q2 73 -17.5 141.5t-55 129t-85.5 110.5t-111 85.5t-130.5 54.5t-143.5 18q-73 1 -142 -18t-129 -54.5t-109.5 -86t-85 -110.5t-54.5 -128.5t-18 -141.5q0 -147 71 -272q71 -123 196 -197q124 -73 271 -73q75 -1 144.5 18.5t130 55t110.5 85.5t85.5 110.5
t54.5 129.5t18 143zM1075 537q1 -46 -21 -95.5t-64 -90.5t-104 -67t-141 -24q-79 0 -144.5 31t-112 85t-72 126.5t-25.5 154.5q0 80 25.5 151.5t72 125.5t111.5 85.5t145 31.5q79 1 141 -24.5t104 -66.5t64 -90.5t21 -95.5h-121q0 61 -54 112q-53 52 -155 52
q-117 0 -177 -89t-60 -192q0 -104 60 -194q61 -90 177 -90q51 -1 90.5 14.5t66 39.5t40 53.5t12.5 56.5h121z" />
    <glyph glyph-name="registered" unicode="&#xae;" horiz-adv-x="1495" 
d="M1403 657q0 -137 -49.5 -253t-143.5 -210t-213 -144t-252 -50q-88 -2 -171 21.5t-156.5 67t-134.5 104.5t-104.5 134.5t-67 157t-21.5 172.5q0 179 88 328q88 150 238 238q149 88 329 88q89 1 173 -22.5t157.5 -66.5t134.5 -103.5t104.5 -133t66.5 -156t22 -172.5z
M1288 657q2 73 -17.5 141.5t-55 129t-85.5 110.5t-111 85.5t-130.5 54.5t-143.5 18q-73 1 -142 -18t-129 -54.5t-109.5 -86t-85 -110.5t-54.5 -128.5t-18 -141.5q0 -147 71 -272q71 -123 196 -197q124 -73 271 -73q75 -1 144.5 18.5t130 55t110.5 85.5t85.5 110.5
t54.5 129.5t18 143zM932 279q-25 51 -25 165q0 81 -35.5 111.5t-111.5 30.5h-166v-307h-115v755h283q276 0 276 -221q0 -130 -82 -182q64 -61 64 -187q0 -58 7 -85q8 -28 36 -80h-131zM924 813q0 109 -154 109h-176v-222h176q154 0 154 113z" />
    <glyph glyph-name="degree" unicode="&#xb0;" horiz-adv-x="623" 
d="M530 1286q0 -92 -65 -155q-65 -62 -154 -62q-91 0 -155 63q-64 64 -64 154t64 154q65 65 155 65q91 0 155 -64t64 -155zM424 1286q0 23 -9 43.5t-24.5 36t-36 24.5t-43.5 9q-44 0 -78 -34t-34 -79t33 -78q35 -32 79 -32q45 0 79 32q34 33 34 78z" />
    <glyph glyph-name="plusminus" unicode="&#xb1;" horiz-adv-x="840" 
d="M748 475h-263v-262h-131v262h-262v131h262v262h131v-262h263v-131zM748 0h-656v131h656v-131z" />
    <glyph glyph-name="paragraph" unicode="&#xb6;" horiz-adv-x="1274" 
d="M1182 -365h-221v1508h-226v-1508h-221v943h-119q-151 0 -227 65t-76 195v213q0 260 303 260h787v-1676z" />
    <glyph glyph-name="onequarter" unicode="&#xbc;" horiz-adv-x="2052" 
d="M1960 221h-115v-223h-241v223h-560v168l527 397h274v-385h115v-180zM1421 1311l-792 -1311h-234l793 1311h233zM449 524h-250v590h-107v94l262 103h95v-787zM1604 401v299l-394 -294v-5h394z" />
    <glyph glyph-name="onehalf" unicode="&#xbd;" horiz-adv-x="2148" 
d="M2052 0h-825v344q0 32 7.5 54.5t24 37.5t42 25t61.5 16l401 74q39 6 39 43v53q0 33 -47 33h-528v106h663q162 0 162 -149v-137q0 -122 -125 -148l-424 -78q-39 -6 -39 -51v-117h588v-106zM1421 1311l-792 -1311h-234l793 1311h233zM449 524h-250v590h-107v94l262 103h95
v-787z" />
    <glyph glyph-name="threequarters" unicode="&#xbe;" horiz-adv-x="2359" 
d="M2267 221h-115v-223h-241v223h-559v168l526 397h274v-385h115v-180zM1729 1311l-793 -1311h-234l793 1311h234zM926 680q0 -75 -42.5 -115.5t-127.5 -40.5h-664v107h549q35 0 35 37v178q0 35 -35 35h-338v106h338q35 0 35 37v141q0 39 -37 39h-537v107h654
q87 0 128.5 -40.5t41.5 -115.5v-98q0 -32 -7.5 -54t-25 -36.5t-46.5 -22t-71 -10.5v-2q87 -8 118 -34q32 -27 32 -89v-129zM1911 401v299l-393 -294v-5h393z" />
    <glyph glyph-name=".notdef.106" unicode="&#xc0;" horiz-adv-x="1653" 
d="M1585 0h-414l-163 373h-596l-162 -373h-184l587 1311h336zM932 541l-223 495l-220 -495h443zM993 1403h-149l-226 223h234z" />
    <glyph glyph-name=".notdef.107" unicode="&#xc1;" horiz-adv-x="1653" 
d="M1585 0h-414l-163 373h-596l-162 -373h-184l587 1311h336zM932 541l-223 495l-220 -495h443zM1042 1640l-223 -223h-151l141 223h233z" />
    <glyph glyph-name=".notdef.111" unicode="&#xc2;" horiz-adv-x="1653" 
d="M1585 0h-414l-163 373h-596l-162 -373h-184l587 1311h336zM932 541l-223 495l-220 -495h443zM1077 1395h-172l-98 125l-98 -125h-172l174 223h192z" />
    <glyph glyph-name=".notdef.109" unicode="&#xc3;" horiz-adv-x="1653" 
d="M1585 0h-414l-163 373h-596l-162 -373h-184l587 1311h336zM932 541l-223 495l-220 -495h443zM1126 1591q-8 -42 -21.5 -77t-34.5 -59.5t-50.5 -38t-69.5 -13.5q-24 0 -58 10.5t-60 20.5t-46.5 17t-42.5 7q-59 0 -69 -61h-99q18 86 57 137t120 51q42 0 111 -28
q72 -27 95 -27q60 0 70 61h98z" />
    <glyph glyph-name=".notdef.123" unicode="&#xc8;" horiz-adv-x="1253" 
d="M1176 0h-1084v1311h1084v-168h-699v-398h635v-167h-635v-410h699v-168zM791 1403h-150l-225 223h233z" />
    <glyph glyph-name=".notdef.124" unicode="&#xc9;" horiz-adv-x="1253" 
d="M1176 0h-1084v1311h1084v-168h-699v-398h635v-167h-635v-410h699v-168zM860 1640l-223 -223h-152l142 223h233z" />
    <glyph glyph-name=".notdef.128" unicode="&#xca;" horiz-adv-x="1253" 
d="M1176 0h-1084v1311h1084v-168h-699v-398h635v-167h-635v-410h699v-168zM881 1393h-172l-99 125l-98 -125h-172l174 223h193z" />
    <glyph glyph-name=".notdef.104" unicode="&#xcc;" horiz-adv-x="569" 
d="M477 0h-385v1311h385v-1311zM470 1413h-150l-225 223h233z" />
    <glyph glyph-name=".notdef.103" unicode="&#xcd;" horiz-adv-x="569" 
d="M477 0h-385v1311h385v-1311zM512 1651l-223 -224h-152l142 224h233z" />
    <glyph glyph-name=".notdef.099" unicode="&#xd2;" horiz-adv-x="1483" 
d="M1391 258q0 -124 -64 -191t-194 -67h-783q-129 0 -193.5 67.5t-64.5 190.5v795q0 121 64.5 189.5t193.5 68.5h783q130 0 194 -67t64 -191v-795zM1006 1073q0 70 -70 70h-389q-70 0 -70 -70v-835q0 -38 17.5 -54t52.5 -16h389q70 0 70 70v835zM904 1403h-149l-226 223h234
z" />
    <glyph glyph-name=".notdef.098" unicode="&#xd3;" horiz-adv-x="1483" 
d="M1391 258q0 -124 -64 -191t-194 -67h-783q-129 0 -193.5 67.5t-64.5 190.5v795q0 121 64.5 189.5t193.5 68.5h783q130 0 194 -67t64 -191v-795zM1006 1073q0 70 -70 70h-389q-70 0 -70 -70v-835q0 -38 17.5 -54t52.5 -16h389q70 0 70 70v835zM969 1630l-224 -223h-151
l141 223h234z" />
    <glyph glyph-name=".notdef.094" unicode="&#xd4;" horiz-adv-x="1483" 
d="M1391 258q0 -124 -64 -191t-194 -67h-783q-129 0 -193.5 67.5t-64.5 190.5v795q0 121 64.5 189.5t193.5 68.5h783q130 0 194 -67t64 -191v-795zM1006 1073q0 70 -70 70h-389q-70 0 -70 -70v-835q0 -38 17.5 -54t52.5 -16h389q70 0 70 70v835zM1016 1401h-172l-99 125
l-98 -125h-172l174 223h193z" />
    <glyph glyph-name=".notdef.096" unicode="&#xd5;" horiz-adv-x="1483" 
d="M1391 258q0 -124 -64 -191t-194 -67h-783q-129 0 -193.5 67.5t-64.5 190.5v795q0 121 64.5 189.5t193.5 68.5h783q130 0 194 -67t64 -191v-795zM1006 1073q0 70 -70 70h-389q-70 0 -70 -70v-835q0 -38 17.5 -54t52.5 -16h389q70 0 70 70v835zM1012 1612
q-16 -87 -56.5 -138t-119.5 -51q-24 0 -49.5 7t-60.5 21t-55 21t-42 7q-59 0 -70 -62h-98q7 43 20.5 78t34.5 59.5t50.5 38t70.5 13.5t110 -28t97 -28q58 0 69 62h99z" />
    <glyph glyph-name="multiply" unicode="&#xd7;" horiz-adv-x="840" 
d="M748 647l-240 -237l237 -236l-88 -92l-237 237l-236 -237l-90 90l236 238l-238 239l92 88l236 -237l235 237z" />
    <glyph glyph-name=".notdef.088" unicode="&#xd9;" horiz-adv-x="1458" 
d="M1366 223q0 -45 -18 -85.5t-49.5 -71t-73 -48.5t-88.5 -18h-815q-46 -2 -88 16.5t-73.5 50t-50.5 72t-18 84.5v1088h385v-1088q0 -55 62 -55h589q62 0 62 55v1088h176v-1088zM982 1403h-150l-225 223h234z" />
    <glyph glyph-name=".notdef.087" unicode="&#xda;" horiz-adv-x="1458" 
d="M1366 223q0 -45 -18 -85.5t-49.5 -71t-73 -48.5t-88.5 -18h-815q-46 -2 -88 16.5t-73.5 50t-50.5 72t-18 84.5v1088h385v-1088q0 -55 62 -55h589q62 0 62 55v1088h176v-1088zM1073 1651l-224 -224h-151l141 224h234z" />
    <glyph glyph-name=".notdef.070" unicode="&#xdd;" horiz-adv-x="1513" 
d="M1444 1311l-486 -756v-555h-401v563l-489 748h448l365 -566l358 566h205zM1107 1640l-223 -223h-152l141 223h234z" />
    <glyph glyph-name=".notdef.066" unicode="&#xe0;" 
d="M836 1065h-150l-225 223h233zM1223 0h-310l-16 100h-4q-17 -45 -45 -72.5t-84 -27.5h-461q-60 0 -103.5 17.5t-72 55t-42 96.5t-13.5 142v45q0 84 13 143.5t41.5 97t73.5 54.5t109 17h557v110q0 41 -49 41h-511v144h677q240 0 240 -250v-713zM866 516h-379q-59 0 -59 -65
v-236q0 -63 53 -63h326q31 0 45 14t14 49v301z" />
    <glyph glyph-name=".notdef.065" unicode="&#xe1;" 
d="M905 1292l-223 -223h-152l142 223h233zM1223 0h-310l-16 100h-4q-17 -45 -45 -72.5t-84 -27.5h-461q-60 0 -103.5 17.5t-72 55t-42 96.5t-13.5 142v45q0 84 13 143.5t41.5 97t73.5 54.5t109 17h557v110q0 41 -49 41h-511v144h677q240 0 240 -250v-713zM866 516h-379
q-59 0 -59 -65v-236q0 -63 53 -63h326q31 0 45 14t14 49v301z" />
    <glyph glyph-name=".notdef.061" unicode="&#xe2;" 
d="M974 1049h-172l-99 125l-98 -125h-172l174 223h193zM1223 0h-310l-16 100h-4q-17 -45 -45 -72.5t-84 -27.5h-461q-60 0 -103.5 17.5t-72 55t-42 96.5t-13.5 142v45q0 84 13 143.5t41.5 97t73.5 54.5t109 17h557v110q0 41 -49 41h-511v144h677q240 0 240 -250v-713z
M866 516h-379q-59 0 -59 -65v-236q0 -63 53 -63h326q31 0 45 14t14 49v301z" />
    <glyph glyph-name=".notdef.063" unicode="&#xe3;" 
d="M992 1243q-8 -42 -21.5 -77t-34.5 -59.5t-50.5 -38t-69.5 -13.5q-12 0 -22.5 1.5t-20.5 3.5q-9 2 -24 7t-36 13t-36 13.5t-26.5 9.5t-21 5.5t-20.5 1.5q-58 0 -70 -61h-98q9 44 22.5 79t34 59t49.5 37t70 13q28 0 54.5 -8t53.5 -18t55 -19.5t44 -9.5q60 0 70 61h98z
M1223 0h-310l-16 100h-4q-17 -45 -45 -72.5t-84 -27.5h-461q-60 0 -103.5 17.5t-72 55t-42 96.5t-13.5 142v45q0 84 13 143.5t41.5 97t73.5 54.5t109 17h557v110q0 41 -49 41h-511v144h677q240 0 240 -250v-713zM866 516h-379q-59 0 -59 -65v-236q0 -63 53 -63h326
q31 0 45 14t14 49v301z" />
    <glyph glyph-name=".notdef.049" unicode="&#xe8;" 
d="M856 1055h-149l-226 223h234zM1223 393h-795v-176q0 -65 59 -65h545v-152h-725q-122 0 -178.5 65t-56.5 183v467q0 118 56.5 183t178.5 65h680q236 0 236 -248v-322zM866 545v200q0 66 -59 66h-320q-59 0 -59 -66v-200h438z" />
    <glyph glyph-name=".notdef.048" unicode="&#xe9;" 
d="M874 1292l-223 -223h-151l141 223h233zM1223 393h-795v-176q0 -65 59 -65h545v-152h-725q-122 0 -178.5 65t-56.5 183v467q0 118 56.5 183t178.5 65h680q236 0 236 -248v-322zM866 545v200q0 66 -59 66h-320q-59 0 -59 -66v-200h438z" />
    <glyph glyph-name=".notdef.044" unicode="&#xea;" 
d="M918 1053h-173l-98 125l-98 -125h-172l174 223h192zM1223 393h-795v-176q0 -65 59 -65h545v-152h-725q-122 0 -178.5 65t-56.5 183v467q0 118 56.5 183t178.5 65h680q236 0 236 -248v-322zM866 545v200q0 66 -59 66h-320q-59 0 -59 -66v-200h438z" />
    <glyph glyph-name=".notdef.038" unicode="&#xec;" horiz-adv-x="541" 
d="M449 0h-357v963h357v-963zM449 1079h-150l-225 224h233z" />
    <glyph glyph-name=".notdef.037" unicode="&#xed;" horiz-adv-x="541" 
d="M449 0h-357v963h357v-963zM467 1296l-223 -223h-152l141 223h234z" />
    <glyph glyph-name=".notdef.033" unicode="&#xf2;" 
d="M1223 248q0 -248 -236 -248h-680q-122 0 -178.5 65t-56.5 183v467q0 118 56.5 183t178.5 65h680q236 0 236 -248v-467zM866 745q0 66 -59 66h-320q-59 0 -59 -66v-528q0 -65 59 -65h320q59 0 59 65v528zM826 1044h-150l-225 224h233z" />
    <glyph glyph-name=".notdef.032" unicode="&#xf3;" 
d="M1223 248q0 -248 -236 -248h-680q-122 0 -178.5 65t-56.5 183v467q0 118 56.5 183t178.5 65h680q236 0 236 -248v-467zM866 745q0 66 -59 66h-320q-59 0 -59 -66v-528q0 -65 59 -65h320q59 0 59 65v528zM896 1282l-223 -223h-152l142 223h233z" />
    <glyph glyph-name=".notdef.028" unicode="&#xf4;" 
d="M1223 248q0 -248 -236 -248h-680q-122 0 -178.5 65t-56.5 183v467q0 118 56.5 183t178.5 65h680q236 0 236 -248v-467zM866 745q0 66 -59 66h-320q-59 0 -59 -66v-528q0 -65 59 -65h320q59 0 59 65v528zM918 1053h-173l-98 125l-98 -125h-172l174 223h192z" />
    <glyph glyph-name=".notdef.030" unicode="&#xf5;" 
d="M1223 248q0 -248 -236 -248h-680q-122 0 -178.5 65t-56.5 183v467q0 118 56.5 183t178.5 65h680q236 0 236 -248v-467zM866 745q0 66 -59 66h-320q-59 0 -59 -66v-528q0 -65 59 -65h320q59 0 59 65v528zM948 1253q-8 -42 -21.5 -77t-34.5 -59.5t-50.5 -38t-69.5 -13.5
q-24 0 -58 10.5t-60 20.5t-46.5 17t-42.5 7q-59 0 -69 -61h-99q18 86 57 137t119 51q28 0 54.5 -8t53.5 -18t55 -19.5t44 -9.5q60 0 70 61h98z" />
    <glyph glyph-name="divide" unicode="&#xf7;" horiz-adv-x="1706" 
 />
    <glyph glyph-name=".notdef.022" unicode="&#xf9;" horiz-adv-x="1282" 
d="M1210 0h-344v98h-4q-14 -51 -39 -74.5t-73 -23.5h-447q-231 0 -231 250v713h356v-746q0 -65 64 -65h299q34 0 48.5 14.5t14.5 50.5v746h356v-963zM809 1065h-150l-225 223h234z" />
    <glyph glyph-name=".notdef.021" unicode="&#xfa;" horiz-adv-x="1282" 
d="M1210 0h-344v98h-4q-14 -51 -39 -74.5t-73 -23.5h-447q-231 0 -231 250v713h356v-746q0 -65 64 -65h299q34 0 48.5 14.5t14.5 50.5v746h356v-963zM916 1282l-223 -223h-152l142 223h233z" />
    <glyph glyph-name=".notdef.004" unicode="&#xfd;" horiz-adv-x="1282" 
d="M916 1292l-223 -223h-152l141 223h234zM1210 -117q0 -106 -58 -176q-59 -72 -177 -72h-669v152h468q43 0 61.5 21.5t18.5 64.5v229h-6q-14 -54 -39.5 -78t-73.5 -24h-432q-231 0 -231 250v713h356v-746q0 -65 64 -65h299q34 0 48.5 14.5t14.5 50.5v746h356v-1080z" />
    <glyph glyph-name=".notdef.117" unicode="&#x102;" horiz-adv-x="1653" 
d="M1585 0h-414l-163 373h-596l-162 -373h-184l587 1311h336zM932 541l-223 495l-220 -495h443zM1067 1620h4q-10 -108 -70 -165.5t-186 -57.5q-65 0 -111.5 15.5t-77 44.5t-47 70.5t-20.5 92.5h98q17 -107 156 -107t156 107h98z" />
    <glyph glyph-name=".notdef.055" unicode="&#x103;" 
d="M952 1264h4q-20 -224 -256 -224t-256 224h98q17 -107 156 -107t156 107h98zM1223 0h-310l-16 100h-4q-17 -45 -45 -72.5t-84 -27.5h-461q-60 0 -103.5 17.5t-72 55t-42 96.5t-13.5 142v45q0 84 13 143.5t41.5 97t73.5 54.5t109 17h557v110q0 41 -49 41h-511v144h677
q240 0 240 -250v-713zM866 516h-379q-59 0 -59 -65v-236q0 -63 53 -63h326q31 0 45 14t14 49v301z" />
    <glyph glyph-name="Ccaron" unicode="&#x10c;" horiz-adv-x="1274" 
 />
    <glyph glyph-name="ccaron" unicode="&#x10d;" horiz-adv-x="922" 
 />
    <glyph glyph-name="Dslash" unicode="&#x110;" horiz-adv-x="1604" 
d="M1511 258q0 -124 -64 -191t-194 -67h-1040v578h-172v167h172v566h1040q130 0 194 -67t64 -191v-795zM1126 1073q0 70 -69 70l-459 -2v-396h336v-167h-336v-410h459q35 0 52 15.5t17 54.5v835z" />
    <glyph glyph-name="dcroat" unicode="&#x111;" horiz-adv-x="1315" 
d="M1223 0h-357v90h-4q-9 -39 -36.5 -64.5t-59.5 -25.5h-463q-108 0 -169.5 61t-61.5 187v465q0 250 231 250h442q45 0 68.5 -23.5t44.5 -75.5h8v211h-446v103h446v133h357v-133h86v-103h-86v-1075zM866 745q0 37 -14 51.5t-49 14.5h-311q-64 0 -64 -66v-528
q0 -36 14.5 -50.5t49.5 -14.5h319q55 0 55 65v528z" />
    <glyph glyph-name=".notdef.101" unicode="&#x128;" horiz-adv-x="569" 
d="M477 0h-385v1311h385v-1311zM575 1612q-17 -87 -56 -138q-41 -51 -120 -51q-22 0 -48 7t-61 21t-55 21t-42 7q-59 0 -70 -62h-98q7 43 20.5 78t34.5 59.5t50.5 38t70.5 13.5t110 -28t97 -28q58 0 69 62h98z" />
    <glyph glyph-name=".notdef.035" unicode="&#x129;" horiz-adv-x="541" 
d="M449 0h-357v963h357v-963zM561 1247q-8 -42 -21.5 -77t-34.5 -59.5t-50.5 -38t-69.5 -13.5q-24 0 -58 10.5t-60 20.5t-46.5 17t-42.5 7q-59 0 -69 -61h-99q18 86 57 137t119 51q28 0 54.5 -8t53.5 -18t55 -19.5t44 -9.5q60 0 70 61h98z" />
    <glyph glyph-name=".notdef.085" unicode="&#x168;" horiz-adv-x="1458" 
d="M1366 223q0 -45 -18 -85.5t-49.5 -71t-73 -48.5t-88.5 -18h-815q-46 -2 -88 16.5t-73.5 50t-50.5 72t-18 84.5v1088h385v-1088q0 -55 62 -55h589q62 0 62 55v1088h176v-1088zM1093 1591q-8 -42 -21.5 -77t-34.5 -59.5t-50.5 -38t-69.5 -13.5q-24 0 -58 10.5t-60 20.5
t-46.5 17t-42.5 7q-59 0 -69 -61h-99q18 86 57 137t120 51q42 0 111 -28q72 -27 95 -27q60 0 70 61h98z" />
    <glyph glyph-name=".notdef.019" unicode="&#x169;" horiz-adv-x="1282" 
d="M1210 0h-344v98h-4q-14 -51 -39 -74.5t-73 -23.5h-447q-231 0 -231 250v713h356v-746q0 -65 64 -65h299q34 0 48.5 14.5t14.5 50.5v746h356v-963zM922 1253q-8 -43 -21.5 -78t-34.5 -59.5t-51 -37.5t-70 -13q-11 0 -26 3t-31 7.5t-32 10t-29 10.5q-26 10 -46 17t-42 7
q-60 0 -70 -61h-98q8 42 21 77t34 59.5t50.5 38t70.5 13.5q42 0 111 -28q72 -27 96 -27q59 0 69 61h99z" />
    <glyph glyph-name=".notdef.077" unicode="&#x1a0;" horiz-adv-x="1595" 
d="M1596 1208q0 -138 -40 -175q-36 -35 -165 -37v-738q0 -124 -64 -191t-194 -67h-783q-129 0 -193.5 67.5t-64.5 190.5v795q0 121 64.5 189.5t193.5 68.5h783q130 0 194 -67q56 -59 63 -163q24 3 33 11q13 12 13 65v154h160v-103zM1006 1073q0 70 -70 70h-389
q-70 0 -70 -70v-835q0 -38 17.5 -54t52.5 -16h389q70 0 70 70v835z" />
    <glyph glyph-name=".notdef.011" unicode="&#x1a1;" horiz-adv-x="1430" 
d="M1431 860q0 -138 -40 -175q-36 -35 -168 -37v-400q0 -248 -236 -248h-680q-122 0 -178.5 65t-56.5 183v467q0 118 56.5 183t178.5 65h680q227 0 235 -230q26 3 36 11q13 12 13 65v154h160v-103zM866 745q0 66 -59 66h-320q-59 0 -59 -66v-528q0 -65 59 -65h320
q59 0 59 65v528z" />
    <glyph glyph-name=".notdef.083" unicode="&#x1af;" horiz-adv-x="1595" 
d="M1596 1208q0 -138 -40 -175q-38 -37 -183 -37h-7v-773q0 -45 -18 -85.5t-49.5 -71t-73 -48.5t-88.5 -18h-815q-46 -2 -88 16.5t-73.5 50t-50.5 72t-18 84.5v1088h385v-1088q0 -55 62 -55h589q62 0 62 55v1088h176v-231q44 1 57 12q13 12 13 65v154h160v-103z" />
    <glyph glyph-name=".notdef.017" unicode="&#x1b0;" horiz-adv-x="1430" 
d="M1431 860q0 -138 -40 -175q-38 -37 -181 -37v-648h-344v98h-4q-14 -51 -39 -74.5t-73 -23.5h-447q-231 0 -231 250v713h356v-746q0 -65 64 -65h299q34 0 48.5 14.5t14.5 50.5v746h356v-231q36 2 48 12q13 12 13 65v154h160v-103z" />
    <glyph glyph-name=".notdef.110" unicode="&#x1ea0;" horiz-adv-x="1653" 
d="M1585 0h-414l-163 373h-596l-162 -373h-184l587 1311h336zM932 541l-223 495l-220 -495h443zM919 -273h-267v172h267v-172z" />
    <glyph glyph-name=".notdef.062" unicode="&#x1ea1;" 
d="M1223 0h-310l-16 100h-4q-17 -45 -45 -72.5t-84 -27.5h-461q-60 0 -103.5 17.5t-72 55t-42 96.5t-13.5 142v45q0 84 13 143.5t41.5 97t73.5 54.5t109 17h557v110q0 41 -49 41h-511v144h677q240 0 240 -250v-713zM866 516h-379q-59 0 -59 -65v-236q0 -63 53 -63h326
q31 0 45 14t14 49v301zM791 -270h-267v172h267v-172z" />
    <glyph glyph-name=".notdef.108" unicode="&#x1ea2;" horiz-adv-x="1653" 
d="M1585 0h-414l-163 373h-596l-162 -373h-184l587 1311h336zM932 541l-223 495l-220 -495h443zM1040 1565v-9q0 -31 -19.5 -43t-70.5 -12h-53q-25 0 -25 -24v-62h-131v115q0 43 54 43h84q22 0 22 24v50q0 20 -29 20h-157v72h235q52 0 71 -16.5t19 -59.5v-98z" />
    <glyph glyph-name=".notdef.064" unicode="&#x1ea3;" 
d="M932 1206v-8q0 -31 -19.5 -43t-70.5 -12h-53q-25 0 -25 -25v-61h-131v114q0 43 53 43h84q23 0 23 25v49q0 21 -29 21h-158v71h236q53 0 71.5 -17.5t18.5 -57.5v-99zM1223 0h-310l-16 100h-4q-17 -45 -45 -72.5t-84 -27.5h-461q-60 0 -103.5 17.5t-72 55t-42 96.5
t-13.5 142v45q0 84 13 143.5t41.5 97t73.5 54.5t109 17h557v110q0 41 -49 41h-511v144h677q240 0 240 -250v-713zM866 516h-379q-59 0 -59 -65v-236q0 -63 53 -63h326q31 0 45 14t14 49v301z" />
    <glyph glyph-name=".notdef.113" unicode="&#x1ea4;" horiz-adv-x="1653" 
d="M1585 0h-414l-163 373h-596l-162 -373h-184l587 1311h336zM932 541l-223 495l-220 -495h443zM1077 1395h-172l-98 125l-98 -125h-172l174 223h192zM1384 1767l-223 -223h-151l141 223h233z" />
    <glyph glyph-name=".notdef.059" unicode="&#x1ea5;" 
d="M974 1049h-172l-99 125l-98 -125h-172l174 223h193zM1223 0h-310l-16 100h-4q-17 -45 -45 -72.5t-84 -27.5h-461q-60 0 -103.5 17.5t-72 55t-42 96.5t-13.5 142v45q0 84 13 143.5t41.5 97t73.5 54.5t109 17h557v110q0 41 -49 41h-511v144h677q240 0 240 -250v-713z
M866 516h-379q-59 0 -59 -65v-236q0 -63 53 -63h326q31 0 45 14t14 49v301zM1280 1421l-223 -223h-152l141 223h234z" />
    <glyph glyph-name=".notdef.112" unicode="&#x1ea6;" horiz-adv-x="1653" 
d="M1585 0h-414l-163 373h-596l-162 -373h-184l587 1311h336zM932 541l-223 495l-220 -495h443zM1077 1395h-172l-98 125l-98 -125h-172l174 223h192zM1223 1550h-150l-225 224h233z" />
    <glyph glyph-name=".notdef.060" unicode="&#x1ea7;" 
d="M974 1049h-172l-99 125l-98 -125h-172l174 223h193zM1223 0h-310l-16 100h-4q-17 -45 -45 -72.5t-84 -27.5h-461q-60 0 -103.5 17.5t-72 55t-42 96.5t-13.5 142v45q0 84 13 143.5t41.5 97t73.5 54.5t109 17h557v110q0 41 -49 41h-511v144h677q240 0 240 -250v-713z
M866 516h-379q-59 0 -59 -65v-236q0 -63 53 -63h326q31 0 45 14t14 49v301zM1119 1204h-149l-226 223h234z" />
    <glyph glyph-name=".notdef.114" unicode="&#x1ea8;" horiz-adv-x="1653" 
d="M1585 0h-414l-163 373h-596l-162 -373h-184l587 1311h336zM932 541l-223 495l-220 -495h443zM1077 1395h-172l-98 125l-98 -125h-172l174 223h192zM1321 1702v-8q0 -31 -19.5 -43.5t-70.5 -12.5h-53q-25 0 -25 -24v-62h-131v115q0 43 53 43h84q23 0 23 25v49q0 20 -29 20
h-158v72h236q52 0 71 -16.5t19 -59.5v-98z" />
    <glyph glyph-name=".notdef.058" unicode="&#x1ea9;" 
d="M974 1049h-172l-99 125l-98 -125h-172l174 223h193zM1223 0h-310l-16 100h-4q-17 -45 -45 -72.5t-84 -27.5h-461q-60 0 -103.5 17.5t-72 55t-42 96.5t-13.5 142v45q0 84 13 143.5t41.5 97t73.5 54.5t109 17h557v110q0 41 -49 41h-511v144h677q240 0 240 -250v-713z
M866 516h-379q-59 0 -59 -65v-236q0 -63 53 -63h326q31 0 45 14t14 49v301zM1217 1356v-8q0 -31 -19.5 -43.5t-70.5 -12.5h-53q-24 0 -24 -24v-62h-132v115q0 43 54 43h84q22 0 22 25v49q0 12 -5.5 16t-22.5 4h-158v72h235q52 0 71 -16.5t19 -59.5v-98z" />
    <glyph glyph-name=".notdef.115" unicode="&#x1eaa;" horiz-adv-x="1653" 
d="M1585 0h-414l-163 373h-596l-162 -373h-184l587 1311h336zM932 541l-223 495l-220 -495h443zM1077 1395h-172l-98 125l-98 -125h-172l174 223h192zM1100 1892q-8 -43 -21.5 -78t-35 -59.5t-51 -37.5t-68.5 -13q-12 0 -22.5 1.5t-20.5 3.5q-9 2 -24 7t-36 13t-36 13.5
t-26.5 9.5t-21 5.5t-20.5 1.5q-60 0 -70 -61h-98q8 42 21 77t34 59.5t50.5 38t70.5 13.5q42 0 111 -28q72 -27 96 -27q59 0 69 61h99z" />
    <glyph glyph-name=".notdef.057" unicode="&#x1eab;" 
d="M974 1049h-172l-99 125l-98 -125h-172l174 223h193zM1223 0h-310l-16 100h-4q-17 -45 -45 -72.5t-84 -27.5h-461q-60 0 -103.5 17.5t-72 55t-42 96.5t-13.5 142v45q0 84 13 143.5t41.5 97t73.5 54.5t109 17h557v110q0 41 -49 41h-511v144h677q240 0 240 -250v-713z
M866 516h-379q-59 0 -59 -65v-236q0 -63 53 -63h326q31 0 45 14t14 49v301zM995 1546q-8 -42 -21.5 -77t-34.5 -59.5t-50.5 -38t-69.5 -13.5q-24 0 -58 10.5t-60 20.5t-46.5 17t-42.5 7q-59 0 -69 -61h-99q18 86 57 137t119 51q28 0 54.5 -8t53.5 -18t55 -19.5t44 -9.5
q60 0 70 61h98z" />
    <glyph glyph-name=".notdef.116" unicode="&#x1eac;" horiz-adv-x="1653" 
d="M1585 0h-414l-163 373h-596l-162 -373h-184l587 1311h336zM932 541l-223 495l-220 -495h443zM1077 1395h-172l-98 125l-98 -125h-172l174 223h192zM919 -273h-267v172h267v-172z" />
    <glyph glyph-name=".notdef.056" unicode="&#x1ead;" 
d="M974 1049h-172l-99 125l-98 -125h-172l174 223h193zM1223 0h-310l-16 100h-4q-17 -45 -45 -72.5t-84 -27.5h-461q-60 0 -103.5 17.5t-72 55t-42 96.5t-13.5 142v45q0 84 13 143.5t41.5 97t73.5 54.5t109 17h557v110q0 41 -49 41h-511v144h677q240 0 240 -250v-713z
M866 516h-379q-59 0 -59 -65v-236q0 -63 53 -63h326q31 0 45 14t14 49v301zM791 -270h-267v172h267v-172z" />
    <glyph glyph-name=".notdef.119" unicode="&#x1eae;" horiz-adv-x="1653" 
d="M1585 0h-414l-163 373h-596l-162 -373h-184l587 1311h336zM932 541l-223 495l-220 -495h443zM1067 1620h4q-10 -108 -70 -165.5t-186 -57.5q-65 0 -111.5 15.5t-77 44.5t-47 70.5t-20.5 92.5h98q17 -107 156 -107t156 107h98zM1110 1888l-223 -223h-152l142 223h233z" />
    <glyph glyph-name=".notdef.053" unicode="&#x1eaf;" horiz-adv-x="1200" 
d="M952 1264h4q-20 -224 -256 -224t-256 224h98q17 -107 156 -107t156 107h98zM1223 0h-310l-16 100h-4q-17 -45 -45 -72.5t-84 -27.5h-461q-60 0 -103.5 17.5t-72 55t-42 96.5t-13.5 142v45q0 84 13 143.5t41.5 97t73.5 54.5t109 17h557v110q0 41 -49 41h-511v144h677
q240 0 240 -250v-713zM866 516h-379q-59 0 -59 -65v-236q0 -63 53 -63h326q31 0 45 14t14 49v301zM995 1532l-223 -223h-152l142 223h233z" />
    <glyph glyph-name=".notdef.118" unicode="&#x1eb0;" horiz-adv-x="1653" 
d="M1585 0h-414l-163 373h-596l-162 -373h-184l587 1311h336zM932 541l-223 495l-220 -495h443zM1067 1620h4q-10 -108 -70 -165.5t-186 -57.5q-65 0 -111.5 15.5t-77 44.5t-47 70.5t-20.5 92.5h98q17 -107 156 -107t156 107h98zM897 1671h-149l-226 223h234z" />
    <glyph glyph-name=".notdef.054" unicode="&#x1eb1;" 
d="M952 1264h4q-20 -224 -256 -224t-256 224h98q17 -107 156 -107t156 107h98zM1223 0h-310l-16 100h-4q-17 -45 -45 -72.5t-84 -27.5h-461q-60 0 -103.5 17.5t-72 55t-42 96.5t-13.5 142v45q0 84 13 143.5t41.5 97t73.5 54.5t109 17h557v110q0 41 -49 41h-511v144h677
q240 0 240 -250v-713zM866 516h-379q-59 0 -59 -65v-236q0 -63 53 -63h326q31 0 45 14t14 49v301zM783 1315h-149l-226 223h234z" />
    <glyph glyph-name=".notdef.120" unicode="&#x1eb2;" horiz-adv-x="1653" 
d="M1585 0h-414l-163 373h-596l-162 -373h-184l587 1311h336zM932 541l-223 495l-220 -495h443zM1067 1620h4q-10 -108 -70 -165.5t-186 -57.5q-65 0 -111.5 15.5t-77 44.5t-47 70.5t-20.5 92.5h98q17 -107 156 -107t156 107h98zM1036 1812v-8q0 -31 -19.5 -43t-70.5 -12
h-53q-25 0 -25 -25v-61h-131v115q0 43 54 43h83q23 0 23 24v49q0 21 -29 21h-157v72h235q52 0 71 -16.5t19 -59.5v-99z" />
    <glyph glyph-name=".notdef.052" unicode="&#x1eb3;" 
d="M952 1264h4q-20 -224 -256 -224t-256 224h98q17 -107 156 -107t156 107h98zM1223 0h-310l-16 100h-4q-17 -45 -45 -72.5t-84 -27.5h-461q-60 0 -103.5 17.5t-72 55t-42 96.5t-13.5 142v45q0 84 13 143.5t41.5 97t73.5 54.5t109 17h557v110q0 41 -49 41h-511v144h677
q240 0 240 -250v-713zM866 516h-379q-59 0 -59 -65v-236q0 -63 53 -63h326q31 0 45 14t14 49v301zM922 1456v-8q0 -31 -19.5 -43t-70.5 -12h-53q-25 0 -25 -25v-61h-131v114q0 43 54 43h84q22 0 22 25v49q0 21 -29 21h-157v71h235q54 0 72 -16.5t18 -59.5v-98z" />
    <glyph glyph-name=".notdef.121" unicode="&#x1eb4;" horiz-adv-x="1653" 
d="M1585 0h-414l-163 373h-596l-162 -373h-184l587 1311h336zM932 541l-223 495l-220 -495h443zM1067 1620h4q-10 -108 -70 -165.5t-186 -57.5q-65 0 -111.5 15.5t-77 44.5t-47 70.5t-20.5 92.5h98q17 -107 156 -107t156 107h98zM1122 1901q-17 -87 -56 -138
q-41 -51 -120 -51q-24 0 -58 10.5t-60 20.5t-46.5 17t-42.5 7q-59 0 -69 -61h-99q18 86 57 137t120 51q42 0 111 -28q72 -27 95 -27q59 0 70 62h98z" />
    <glyph glyph-name=".notdef.051" unicode="&#x1eb5;" 
d="M952 1264h4q-20 -224 -256 -224t-256 224h98q17 -107 156 -107t156 107h98zM1223 0h-310l-16 100h-4q-17 -45 -45 -72.5t-84 -27.5h-461q-60 0 -103.5 17.5t-72 55t-42 96.5t-13.5 142v45q0 84 13 143.5t41.5 97t73.5 54.5t109 17h557v110q0 41 -49 41h-511v144h677
q240 0 240 -250v-713zM866 516h-379q-59 0 -59 -65v-236q0 -63 53 -63h326q31 0 45 14t14 49v301zM1008 1544q-8 -42 -21.5 -77t-34.5 -59.5t-50.5 -38t-69.5 -13.5q-24 0 -58 10.5t-60 20.5t-46.5 17t-42.5 7q-59 0 -69 -61h-99q18 86 57 137t120 51q42 0 111 -28
q72 -27 95 -27q60 0 70 61h98z" />
    <glyph glyph-name=".notdef.122" unicode="&#x1eb6;" horiz-adv-x="1653" 
d="M1585 0h-414l-163 373h-596l-162 -373h-184l587 1311h336zM932 541l-223 495l-220 -495h443zM1067 1620h4q-10 -108 -70 -165.5t-186 -57.5q-65 0 -111.5 15.5t-77 44.5t-47 70.5t-20.5 92.5h98q17 -107 156 -107t156 107h98zM919 -273h-267v172h267v-172z" />
    <glyph glyph-name=".notdef.050" unicode="&#x1eb7;" 
d="M952 1264h4q-20 -224 -256 -224t-256 224h98q17 -107 156 -107t156 107h98zM1223 0h-310l-16 100h-4q-17 -45 -45 -72.5t-84 -27.5h-461q-60 0 -103.5 17.5t-72 55t-42 96.5t-13.5 142v45q0 84 13 143.5t41.5 97t73.5 54.5t109 17h557v110q0 41 -49 41h-511v144h677
q240 0 240 -250v-713zM866 516h-379q-59 0 -59 -65v-236q0 -63 53 -63h326q31 0 45 14t14 49v301zM791 -299h-267v172h267v-172z" />
    <glyph glyph-name=".notdef.127" unicode="&#x1eb8;" horiz-adv-x="1253" 
d="M1176 0h-1084v1311h1084v-168h-699v-398h635v-167h-635v-410h699v-168zM764 -281h-266v172h266v-172z" />
    <glyph glyph-name=".notdef.045" unicode="&#x1eb9;" 
d="M788 -281h-266v172h266v-172zM1223 393h-795v-176q0 -65 59 -65h545v-152h-725q-122 0 -178.5 65t-56.5 183v467q0 118 56.5 183t178.5 65h680q236 0 236 -248v-322zM866 545v200q0 66 -59 66h-320q-59 0 -59 -66v-200h438z" />
    <glyph glyph-name=".notdef.125" unicode="&#x1eba;" horiz-adv-x="1253" 
d="M1176 0h-1084v1311h1084v-168h-699v-398h635v-167h-635v-410h699v-168zM868 1575v-8q0 -31 -19.5 -43.5t-70.5 -12.5h-53q-25 0 -25 -24v-62h-131v115q0 43 54 43h84q22 0 22 25v49q0 20 -29 20h-157v72h235q52 0 71 -16.5t19 -59.5v-98z" />
    <glyph glyph-name=".notdef.047" unicode="&#x1ebb;" 
d="M903 1217v-9q0 -31 -19.5 -43t-70.5 -12h-53q-25 0 -25 -25v-61h-131v115q0 43 53 43h84q23 0 23 24v49q0 21 -29 21h-157v72h235q52 0 71 -16.5t19 -59.5v-98zM1223 393h-795v-176q0 -65 59 -65h545v-152h-725q-122 0 -178.5 65t-56.5 183v467q0 118 56.5 183t178.5 65
h680q236 0 236 -248v-322zM866 545v200q0 66 -59 66h-320q-59 0 -59 -66v-200h438z" />
    <glyph glyph-name=".notdef.126" unicode="&#x1ebc;" horiz-adv-x="1253" 
d="M1176 0h-1084v1311h1084v-168h-699v-398h635v-167h-635v-410h699v-168zM913 1602q-17 -87 -56 -138q-41 -51 -120 -51q-11 0 -26 3t-31 7.5t-32 10t-29 10.5q-26 10 -46.5 17t-42.5 7q-59 0 -69 -61h-99q18 86 57 137t120 51q42 0 111 -28q72 -27 95 -27q59 0 70 62h98z
" />
    <glyph glyph-name=".notdef.046" unicode="&#x1ebd;" 
d="M969 1253q-8 -43 -21.5 -78t-35 -59.5t-51 -37.5t-68.5 -13q-12 0 -22.5 1.5t-20.5 3.5q-9 2 -24 7t-36 13t-36 13.5t-26.5 9.5t-21 5.5t-20.5 1.5q-60 0 -70 -61h-98q8 42 21 77t34 59.5t50.5 38t70.5 13.5q42 0 111 -28q72 -27 96 -27q59 0 69 61h99zM1223 393h-795
v-176q0 -65 59 -65h545v-152h-725q-122 0 -178.5 65t-56.5 183v467q0 118 56.5 183t178.5 65h680q236 0 236 -248v-322zM866 545v200q0 66 -59 66h-320q-59 0 -59 -66v-200h438z" />
    <glyph glyph-name=".notdef.130" unicode="&#x1ebe;" horiz-adv-x="1253" 
d="M1176 0h-1084v1311h1084v-168h-699v-398h635v-167h-635v-410h699v-168zM881 1393h-172l-99 125l-98 -125h-172l174 223h193zM1188 1765l-223 -223h-152l141 223h234z" />
    <glyph glyph-name=".notdef.042" unicode="&#x1ebf;" 
d="M918 1053h-173l-98 125l-98 -125h-172l174 223h192zM1225 1425l-224 -223h-151l141 223h234zM1223 393h-795v-176q0 -65 59 -65h545v-152h-725q-122 0 -178.5 65t-56.5 183v467q0 118 56.5 183t178.5 65h680q236 0 236 -248v-322zM866 545v200q0 66 -59 66h-320
q-59 0 -59 -66v-200h438z" />
    <glyph glyph-name=".notdef.129" unicode="&#x1ec0;" horiz-adv-x="1253" 
d="M1176 0h-1084v1311h1084v-168h-699v-398h635v-167h-635v-410h699v-168zM881 1393h-172l-99 125l-98 -125h-172l174 223h193zM1026 1548h-149l-226 224h234z" />
    <glyph glyph-name=".notdef.043" unicode="&#x1ec1;" 
d="M918 1053h-173l-98 125l-98 -125h-172l174 223h192zM1063 1208h-150l-225 224h234zM1223 393h-795v-176q0 -65 59 -65h545v-152h-725q-122 0 -178.5 65t-56.5 183v467q0 118 56.5 183t178.5 65h680q236 0 236 -248v-322zM866 545v200q0 66 -59 66h-320q-59 0 -59 -66
v-200h438z" />
    <glyph glyph-name=".notdef.131" unicode="&#x1ec2;" horiz-adv-x="1253" 
d="M1176 0h-1084v1311h1084v-168h-699v-398h635v-167h-635v-410h699v-168zM881 1393h-172l-99 125l-98 -125h-172l174 223h193zM1124 1700v-8q0 -31 -19.5 -43.5t-70.5 -12.5h-53q-25 0 -25 -24v-62h-131v115q0 43 54 43h84q22 0 22 25v49q0 20 -29 20h-157v72h235
q52 0 71 -16.5t19 -59.5v-98z" />
    <glyph glyph-name=".notdef.041" unicode="&#x1ec3;" 
d="M918 1053h-173l-98 125l-98 -125h-172l174 223h192zM1161 1360v-8q0 -31 -19.5 -43.5t-70.5 -12.5h-53q-25 0 -25 -24v-62h-131v115q0 43 53 43h84q23 0 23 25v49q0 20 -29 20h-157v72h235q52 0 71 -16.5t19 -59.5v-98zM1223 393h-795v-176q0 -65 59 -65h545v-152h-725
q-122 0 -178.5 65t-56.5 183v467q0 118 56.5 183t178.5 65h680q236 0 236 -248v-322zM866 545v200q0 66 -59 66h-320q-59 0 -59 -66v-200h438z" />
    <glyph glyph-name=".notdef.132" unicode="&#x1ec4;" horiz-adv-x="1253" 
d="M1176 0h-1084v1311h1084v-168h-699v-398h635v-167h-635v-410h699v-168zM881 1393h-172l-99 125l-98 -125h-172l174 223h193zM903 1890q-8 -42 -21.5 -77t-34.5 -59.5t-50.5 -38t-69.5 -13.5q-24 0 -58 10.5t-60 20.5t-46.5 17t-42.5 7q-59 0 -69 -61h-99q18 86 57 137
t119 51q28 0 54.5 -8t53.5 -18t55 -19.5t44 -9.5q60 0 70 61h98z" />
    <glyph glyph-name=".notdef.040" unicode="&#x1ec5;" 
d="M918 1053h-173l-98 125l-98 -125h-172l174 223h192zM940 1550q-8 -42 -21.5 -77t-34.5 -59.5t-50.5 -38t-69.5 -13.5q-12 0 -22.5 1.5t-20.5 3.5q-9 2 -24 7t-36 13t-36 13.5t-26.5 9.5t-21 5.5t-20.5 1.5q-58 0 -70 -61h-98q18 86 57 137t119 51q28 0 54.5 -8t53.5 -18
t55 -19.5t44 -9.5q60 0 70 61h98zM1223 393h-795v-176q0 -65 59 -65h545v-152h-725q-122 0 -178.5 65t-56.5 183v467q0 118 56.5 183t178.5 65h680q236 0 236 -248v-322zM866 545v200q0 66 -59 66h-320q-59 0 -59 -66v-200h438z" />
    <glyph glyph-name=".notdef.105" unicode="&#x1ec6;" horiz-adv-x="1253" 
d="M1176 0h-1084v1311h1084v-168h-699v-398h635v-167h-635v-410h699v-168zM881 1393h-172l-99 125l-98 -125h-172l174 223h193zM754 -274h-267v172h267v-172z" />
    <glyph glyph-name=".notdef.039" unicode="&#x1ec7;" 
d="M918 1053h-173l-98 125l-98 -125h-172l174 223h192zM780 -276h-266v172h266v-172zM1223 393h-795v-176q0 -65 59 -65h545v-152h-725q-122 0 -178.5 65t-56.5 183v467q0 118 56.5 183t178.5 65h680q236 0 236 -248v-322zM866 545v200q0 66 -59 66h-320q-59 0 -59 -66v-200
h438z" />
    <glyph glyph-name=".notdef.102" unicode="&#x1ec8;" horiz-adv-x="569" 
d="M477 0h-385v1311h385v-1311zM489 1575v-8q0 -31 -19.5 -43.5t-70.5 -12.5h-53q-24 0 -24 -24v-62h-132v115q0 43 54 43h84q22 0 22 25v49q0 12 -5.5 16t-22.5 4h-158v72h235q52 0 71 -16.5t19 -59.5v-98z" />
    <glyph glyph-name=".notdef.036" unicode="&#x1ec9;" horiz-adv-x="541" 
d="M449 0h-357v963h357v-963zM506 1231v-8q0 -31 -19.5 -43.5t-70.5 -12.5h-54q-24 0 -24 -24v-62h-131v115q0 43 53 43h84q23 0 23 25v49q0 20 -29 20h-158v72h236q51 0 70.5 -17t19.5 -59v-98z" />
    <glyph glyph-name=".notdef.100" unicode="&#x1eca;" horiz-adv-x="569" 
d="M477 0h-385v1311h385v-1311zM424 -291h-266v172h266v-172z" />
    <glyph glyph-name=".notdef.034" unicode="&#x1ecb;" horiz-adv-x="541" 
d="M449 0h-357v963h357v-963zM401 1067h-266v172h266v-172zM403 -291h-266v172h266v-172z" />
    <glyph glyph-name=".notdef.095" unicode="&#x1ecc;" horiz-adv-x="1483" 
d="M1391 258q0 -124 -64 -191t-194 -67h-783q-129 0 -193.5 67.5t-64.5 190.5v795q0 121 64.5 189.5t193.5 68.5h783q130 0 194 -67t64 -191v-795zM1006 1073q0 70 -70 70h-389q-70 0 -70 -70v-835q0 -38 17.5 -54t52.5 -16h389q70 0 70 70v835zM883 -270h-267v172h267v-172
z" />
    <glyph glyph-name=".notdef.029" unicode="&#x1ecd;" 
d="M1223 248q0 -248 -236 -248h-680q-122 0 -178.5 65t-56.5 183v467q0 118 56.5 183t178.5 65h680q236 0 236 -248v-467zM866 745q0 66 -59 66h-320q-59 0 -59 -66v-528q0 -65 59 -65h320q59 0 59 65v528zM778 -281h-266v172h266v-172z" />
    <glyph glyph-name=".notdef.097" unicode="&#x1ece;" horiz-adv-x="1483" 
d="M1391 258q0 -124 -64 -191t-194 -67h-783q-129 0 -193.5 67.5t-64.5 190.5v795q0 121 64.5 189.5t193.5 68.5h783q130 0 194 -67t64 -191v-795zM1006 1073q0 70 -70 70h-389q-70 0 -70 -70v-835q0 -38 17.5 -54t52.5 -16h389q70 0 70 70v835zM997 1565v-9
q0 -31 -19.5 -43t-70.5 -12h-53q-25 0 -25 -24v-62h-131v115q0 43 54 43h84q22 0 22 24v50q0 20 -29 20h-157v72h235q52 0 71 -16.5t19 -59.5v-98z" />
    <glyph glyph-name=".notdef.031" unicode="&#x1ecf;" 
d="M1223 248q0 -248 -236 -248h-680q-122 0 -178.5 65t-56.5 183v467q0 118 56.5 183t178.5 65h680q236 0 236 -248v-467zM866 745q0 66 -59 66h-320q-59 0 -59 -66v-528q0 -65 59 -65h320q59 0 59 65v528zM872 1206v-8q0 -31 -19.5 -43t-70.5 -12h-53q-24 0 -24 -25v-61
h-132v114q0 43 54 43h84q22 0 22 25v49q0 21 -28 21h-158v71h235q54 0 72 -16.5t18 -58.5v-99z" />
    <glyph glyph-name=".notdef.092" unicode="&#x1ed0;" horiz-adv-x="1483" 
d="M1391 258q0 -124 -64 -191t-194 -67h-783q-129 0 -193.5 67.5t-64.5 190.5v795q0 121 64.5 189.5t193.5 68.5h783q130 0 194 -67t64 -191v-795zM1006 1073q0 70 -70 70h-389q-70 0 -70 -70v-835q0 -38 17.5 -54t52.5 -16h389q70 0 70 70v835zM1016 1401h-172l-99 125
l-98 -125h-172l174 223h193zM1323 1774l-223 -224h-152l142 224h233z" />
    <glyph glyph-name=".notdef.026" unicode="&#x1ed1;" 
d="M1223 248q0 -248 -236 -248h-680q-122 0 -178.5 65t-56.5 183v467q0 118 56.5 183t178.5 65h680q236 0 236 -248v-467zM866 745q0 66 -59 66h-320q-59 0 -59 -66v-528q0 -65 59 -65h320q59 0 59 65v528zM918 1053h-173l-98 125l-98 -125h-172l174 223h192zM1225 1425
l-224 -223h-151l141 223h234z" />
    <glyph glyph-name=".notdef.093" unicode="&#x1ed2;" horiz-adv-x="1483" 
d="M1391 258q0 -124 -64 -191t-194 -67h-783q-129 0 -193.5 67.5t-64.5 190.5v795q0 121 64.5 189.5t193.5 68.5h783q130 0 194 -67t64 -191v-795zM1006 1073q0 70 -70 70h-389q-70 0 -70 -70v-835q0 -38 17.5 -54t52.5 -16h389q70 0 70 70v835zM1016 1401h-172l-99 125
l-98 -125h-172l174 223h193zM1161 1556h-149l-226 224h234z" />
    <glyph glyph-name=".notdef.027" unicode="&#x1ed3;" 
d="M1223 248q0 -248 -236 -248h-680q-122 0 -178.5 65t-56.5 183v467q0 118 56.5 183t178.5 65h680q236 0 236 -248v-467zM866 745q0 66 -59 66h-320q-59 0 -59 -66v-528q0 -65 59 -65h320q59 0 59 65v528zM918 1053h-173l-98 125l-98 -125h-172l174 223h192zM1063 1208
h-150l-225 224h234z" />
    <glyph glyph-name=".notdef.091" unicode="&#x1ed4;" horiz-adv-x="1483" 
d="M1391 258q0 -124 -64 -191t-194 -67h-783q-129 0 -193.5 67.5t-64.5 190.5v795q0 121 64.5 189.5t193.5 68.5h783q130 0 194 -67t64 -191v-795zM1006 1073q0 70 -70 70h-389q-70 0 -70 -70v-835q0 -38 17.5 -54t52.5 -16h389q70 0 70 70v835zM1016 1401h-172l-99 125
l-98 -125h-172l174 223h193zM1260 1708v-8q0 -31 -20 -43t-71 -12h-53q-24 0 -24 -25v-61h-131v114q0 43 53 43h84q22 0 22 25v49q0 12 -5.5 16t-22.5 4h-158v72h235q54 0 72.5 -17t18.5 -59v-98z" />
    <glyph glyph-name=".notdef.025" unicode="&#x1ed5;" 
d="M1223 248q0 -248 -236 -248h-680q-122 0 -178.5 65t-56.5 183v467q0 118 56.5 183t178.5 65h680q236 0 236 -248v-467zM866 745q0 66 -59 66h-320q-59 0 -59 -66v-528q0 -65 59 -65h320q59 0 59 65v528zM918 1053h-173l-98 125l-98 -125h-172l174 223h192zM1161 1360v-8
q0 -31 -19.5 -43.5t-70.5 -12.5h-53q-25 0 -25 -24v-62h-131v115q0 43 53 43h84q23 0 23 25v49q0 20 -29 20h-157v72h235q52 0 71 -16.5t19 -59.5v-98z" />
    <glyph glyph-name=".notdef.090" unicode="&#x1ed6;" horiz-adv-x="1483" 
d="M1391 258q0 -124 -64 -191t-194 -67h-783q-129 0 -193.5 67.5t-64.5 190.5v795q0 121 64.5 189.5t193.5 68.5h783q130 0 194 -67t64 -191v-795zM1006 1073q0 70 -70 70h-389q-70 0 -70 -70v-835q0 -38 17.5 -54t52.5 -16h389q70 0 70 70v835zM1016 1401h-172l-99 125
l-98 -125h-172l174 223h193zM1038 1898q-8 -42 -21.5 -77t-34.5 -59.5t-50.5 -38t-69.5 -13.5q-24 0 -58 10.5t-60 20.5t-46.5 17t-42.5 7q-59 0 -69 -61h-99q18 86 57 137t120 51q42 0 111 -28q72 -27 95 -27q60 0 70 61h98z" />
    <glyph glyph-name=".notdef.024" unicode="&#x1ed7;" 
d="M1223 248q0 -248 -236 -248h-680q-122 0 -178.5 65t-56.5 183v467q0 118 56.5 183t178.5 65h680q236 0 236 -248v-467zM866 745q0 66 -59 66h-320q-59 0 -59 -66v-528q0 -65 59 -65h320q59 0 59 65v528zM918 1053h-173l-98 125l-98 -125h-172l174 223h192zM940 1550
q-8 -42 -21.5 -77t-34.5 -59.5t-50.5 -38t-69.5 -13.5q-12 0 -22.5 1.5t-20.5 3.5q-9 2 -24 7t-36 13t-36 13.5t-26.5 9.5t-21 5.5t-20.5 1.5q-58 0 -70 -61h-98q18 86 57 137t119 51q28 0 54.5 -8t53.5 -18t55 -19.5t44 -9.5q60 0 70 61h98z" />
    <glyph glyph-name=".notdef.089" unicode="&#x1ed8;" horiz-adv-x="1483" 
d="M1391 258q0 -124 -64 -191t-194 -67h-783q-129 0 -193.5 67.5t-64.5 190.5v795q0 121 64.5 189.5t193.5 68.5h783q130 0 194 -67t64 -191v-795zM1006 1073q0 70 -70 70h-389q-70 0 -70 -70v-835q0 -38 17.5 -54t52.5 -16h389q70 0 70 70v835zM1016 1401h-172l-99 125
l-98 -125h-172l174 223h193zM868 -266h-266v172h266v-172z" />
    <glyph glyph-name=".notdef.023" unicode="&#x1ed9;" 
d="M1223 248q0 -248 -236 -248h-680q-122 0 -178.5 65t-56.5 183v467q0 118 56.5 183t178.5 65h680q236 0 236 -248v-467zM866 745q0 66 -59 66h-320q-59 0 -59 -66v-528q0 -65 59 -65h320q59 0 59 65v528zM918 1053h-173l-98 125l-98 -125h-172l174 223h192zM780 -276h-266
v172h266v-172z" />
    <glyph glyph-name=".notdef.075" unicode="&#x1eda;" horiz-adv-x="1595" 
d="M1596 1208q0 -138 -40 -175q-36 -35 -165 -37v-738q0 -124 -64 -191t-194 -67h-783q-129 0 -193.5 67.5t-64.5 190.5v795q0 121 64.5 189.5t193.5 68.5h783q130 0 194 -67q56 -59 63 -163q24 3 33 11q13 12 13 65v154h160v-103zM1006 1073q0 70 -70 70h-389
q-70 0 -70 -70v-835q0 -38 17.5 -54t52.5 -16h389q70 0 70 70v835zM969 1630l-224 -223h-151l141 223h234z" />
    <glyph glyph-name=".notdef.009" unicode="&#x1edb;" horiz-adv-x="1430" 
d="M1431 860q0 -138 -40 -175q-36 -35 -168 -37v-400q0 -248 -236 -248h-680q-122 0 -178.5 65t-56.5 183v467q0 118 56.5 183t178.5 65h680q227 0 235 -230q26 3 36 11q13 12 13 65v154h160v-103zM866 745q0 66 -59 66h-320q-59 0 -59 -66v-528q0 -65 59 -65h320
q59 0 59 65v528zM896 1282l-223 -223h-152l142 223h233z" />
    <glyph glyph-name=".notdef.076" unicode="&#x1edc;" horiz-adv-x="1595" 
d="M1596 1208q0 -138 -40 -175q-36 -35 -165 -37v-738q0 -124 -64 -191t-194 -67h-783q-129 0 -193.5 67.5t-64.5 190.5v795q0 121 64.5 189.5t193.5 68.5h783q130 0 194 -67q56 -59 63 -163q24 3 33 11q13 12 13 65v154h160v-103zM1006 1073q0 70 -70 70h-389
q-70 0 -70 -70v-835q0 -38 17.5 -54t52.5 -16h389q70 0 70 70v835zM904 1403h-149l-226 223h234z" />
    <glyph glyph-name=".notdef.010" unicode="&#x1edd;" horiz-adv-x="1430" 
d="M1431 860q0 -138 -40 -175q-36 -35 -168 -37v-400q0 -248 -236 -248h-680q-122 0 -178.5 65t-56.5 183v467q0 118 56.5 183t178.5 65h680q227 0 235 -230q26 3 36 11q13 12 13 65v154h160v-103zM866 745q0 66 -59 66h-320q-59 0 -59 -66v-528q0 -65 59 -65h320
q59 0 59 65v528zM826 1044h-150l-225 224h233z" />
    <glyph glyph-name=".notdef.074" unicode="&#x1ede;" horiz-adv-x="1595" 
d="M1596 1208q0 -138 -40 -175q-36 -35 -165 -37v-738q0 -124 -64 -191t-194 -67h-783q-129 0 -193.5 67.5t-64.5 190.5v795q0 121 64.5 189.5t193.5 68.5h783q130 0 194 -67q56 -59 63 -163q24 3 33 11q13 12 13 65v154h160v-103zM1006 1073q0 70 -70 70h-389
q-70 0 -70 -70v-835q0 -38 17.5 -54t52.5 -16h389q70 0 70 70v835zM997 1663v-107q0 -31 -19.5 -43t-70.5 -12h-53q-25 0 -25 -24v-62h-131v115q0 43 54 43h84q22 0 22 24v50q0 20 -29 20h-157v72h235q52 0 71 -16.5t19 -59.5z" />
    <glyph glyph-name=".notdef.008" unicode="&#x1edf;" horiz-adv-x="1430" 
d="M1431 860q0 -138 -40 -175q-36 -35 -168 -37v-400q0 -248 -236 -248h-680q-122 0 -178.5 65t-56.5 183v467q0 118 56.5 183t178.5 65h680q227 0 235 -230q26 3 36 11q13 12 13 65v154h160v-103zM866 745q0 66 -59 66h-320q-59 0 -59 -66v-528q0 -65 59 -65h320
q59 0 59 65v528zM872 1305v-107q0 -31 -19.5 -43t-70.5 -12h-53q-24 0 -24 -25v-61h-132v114q0 43 54 43h84q22 0 22 25v49q0 21 -28 21h-158v71h235q54 0 72 -16.5t18 -58.5z" />
    <glyph glyph-name=".notdef.073" unicode="&#x1ee0;" horiz-adv-x="1595" 
d="M1596 1208q0 -138 -40 -175q-36 -35 -165 -37v-738q0 -124 -64 -191t-194 -67h-783q-129 0 -193.5 67.5t-64.5 190.5v795q0 121 64.5 189.5t193.5 68.5h783q130 0 194 -67q56 -59 63 -163q24 3 33 11q13 12 13 65v154h160v-103zM1006 1073q0 70 -70 70h-389
q-70 0 -70 -70v-835q0 -38 17.5 -54t52.5 -16h389q70 0 70 70v835zM1012 1612q-16 -87 -56.5 -138t-119.5 -51q-24 0 -49.5 7t-60.5 21t-55 21t-42 7q-59 0 -70 -62h-98q7 43 20.5 78t34.5 59.5t50.5 38t70.5 13.5t110 -28t97 -28q58 0 69 62h99z" />
    <glyph glyph-name=".notdef.007" unicode="&#x1ee1;" horiz-adv-x="1430" 
d="M1431 860q0 -138 -40 -175q-36 -35 -168 -37v-400q0 -248 -236 -248h-680q-122 0 -178.5 65t-56.5 183v467q0 118 56.5 183t178.5 65h680q227 0 235 -230q26 3 36 11q13 12 13 65v154h160v-103zM866 745q0 66 -59 66h-320q-59 0 -59 -66v-528q0 -65 59 -65h320
q59 0 59 65v528zM948 1253q-8 -42 -21.5 -77t-34.5 -59.5t-50.5 -38t-69.5 -13.5q-24 0 -58 10.5t-60 20.5t-46.5 17t-42.5 7q-59 0 -69 -61h-99q18 86 57 137t119 51q28 0 54.5 -8t53.5 -18t55 -19.5t44 -9.5q60 0 70 61h98z" />
    <glyph glyph-name=".notdef.072" unicode="&#x1ee2;" horiz-adv-x="1595" 
d="M1596 1208q0 -138 -40 -175q-36 -35 -165 -37v-738q0 -124 -64 -191t-194 -67h-783q-129 0 -193.5 67.5t-64.5 190.5v795q0 121 64.5 189.5t193.5 68.5h783q130 0 194 -67q56 -59 63 -163q24 3 33 11q13 12 13 65v154h160v-103zM1006 1073q0 70 -70 70h-389
q-70 0 -70 -70v-835q0 -38 17.5 -54t52.5 -16h389q70 0 70 70v835zM883 -270h-267v172h267v-172z" />
    <glyph glyph-name=".notdef.006" unicode="&#x1ee3;" horiz-adv-x="1430" 
d="M1431 860q0 -138 -40 -175q-36 -35 -168 -37v-400q0 -248 -236 -248h-680q-122 0 -178.5 65t-56.5 183v467q0 118 56.5 183t178.5 65h680q227 0 235 -230q26 3 36 11q13 12 13 65v154h160v-103zM866 745q0 66 -59 66h-320q-59 0 -59 -66v-528q0 -65 59 -65h320
q59 0 59 65v528zM778 -281h-266v172h266v-172z" />
    <glyph glyph-name=".notdef.084" unicode="&#x1ee4;" horiz-adv-x="1458" 
d="M1366 223q0 -45 -18 -85.5t-49.5 -71t-73 -48.5t-88.5 -18h-815q-46 -2 -88 16.5t-73.5 50t-50.5 72t-18 84.5v1088h385v-1088q0 -55 62 -55h589q62 0 62 55v1088h176v-1088zM937 -281h-267v172h267v-172z" />
    <glyph glyph-name=".notdef.018" unicode="&#x1ee5;" horiz-adv-x="1282" 
d="M1210 0h-344v98h-4q-14 -51 -39 -74.5t-73 -23.5h-447q-231 0 -231 250v713h356v-746q0 -65 64 -65h299q34 0 48.5 14.5t14.5 50.5v746h356v-963zM782 -281h-266v172h266v-172z" />
    <glyph glyph-name=".notdef.086" unicode="&#x1ee6;" horiz-adv-x="1458" 
d="M1366 223q0 -45 -18 -85.5t-49.5 -71t-73 -48.5t-88.5 -18h-815q-46 -2 -88 16.5t-73.5 50t-50.5 72t-18 84.5v1088h385v-1088q0 -55 62 -55h589q62 0 62 55v1088h176v-1088zM1037 1565v-9q0 -31 -19.5 -43t-70.5 -12h-53q-25 0 -25 -24v-62h-131v115q0 43 53 43h84
q23 0 23 24v50q0 20 -29 20h-157v72h235q52 0 71 -16.5t19 -59.5v-98z" />
    <glyph glyph-name=".notdef.020" unicode="&#x1ee7;" horiz-adv-x="1282" 
d="M1210 0h-344v98h-4q-14 -51 -39 -74.5t-73 -23.5h-447q-231 0 -231 250v713h356v-746q0 -65 64 -65h299q34 0 48.5 14.5t14.5 50.5v746h356v-963zM866 1217v-9q0 -31 -19.5 -43t-70.5 -12h-53q-25 0 -25 -25v-61h-131v115q0 43 54 43h84q22 0 22 24v49q0 21 -29 21h-157
v72h235q52 0 71 -16.5t19 -59.5v-98z" />
    <glyph glyph-name=".notdef.081" unicode="&#x1ee8;" horiz-adv-x="1595" 
d="M1596 1208q0 -138 -40 -175q-38 -37 -183 -37h-7v-773q0 -45 -18 -85.5t-49.5 -71t-73 -48.5t-88.5 -18h-815q-46 -2 -88 16.5t-73.5 50t-50.5 72t-18 84.5v1088h385v-1088q0 -55 62 -55h589q62 0 62 55v1088h176v-231q44 1 57 12q13 12 13 65v154h160v-103zM1073 1651
l-224 -224h-151l141 224h234z" />
    <glyph glyph-name=".notdef.015" unicode="&#x1ee9;" horiz-adv-x="1430" 
d="M1431 860q0 -138 -40 -175q-38 -37 -181 -37v-648h-344v98h-4q-14 -51 -39 -74.5t-73 -23.5h-447q-231 0 -231 250v713h356v-746q0 -65 64 -65h299q34 0 48.5 14.5t14.5 50.5v746h356v-231q36 2 48 12q13 12 13 65v154h160v-103zM916 1282l-223 -223h-152l142 223h233z
" />
    <glyph glyph-name=".notdef.082" unicode="&#x1eea;" horiz-adv-x="1595" 
d="M1596 1208q0 -138 -40 -175q-38 -37 -183 -37h-7v-773q0 -45 -18 -85.5t-49.5 -71t-73 -48.5t-88.5 -18h-815q-46 -2 -88 16.5t-73.5 50t-50.5 72t-18 84.5v1088h385v-1088q0 -55 62 -55h589q62 0 62 55v1088h176v-231q44 1 57 12q13 12 13 65v154h160v-103zM982 1403
h-150l-225 223h234z" />
    <glyph glyph-name=".notdef.016" unicode="&#x1eeb;" horiz-adv-x="1430" 
d="M1431 860q0 -138 -40 -175q-38 -37 -181 -37v-648h-344v98h-4q-14 -51 -39 -74.5t-73 -23.5h-447q-231 0 -231 250v713h356v-746q0 -65 64 -65h299q34 0 48.5 14.5t14.5 50.5v746h356v-231q36 2 48 12q13 12 13 65v154h160v-103zM809 1065h-150l-225 223h234z" />
    <glyph glyph-name=".notdef.080" unicode="&#x1eec;" horiz-adv-x="1595" 
d="M1596 1208q0 -138 -40 -175q-38 -37 -183 -37h-7v-773q0 -45 -18 -85.5t-49.5 -71t-73 -48.5t-88.5 -18h-815q-46 -2 -88 16.5t-73.5 50t-50.5 72t-18 84.5v1088h385v-1088q0 -55 62 -55h589q62 0 62 55v1088h176v-231q44 1 57 12q13 12 13 65v154h160v-103zM1037 1663
v-107q0 -31 -19.5 -43t-70.5 -12h-53q-25 0 -25 -24v-62h-131v115q0 43 53 43h84q23 0 23 24v50q0 20 -29 20h-157v72h235q52 0 71 -16.5t19 -59.5z" />
    <glyph glyph-name=".notdef.014" unicode="&#x1eed;" horiz-adv-x="1430" 
d="M1431 860q0 -138 -40 -175q-38 -37 -181 -37v-648h-344v98h-4q-14 -51 -39 -74.5t-73 -23.5h-447q-231 0 -231 250v713h356v-746q0 -65 64 -65h299q34 0 48.5 14.5t14.5 50.5v746h356v-231q36 2 48 12q13 12 13 65v154h160v-103zM866 1315v-107q0 -31 -19.5 -43
t-70.5 -12h-53q-25 0 -25 -25v-61h-131v115q0 43 54 43h84q22 0 22 24v49q0 21 -29 21h-157v72h235q52 0 71 -16.5t19 -59.5z" />
    <glyph glyph-name=".notdef.079" unicode="&#x1eee;" horiz-adv-x="1595" 
d="M1596 1208q0 -138 -40 -175q-38 -37 -183 -37h-7v-773q0 -45 -18 -85.5t-49.5 -71t-73 -48.5t-88.5 -18h-815q-46 -2 -88 16.5t-73.5 50t-50.5 72t-18 84.5v1088h385v-1088q0 -55 62 -55h589q62 0 62 55v1088h176v-231q44 1 57 12q13 12 13 65v154h160v-103zM1093 1591
q-8 -42 -21.5 -77t-34.5 -59.5t-50.5 -38t-69.5 -13.5q-24 0 -58 10.5t-60 20.5t-46.5 17t-42.5 7q-59 0 -69 -61h-99q18 86 57 137t120 51q42 0 111 -28q72 -27 95 -27q60 0 70 61h98z" />
    <glyph glyph-name=".notdef.013" unicode="&#x1eef;" horiz-adv-x="1430" 
d="M1431 860q0 -138 -40 -175q-38 -37 -181 -37v-648h-344v98h-4q-14 -51 -39 -74.5t-73 -23.5h-447q-231 0 -231 250v713h356v-746q0 -65 64 -65h299q34 0 48.5 14.5t14.5 50.5v746h356v-231q36 2 48 12q13 12 13 65v154h160v-103zM922 1253q-8 -43 -21.5 -78t-34.5 -59.5
t-51 -37.5t-70 -13q-11 0 -26 3t-31 7.5t-32 10t-29 10.5q-26 10 -46 17t-42 7q-60 0 -70 -61h-98q8 42 21 77t34 59.5t50.5 38t70.5 13.5q42 0 111 -28q72 -27 96 -27q59 0 69 61h99z" />
    <glyph glyph-name=".notdef.078" unicode="&#x1ef0;" horiz-adv-x="1595" 
d="M1596 1208q0 -138 -40 -175q-38 -37 -183 -37h-7v-773q0 -45 -18 -85.5t-49.5 -71t-73 -48.5t-88.5 -18h-815q-46 -2 -88 16.5t-73.5 50t-50.5 72t-18 84.5v1088h385v-1088q0 -55 62 -55h589q62 0 62 55v1088h176v-231q44 1 57 12q13 12 13 65v154h160v-103zM963 -281
h-267v172h267v-172z" />
    <glyph glyph-name=".notdef.012" unicode="&#x1ef1;" horiz-adv-x="1430" 
d="M1431 860q0 -138 -40 -175q-38 -37 -181 -37v-648h-344v98h-4q-14 -51 -39 -74.5t-73 -23.5h-447q-231 0 -231 250v713h356v-746q0 -65 64 -65h299q34 0 48.5 14.5t14.5 50.5v746h356v-231q36 2 48 12q13 12 13 65v154h160v-103zM782 -281h-266v172h266v-172z" />
    <glyph glyph-name=".notdef.071" unicode="&#x1ef2;" horiz-adv-x="1513" 
d="M1444 1311l-486 -756v-555h-401v563l-489 748h448l365 -566l358 566h205zM1006 1393h-150l-225 223h233z" />
    <glyph glyph-name=".notdef.005" unicode="&#x1ef3;" horiz-adv-x="1282" 
d="M823 1055h-150l-225 223h234zM1210 -117q0 -106 -58 -176q-59 -72 -177 -72h-669v152h468q43 0 61.5 21.5t18.5 64.5v229h-6q-14 -54 -39.5 -78t-73.5 -24h-432q-231 0 -231 250v713h356v-746q0 -65 64 -65h299q34 0 48.5 14.5t14.5 50.5v746h356v-1080z" />
    <glyph glyph-name=".notdef.067" unicode="&#x1ef4;" horiz-adv-x="1513" 
d="M1444 1311l-486 -756v-555h-401v563l-489 748h448l365 -566l358 566h205zM897 -281h-266v172h266v-172z" />
    <glyph glyph-name=".notdef.001" unicode="&#x1ef5;" horiz-adv-x="1282" 
d="M1533 -191h-267v172h267v-172zM1210 -117q0 -106 -58 -176q-59 -72 -177 -72h-669v152h468q43 0 61.5 21.5t18.5 64.5v229h-6q-14 -54 -39.5 -78t-73.5 -24h-432q-231 0 -231 250v713h356v-746q0 -65 64 -65h299q34 0 48.5 14.5t14.5 50.5v746h356v-1080z" />
    <glyph glyph-name=".notdef.069" unicode="&#x1ef6;" horiz-adv-x="1513" 
d="M1444 1311l-486 -756v-555h-401v563l-489 748h448l365 -566l358 566h205zM1057 1565v-9q0 -31 -19.5 -43t-70.5 -12h-53q-25 0 -25 -24v-62h-131v115q0 43 54 43h84q22 0 22 24v50q0 20 -29 20h-157v72h235q52 0 71 -16.5t19 -59.5v-98z" />
    <glyph glyph-name=".notdef.003" unicode="&#x1ef7;" horiz-adv-x="1282" 
d="M897 1227v-8q0 -31 -19.5 -43.5t-70.5 -12.5h-53q-25 0 -25 -24v-62h-131v115q0 43 53 43h84q23 0 23 25v49q0 20 -29 20h-158v72h236q52 0 71 -16.5t19 -59.5v-98zM1210 -117q0 -106 -58 -176q-59 -72 -177 -72h-669v152h468q43 0 61.5 21.5t18.5 64.5v229h-6
q-14 -54 -39.5 -78t-73.5 -24h-432q-231 0 -231 250v713h356v-746q0 -65 64 -65h299q34 0 48.5 14.5t14.5 50.5v746h356v-1080z" />
    <glyph glyph-name=".notdef.068" unicode="&#x1ef8;" horiz-adv-x="1513" 
d="M1444 1311l-486 -756v-555h-401v563l-489 748h448l365 -566l358 566h205zM1139 1591q-8 -43 -21.5 -78t-35 -59.5t-51 -37.5t-68.5 -13q-12 0 -22.5 1.5t-20.5 3.5q-9 2 -24 7t-36 13t-36 13.5t-26.5 9.5t-21 5.5t-20.5 1.5q-60 0 -70 -61h-98q8 42 21 77t34 59.5
t50.5 38t70.5 13.5q42 0 111 -28q72 -27 96 -27q59 0 69 61h99z" />
    <glyph glyph-name=".notdef.002" unicode="&#x1ef9;" horiz-adv-x="1282" 
d="M932 1253q-8 -43 -21.5 -78t-35 -59.5t-51 -37.5t-68.5 -13q-12 0 -22.5 1.5t-20.5 3.5q-9 2 -24 7t-36 13t-36 13.5t-26.5 9.5t-21 5.5t-20.5 1.5q-60 0 -70 -61h-98q8 42 21 77t34 59.5t50.5 38t70.5 13.5q28 0 54.5 -8t53.5 -18t55 -19.5t44 -9.5q58 0 70 61h98z
M1210 -117q0 -106 -58 -176q-59 -72 -177 -72h-669v152h468q43 0 61.5 21.5t18.5 64.5v229h-6q-14 -54 -39.5 -78t-73.5 -24h-432q-231 0 -231 250v713h356v-746q0 -65 64 -65h299q34 0 48.5 14.5t14.5 50.5v746h356v-1080z" />
    <glyph glyph-name="quoteleft" unicode="&#x2018;" horiz-adv-x="569" 
d="M477 877h-385v258l170 192h152l-88 -180h151v-270z" />
    <glyph glyph-name="quoteright" unicode="&#x2019;" horiz-adv-x="569" 
d="M477 1053l-170 -193h-151l88 180h-152v271h385v-258z" />
    <glyph glyph-name="quotedblleft" unicode="&#x201c;" horiz-adv-x="1065" 
d="M973 877h-385v258l170 192h151l-88 -180h152v-270zM477 877h-385v258l170 192h152l-88 -180h151v-270z" />
    <glyph glyph-name="quotedblright" unicode="&#x201d;" horiz-adv-x="1065" 
d="M973 1053l-170 -193h-152l88 180h-151v271h385v-258zM477 1053l-170 -193h-151l88 180h-152v271h385v-258z" />
    <glyph glyph-name="ellipsis" unicode="&#x2026;" horiz-adv-x="1892" 
d="M1800 0h-385v270h385v-270zM1139 0h-385v270h385v-270zM477 0h-385v270h385v-270z" />
    <glyph glyph-name="trademark" unicode="&#x2122;" horiz-adv-x="1374" 
d="M1282 655h-111v430l-159 -428h-115l-160 428v-430h-108v656h141l184 -488l183 488h145v-656zM580 1206h-189v-551h-110v551h-189v105h488v-105z" />
    <glyph glyph-name="ugrave" horiz-adv-x="582" 
 />
    <glyph glyph-name="uacute" horiz-adv-x="580" 
 />
    <glyph glyph-name="yacute" horiz-adv-x="629" 
 />
  </font>
</defs>
</svg>
