<svg xmlns="http://www.w3.org/2000/svg">
<defs>
<font id="SVN-Helves" horiz-adv-x="1200" >
  <font-face 
    font-family="SVN-Helves"
    font-weight="400"
    font-stretch="normal"
    units-per-em="2048"
    panose-1="2 4 6 3 5 5 6 2 2 4"
    ascent="1638"
    descent="-410"
    x-height="1073"
    cap-height="1470"
    bbox="-850 -451 4553 2305"
    underline-thickness="109"
    underline-position="-250"
    unicode-range="U+0020-2122"
  />
<missing-glyph horiz-adv-x="4653" 
d="M788 1681v510h343v-61h-274v-157h236v-61h-236v-231h-69zM1253 1865q0 -72 30 -106.5t76 -34.5t77 34.5t31 106.5q0 69 -31 104.5t-77 35.5t-76 -35.5t-30 -104.5zM1189 1865q0 104 56 151q45 42 114 42q37 0 68.5 -13t54.5 -37t36 -59t13 -79q0 -52 -12.5 -89t-35.5 -61
t-54.5 -35t-69.5 -11q-78 0 -124 48.5t-46 142.5zM1608 1681v369h58v-53q41 61 115 61q56 0 85 -27t37 -63q2 -10 3.5 -24.5t1.5 -36.5v-226h-64v223q0 54 -19.5 77.5t-57.5 23.5q-20 0 -37.5 -6t-30 -20t-20 -37.5t-7.5 -58.5v-202h-64zM2149 1679q-14 -2 -25.5 -3.5
t-21.5 -1.5q-27 5 -44 8t-27 13t-13.5 31t-3.5 62v214h-45v48h45v90l64 38v-128h63v-48h-63v-217q0 -18 1.5 -28t5.5 -15t10.5 -6t16.5 -1h29zM2444 1851q4 -56 40 -86t106 -30q62 0 94.5 23t32.5 61q0 24 -12 41t-44 31q-10 4 -33 10t-57 14t-59 16t-39 16q-40 18 -57 45.5
t-17 65.5q0 29 12.5 54.5t36 45t56.5 30.5t75 11q45 0 80.5 -11.5t60.5 -31.5t39 -47.5t16 -60.5l-69 -3q-11 93 -124 93q-62 0 -88 -22.5t-26 -54.5q0 -27 18 -45q11 -11 35 -19t66 -18q82 -16 112 -32q46 -18 66.5 -50t20.5 -72q0 -34 -14 -61.5t-39 -47.5t-60 -31
t-78 -11q-100 0 -157.5 45t-57.5 130zM3022 1681l-193 510h74l130 -372q8 -22 14 -42l12 -40q6 22 14 42l16 40l140 372h69l-202 -510h-74zM3356 1681v510h72l257 -398v398h69v-510h-74l-255 396v-396h-69zM128 1098q0 -70 29 -104t71 -34t71.5 33t29.5 99q0 78 -30.5 113.5
t-72.5 35.5t-70 -34.5t-28 -108.5zM327 917v45q-37 -53 -104 -53q-35 0 -64 14t-50 39t-33 60t-12 78q0 42 10.5 77.5t30.5 61.5t48.5 40.5t64.5 14.5q34 0 59.5 -14.5t43.5 -38.5v186h64v-510h-58zM725 917v53q-23 -29 -52 -45t-65 -16q-56 0 -85 25.5t-37 65.5

<glyph glyph-name=".notdef" horiz-adv-x="4653" 
d="M788 1681v510h343v-61h-274v-157h236v-61h-236v-231h-69zM1253 1865q0 -72 30 -106.5t76 -34.5t77 34.5t31 106.5q0 69 -31 104.5t-77 35.5t-76 -35.5t-30 -104.5zM1189 1865q0 104 56 151q45 42 114 42q37 0 68.5 -13t54.5 -37t36 -59t13 -79q0 -52 -12.5 -89t-35.5 -61
t-54.5 -35t-69.5 -11q-78 0 -124 48.5t-46 142.5zM1608 1681v369h58v-53q41 61 115 61q56 0 85 -27t37 -63q2 -10 3.5 -24.5t1.5 -36.5v-226h-64v223q0 54 -19.5 77.5t-57.5 23.5q-20 0 -37.5 -6t-30 -20t-20 -37.5t-7.5 -58.5v-202h-64zM2149 1679q-14 -2 -25.5 -3.5
t-21.5 -1.5q-27 5 -44 8t-27 13t-13.5 31t-3.5 62v214h-45v48h45v90l64 38v-128h63v-48h-63v-217q0 -18 1.5 -28t5.5 -15t10.5 -6t16.5 -1h29zM2444 1851q4 -56 40 -86t106 -30q62 0 94.5 23t32.5 61q0 24 -12 41t-44 31q-10 4 -33 10t-57 14t-59 16t-39 16q-40 18 -57 45.5
t-17 65.5q0 29 12.5 54.5t36 45t56.5 30.5t75 11q45 0 80.5 -11.5t60.5 -31.5t39 -47.5t16 -60.5l-69 -3q-11 93 -124 93q-62 0 -88 -22.5t-26 -54.5q0 -27 18 -45q11 -11 35 -19t66 -18q82 -16 112 -32q46 -18 66.5 -50t20.5 -72q0 -34 -14 -61.5t-39 -47.5t-60 -31
t-78 -11q-100 0 -157.5 45t-57.5 130zM3022 1681l-193 510h74l130 -372q8 -22 14 -42l12 -40q6 22 14 42l16 40l140 372h69l-202 -510h-74zM3356 1681v510h72l257 -398v398h69v-510h-74l-255 396v-396h-69zM128 1098q0 -70 29 -104t71 -34t71.5 33t29.5 99q0 78 -30.5 113.5
t-72.5 35.5t-70 -34.5t-28 -108.5zM327 917v45q-37 -53 -104 -53q-35 0 -64 14t-50 39t-33 60t-12 78q0 42 10.5 77.5t30.5 61.5t48.5 40.5t64.5 14.5q34 0 59.5 -14.5t43.5 -38.5v186h64v-510h-58zM725 917v53q-23 -29 -52 -45t-65 -16q-56 0 -85 25.5t-37 65.5
q-2 8 -2.5 21.5t-0.5 33.5v231h64v-207q0 -24 0.5 -40t2.5 -26q5 -24 23 -37.5t48 -13.5q46 0 72 28.5t26 96.5v199h64v-369h-58zM669 1360h-48l-79 99h82zM878 917v369h59v-53q40 61 114 61q56 0 85 -27t37 -63q2 -10 3.5 -24.5t1.5 -36.5v-226h-63v223q0 54 -19.5 77.5
t-57.5 23.5q-20 0 -37.5 -6t-30.5 -20t-20.5 -37.5t-7.5 -58.5v-202h-64zM1311 1106q0 -72 28 -104t70 -32t71.5 32t29.5 104q0 66 -29.5 100.5t-71.5 34.5t-70 -34.5t-28 -100.5zM1324 883q2 -16 6.5 -27.5t14.5 -17.5q20 -16 61 -16q42 0 65 15.5t31 45.5q5 22 5 79
q-22 -22 -46.5 -33.5t-54.5 -11.5q-39 0 -68.5 14.5t-49.5 40t-30.5 59t-10.5 72.5q0 40 11 74.5t31 60.5t49.5 41t67.5 15q62 0 107 -53v45h58v-318q1 -63 -9 -100t-31 -57.5t-52.5 -28.5t-74.5 -13q-64 0 -104.5 29t-38.5 93zM1921 1103q0 -69 16 -95q28 -48 80 -48
q21 0 39.5 8.5t32.5 26t22.5 43.5t8.5 62q0 72 -29 108t-69 36q-42 0 -71.5 -35.5t-29.5 -105.5zM1924 917h-61v510h63v-183q18 26 43.5 38t57.5 12q34 0 62.5 -14t49.5 -39t33 -59.5t12 -75.5q0 -48 -13 -85t-34.5 -61.5t-50.5 -37.5t-61 -13q-34 0 -58.5 13.5t-42.5 39.5
v-45zM2500 1103q-18 -8 -44 -13.5t-60 -10.5q-27 -5 -44 -10t-27 -12.5t-13.5 -17t-3.5 -23.5q0 -26 18.5 -42.5t56.5 -16.5q34 0 63 14.5t43 44.5q8 21 8 63zM2502 962q-34 -29 -65.5 -41t-69.5 -12q-62 0 -93.5 29t-31.5 75q0 44 26 69t62 37q10 2 24 4t31 4q76 12 112 24
q2 6 2.5 10t0.5 6q0 37 -19 53q-26 21 -72 21t-66.5 -15.5t-28.5 -53.5l-64 8q12 56 50.5 85t114.5 29q37 0 62 -6.5t41 -17.5t24.5 -26t12.5 -32q2 -10 4 -24t2 -34v-85q0 -43 0.5 -68.5t2 -41t5 -24.5t10.5 -18h-64q-6 11 -8.5 21t-4.5 24zM2407 1406q21 0 24 2
q17 4 21 13q0 10 -11 14q-16 8 -48 8q-6 0 -13.5 -0.5t-17.5 -2.5l-3 35q6 2 18 2h30q22 -2 39.5 -6t31.5 -10q27 -11 32 -37q0 -36 -64 -40v-18h-39v40zM2656 917v369h58v-53q41 61 115 61q56 0 85 -27t37 -63q2 -10 3.5 -24.5t1.5 -36.5v-226h-64v223q0 54 -19.5 77.5
t-57.5 23.5q-20 0 -37.5 -6t-30 -20t-20 -37.5t-7.5 -58.5v-202h-64zM3089 1106q0 -72 28 -104t70 -32t71 32t29 104q0 66 -29 100.5t-71 34.5t-70 -34.5t-28 -100.5zM3102 883q3 -34 21 -45q19 -16 61 -16t65 15.5t31 45.5q2 10 3.5 30t1.5 49q-22 -22 -46.5 -33.5
t-54.5 -11.5q-39 0 -68.5 14.5t-49.5 40t-30.5 59t-10.5 72.5q0 40 10.5 74.5t31 60.5t50 41t67.5 15q62 0 106 -53v45h59v-318q1 -63 -9.5 -100t-31.5 -57.5t-52.5 -28.5t-74.5 -13q-64 0 -104.5 29t-38.5 93zM3640 917v369h59v-53q18 26 45.5 43.5t65.5 17.5
q42 0 67.5 -17t36.5 -47q43 64 116 64q114 0 114 -125v-252h-63v231q0 51 -15.5 72t-51.5 21q-38 0 -64 -26.5t-26 -84.5v-213h-63v239q0 42 -15 63.5t-49 21.5q-44 0 -68.5 -30.5t-24.5 -102.5v-191h-64zM4473 1103q-17 -8 -43 -13.5t-60 -10.5q-27 -5 -44 -10t-27 -12.5
t-13.5 -17t-3.5 -23.5q0 -26 18.5 -42.5t56.5 -16.5q34 0 63 14.5t43 44.5q8 21 8 63zM4476 962q-34 -29 -65.5 -41t-69.5 -12q-62 0 -93.5 29t-31.5 75q0 44 26 69t62 37q10 2 23.5 4t31.5 4q76 12 112 24q2 6 2 10v6q0 38 -18 53q-26 21 -72 21t-66.5 -15.5t-28.5 -53.5
l-64 8q12 56 50.5 85t114.5 29q37 0 62 -6.5t41 -17.5t24.5 -26t12.5 -32q2 -10 3.5 -24t1.5 -34v-85q0 -43 0.5 -68.5t2 -41t5.5 -24.5t11 -18h-64q-6 11 -8.5 21t-4.5 24zM4288 1350q-2 32 17.5 53t51.5 21q10 0 25 -5.5t33 -15.5q21 -8 32 -8q10 0 17 7.5t9 21.5h46
q-4 -74 -69 -74q-11 0 -26 4t-33 12q-12 6 -20 9.5t-14 3.5q-29 0 -24 -29h-45zM1364 535h69v-294q0 -54 -10 -95.5t-33.5 -70t-61.5 -43t-94 -14.5q-55 0 -93 12.5t-61.5 39.5t-34 69t-10.5 102v294h69v-291q0 -47 6.5 -78t21.5 -50t39 -26.5t58 -7.5q36 0 61.5 7.5
t42 25.5t24 49.5t7.5 79.5v291zM1539 26v369h58v-53q20 29 48.5 45t66.5 16q55 0 84.5 -27.5t37.5 -63.5q2 -10 3.5 -24t1.5 -37v-225h-64v223q0 54 -19.5 77.5t-57.5 23.5q-20 0 -37.5 -6t-30 -20.5t-20 -38t-7.5 -57.5v-202h-64zM1934 26v369h64v-369h-64zM1934 464v71h64
v-71h-64zM2396 153q-10 -64 -53 -99.5t-101 -35.5q-78 0 -122.5 49t-44.5 139q0 94 44.5 145.5t120.5 51.5q62 0 98 -30.5t50 -86.5l-64 -8q-10 34 -31 54t-51 20q-48 0 -75.5 -34.5t-27.5 -108.5t27 -107.5t74 -33.5q77 0 92 93zM2489 209q0 -72 30 -106.5t76 -34.5
t77.5 34.5t31.5 106.5q0 70 -31.5 105.5t-77.5 35.5t-76 -35.5t-30 -105.5zM2425 209q0 103 56 151q47 43 114 43q37 0 68.5 -13t54.5 -37.5t36 -59.5t13 -79q0 -52 -12.5 -89t-35.5 -61t-54.5 -35t-69.5 -11q-78 0 -124 48.5t-46 142.5zM2884 206q0 -69 29.5 -103.5
t71.5 -34.5t71.5 33.5t29.5 99.5q0 78 -31 113.5t-73 35.5q-41 0 -69.5 -35t-28.5 -109zM3083 26v45q-37 -53 -103 -53q-35 0 -64 14t-50 39t-33 60t-12 78q0 42 10.5 77.5t30.5 61.5t48 40.5t64 14.5q35 0 60.5 -15t43.5 -38v185h64v-509h-59zM3497 244q-2 23 -9 41t-17 30
q-34 37 -80 37t-76.5 -30t-32.5 -78h215zM3558 137q-16 -58 -58 -88.5t-106 -30.5q-82 0 -130 49t-48 139q0 94 47 145.5t125 51.5q39 0 71 -13.5t54.5 -39t35 -61t12.5 -80.5q0 -2 -0.5 -6t-2.5 -10h-278q2 -62 34 -93.5t80 -31.5q38 0 62 17.5t38 59.5z" />
    <glyph glyph-name=".null" horiz-adv-x="0" 
 />
    <glyph glyph-name="nonmarkingreturn" horiz-adv-x="571" 
 />
    <glyph glyph-name="space" unicode=" " horiz-adv-x="602" 
 />
    <glyph glyph-name="exclam" unicode="!" horiz-adv-x="602" 
d="M385 209v-209h-201v209h201zM336 352h-103l-49 635v483h201v-483z" />
    <glyph glyph-name="quotedbl" unicode="&#x22;" horiz-adv-x="786" 
d="M143 950v520h152v-520h-152zM434 950v520h152v-520h-152z" />
    <glyph glyph-name="numbersign" unicode="#" 
d="M795 430l-58 -430h-135l57 430h-253l-62 -430h-135l61 430h-213l21 131h209l41 291h-213l20 127h209l62 430h135l-58 -430h254l58 430h139l-62 -430h213l-20 -127h-209l-41 -291h209l-16 -131h-213zM717 852h-254l-41 -291h258z" />
    <glyph glyph-name="dollar" unicode="$" 
d="M520 840v467q-114 0 -180 -68t-66 -170q0 -98 76 -160q66 -51 170 -69zM614 631v-520q131 0 205 79q66 70 66 179q0 84 -45 145t-115 84zM1032 1069h-176q-10 96 -53 148q-58 67 -189 90v-488q195 -57 267 -92q184 -92 184 -326q0 -233 -162 -352q-123 -90 -289 -90v-197
h-94v197q-207 0 -321 104q-133 123 -133 375h180q0 -164 59.5 -233.5t214.5 -93.5v544q-256 62 -346 162q-80 90 -80 240q0 166 122 283.5t304 117.5v131h94v-131q160 -14 258 -76q160 -98 160 -313z" />
    <glyph glyph-name="percent" unicode="%" horiz-adv-x="1913" 
d="M82 1077q0 148 100.5 248t247.5 100q145 0 246.5 -101t101.5 -247q0 -145 -101.5 -246.5t-246.5 -101.5q-143 0 -245.5 100.5t-102.5 247.5zM225 1077q0 -92 58.5 -148.5t146.5 -56.5q90 0 147.5 59.5t57.5 145.5t-59.5 145.5t-145.5 59.5t-145.5 -59.5t-59.5 -145.5z
M1044 336q0 147 100.5 247.5t248.5 100.5q145 0 246.5 -101.5t101.5 -246.5q0 -146 -101.5 -249t-246.5 -103q-144 0 -246.5 102t-102.5 250zM1188 336q0 -92 58.5 -148.5t146.5 -56.5q90 0 147 59.5t57 145.5t-59 145.5t-145 59.5t-145.5 -59.5t-59.5 -145.5zM1372 1442
l-811 -1483h-110l806 1483h115z" />
    <glyph glyph-name="ampersand" unicode="&#x26;" horiz-adv-x="1454" 
d="M856 291l-332 405q-141 -90 -186 -141q-68 -76 -68 -186q0 -123 103 -191q78 -51 164 -51q200 0 319 164zM586 901q86 57 121 98q63 72 63 156q0 88 -55 129q-41 31 -101 31q-98 0 -143 -62q-29 -41 -29 -98q0 -61 52 -141q36 -58 92 -113zM1061 319l262 -319h-233
l-140 168q-84 -98 -170 -143q-108 -58 -256 -58q-239 0 -354 152q-80 106 -80 237q0 156 66.5 252.5t265.5 210.5q-86 107 -117 164q-39 74 -39 160q0 137 88 227q99 100 260 100q164 0 254 -96q78 -82 78 -207q0 -137 -90 -241q-51 -60 -176 -144l270 -319q25 67 35 108
t23 121h172q0 -74 -31 -169t-88 -204z" />
    <glyph glyph-name="quotesingle" unicode="'" horiz-adv-x="418" 
d="M123 950v520h147v-520h-147z" />
    <glyph glyph-name="parenleft" unicode="(" horiz-adv-x="737" 
d="M487 1503h123q-104 -196 -147 -299q-70 -162 -100.5 -318.5t-30.5 -398.5q0 -159 35.5 -308.5t99.5 -299.5q39 -90 147 -305h-122q-183 272 -256 457q-97 239 -97 506q0 260 90 499q82 215 258 467z" />
    <glyph glyph-name="parenright" unicode=")" horiz-adv-x="737" 
d="M197 -426h-123q100 190 147 301q70 162 100.5 319.5t30.5 399.5q0 160 -34.5 307.5t-100.5 296.5q-39 92 -147 305h123q122 -184 186 -305q80 -151 123 -312t43 -341q0 -262 -90 -502q-82 -217 -258 -469z" />
    <glyph glyph-name="asterisk" unicode="*" horiz-adv-x="856" 
d="M82 1212l41 111l213 -78v225h123v-225l217 78l41 -111l-221 -69l135 -189l-99 -69l-135 192l-131 -192l-102 69l139 189z" />
    <glyph glyph-name="plus" unicode="+" horiz-adv-x="1270" 
d="M524 594v442h152v-442h442v-152h-442v-442h-152v442h-442v152h442z" />
    <glyph glyph-name="comma" unicode="," horiz-adv-x="602" 
d="M180 0v217h213v-201q0 -178 -90 -260q-49 -45 -123 -59v94q60 6 86 70q21 49 21 139h-107z" />
    <glyph glyph-name="hyphen" unicode="-" horiz-adv-x="737" 
d="M594 659v-184h-504v184h504z" />
    <glyph glyph-name="period" unicode="." horiz-adv-x="602" 
d="M393 217v-217h-213v217h213z" />
    <glyph glyph-name="slash" unicode="/" horiz-adv-x="602" 
d="M606 1511l-504 -1552h-139l508 1552h135z" />
    <glyph glyph-name="zero" unicode="0" 
d="M872 700q0 281 -73.5 429.5t-229.5 148.5q-149 0 -224 -151.5t-75 -426.5q0 -278 74 -427.5t225 -149.5q152 0 227.5 150.5t75.5 426.5zM1065 700q0 -290 -92 -481q-127 -260 -404 -260q-276 0 -401 258q-90 186 -90 483q0 293 90 482q125 260 401 260q277 0 404 -258
q92 -189 92 -484z" />
    <glyph glyph-name="one" unicode="1" 
d="M737 1442v-1442h-192v1024h-336v143q184 0 258 47q86 56 127 228h143z" />
    <glyph glyph-name="two" unicode="2" 
d="M270 926h-180q0 305 191 432q125 84 309 84q192 0 321 -117t129 -313q0 -174 -112 -295q-78 -84 -273 -189l-151 -82q-127 -69 -193 -157q-45 -62 -53 -117h782v-172h-987q0 211 97 356q77 119 243 217l189 111q143 80 190 129q76 80 76 207q0 100 -64 172
q-77 86 -223 86q-137 0 -211 -84q-80 -92 -80 -268z" />
    <glyph glyph-name="three" unicode="3" 
d="M459 664v155l94 -4q117 0 188 51q86 62 86 187q0 84 -51 143q-71 82 -215 82q-166 0 -233 -117q-45 -76 -45 -190h-177q0 192 91 313q118 158 372 158q207 0 327 -105.5t120 -275.5q0 -125 -62 -207q-49 -66 -123 -88q113 -39 170 -115q68 -88 68 -225q0 -195 -121 -322
q-139 -145 -395 -145q-76 0 -141.5 16.5t-124.5 49.5q-113 59 -165 170.5t-52 246.5h188q0 -133 51 -209q76 -110 256 -110q140 0 226 78t86 200q0 160 -121 224q-80 43 -215 43z" />
    <glyph glyph-name="four" unicode="4" 
d="M1073 352h-213v-352h-180v352h-627v176l660 914h147v-934h213v-156zM217 508h463v651z" />
    <glyph glyph-name="five" unicode="5" 
d="M365 1233l-62 -393q53 39 113 61q76 29 166 29q188 0 323 -119q148 -129 148 -344q0 -182 -90 -313q-136 -195 -431 -195q-174 0 -288 78q-154 102 -178 323h188q12 -122 93 -181.5t210 -59.5q137 0 220 94t83 233q0 152 -90 236t-229 84q-158 0 -267 -135l-155 8
l110 770h746v-176h-610z" />
    <glyph glyph-name="six" unicode="6" 
d="M1032 1057h-176q-20 102 -76 157q-63 64 -174 64q-184 0 -276 -209q-64 -145 -64 -324l4 -4q41 72 113 117q94 60 227 60q166 0 291 -99q160 -125 160 -356q0 -111 -32 -197t-101.5 -161.5t-136.5 -106.5q-86 -39 -230 -39q-98 0 -188 45q-113 55 -185 168
q-61 96 -85.5 218t-24.5 282q0 299 104 502q140 268 428 268q156 0 273 -82q149 -105 149 -303zM291 442q0 -127 71 -217q82 -102 232 -102q127 0 205 92t78 240q0 116 -62 198q-78 105 -229 105q-146 0 -220.5 -88t-74.5 -228z" />
    <glyph glyph-name="seven" unicode="7" 
d="M78 1233v176h995v-156q-92 -98 -192 -247q-138 -205 -232 -428q-121 -285 -170 -578h-196q36 293 206 645q164 336 379 588h-790z" />
    <glyph glyph-name="eight" unicode="8" 
d="M1008 1069q0 -133 -68 -215q-41 -51 -117 -88q133 -55 193 -164q45 -82 45 -184q0 -193 -115 -318q-131 -141 -373 -141q-86 0 -161 21q-107 28 -187 94q-96 73 -129 186q-18 62 -18 154q0 129 63.5 217t182.5 135q-197 72 -197 278q0 146 90 254q119 144 348 144
q219 0 340 -123q103 -105 103 -250zM569 676q-143 0 -225 -82q-74 -74 -74 -184q0 -111 60 -187q80 -100 248 -100q122 0 194 51q96 70 96 223q0 138 -84 208.5t-215 70.5zM565 831q115 0 186.5 68t71.5 166q0 80 -55 137q-74 76 -215 76q-129 0 -191 -76q-47 -59 -47 -149
q0 -99 74 -160.5t176 -61.5z" />
    <glyph glyph-name="nine" unicode="9" 
d="M541 483q-203 0 -329 124t-126 339q0 209 117 346q127 150 346 150q301 0 424 -246q80 -160 80 -422q0 -145 -25 -280q-41 -228 -139 -359q-131 -176 -357 -176q-227 0 -342 141q-88 109 -88 248h181q0 -110 67.5 -173.5t177.5 -63.5q148 0 229 128t115 412l-4 4
q-39 -80 -131 -126t-196 -46zM565 643q103 0 174 57q105 84 105 271q0 135 -68 215q-78 92 -223 92q-127 0 -203 -88t-76 -236q0 -182 101 -258q69 -53 190 -53z" />
    <glyph glyph-name="colon" unicode=":" horiz-adv-x="602" 
d="M393 217v-217h-213v217h213zM393 1057v-217h-213v217h213z" />
    <glyph glyph-name="semicolon" unicode=";" horiz-adv-x="602" 
d="M180 0v217h213v-201q0 -178 -90 -260q-49 -45 -123 -59v94q60 6 86 70q21 49 21 139h-107zM393 840h-213v217h213v-217z" />
    <glyph glyph-name="less" unicode="&#x3c;" horiz-adv-x="1270" 
d="M1098 188v-163l-1000 421v144l1000 426v-164l-799 -332z" />
    <glyph glyph-name="equal" unicode="=" horiz-adv-x="1270" 
d="M1118 799v-148h-1036v148h1036zM1118 385v-147h-1036v147h1036z" />
    <glyph glyph-name="greater" unicode="&#x3e;" horiz-adv-x="1270" 
d="M98 852v164l1000 -426v-144l-1000 -421v163l799 332z" />
    <glyph glyph-name="question" unicode="?" 
d="M295 1012h-180q0 166 43 250q37 71 121 135q124 94 294 94q183 0 304 -102q131 -111 131 -299q0 -99 -43 -170q-35 -60 -150 -170q-84 -82 -108 -113q-72 -92 -72 -240l4 -20h-180q0 196 67 297q27 41 121 138t115 122q53 67 53 168q0 84 -49 147q-68 86 -197 86
q-133 0 -203.5 -80.5t-70.5 -242.5zM651 209v-209h-196v209h196z" />
    <glyph glyph-name="at" unicode="@" horiz-adv-x="1509" 
d="M1278 836q0 77 -49 132.5t-119 55.5q-131 0 -225 -135q-86 -123 -86 -262q0 -90 47 -145.5t125 -55.5q123 0 219 143q88 131 88 267zM1339 1012l41 127h140q-35 -125 -121 -420q-64 -215 -64 -248q0 -57 45 -57q105 0 198 139t93 303q0 240 -166 384t-407 144
q-271 0 -447 -190t-176 -465q0 -272 183.5 -455.5t455.5 -183.5q143 0 275.5 62.5t220.5 171.5h139q-102 -170 -272 -267.5t-367 -97.5q-330 0 -556 226.5t-226 555.5q0 320 225 545t545 225q293 0 498.5 -181t205.5 -458q0 -256 -176 -436q-153 -157 -311 -157
q-58 0 -94.5 32.5t-36.5 98.5l-4 -4q-54 -54 -111 -87q-72 -40 -135 -40q-131 0 -217 96t-86 231q0 221 129 387q139 178 346 178q76 0 135 -38.5t98 -120.5z" />
    <glyph glyph-name="A" unicode="A" horiz-adv-x="1454" 
d="M979 430h-590l-156 -430h-204l553 1470h225l532 -1470h-217zM451 606h454l-217 647z" />
    <glyph glyph-name="B" unicode="B" horiz-adv-x="1454" 
d="M352 1303v-455h357q151 0 225 51q82 57 82 186q0 109 -68 160q-76 58 -235 58h-361zM152 0v1470h647q196 0 311 -108q107 -100 107 -260q0 -92 -37 -162q-50 -94 -160 -145q117 -52 168 -101q98 -96 98 -260q0 -186 -127 -305q-137 -129 -373 -129h-634zM352 688v-516
h422q154 0 232.5 70.5t78.5 195.5q0 142 -110 203q-84 47 -234 47h-389z" />
    <glyph glyph-name="C" unicode="C" horiz-adv-x="1569" 
d="M1380 1028h-192q-35 172 -172 250q-101 57 -238 57q-211 0 -342 -145q-141 -158 -141 -440q0 -281 106 -435q123 -176 381 -176q133 0 234 72q141 102 188 330h193q-41 -279 -212 -430.5t-431 -151.5q-279 0 -457 180q-207 211 -207 606q0 342 185.5 554t502.5 212
q266 0 432 -149q146 -131 170 -334z" />
    <glyph glyph-name="D" unicode="D" horiz-adv-x="1569" 
d="M168 0v1470h594q285 0 451.5 -195.5t166.5 -516.5q0 -301 -131 -502q-166 -256 -495 -256h-586zM365 1303v-1131h385q196 0 311 148.5t115 424.5q0 273 -116 415.5t-323 142.5h-372z" />
    <glyph glyph-name="E" unicode="E" horiz-adv-x="1454" 
d="M1262 176v-176h-1086v1470h1073v-176h-872v-450h803v-176h-803v-492h885z" />
    <glyph glyph-name="F" unicode="F" horiz-adv-x="1315" 
d="M377 668v-668h-201v1470h1020v-176h-819v-450h721v-176h-721z" />
    <glyph glyph-name="G" unicode="G" horiz-adv-x="1683" 
d="M799 618v168h643v-786h-127l-49 193q-74 -105 -205 -169.5t-279 -64.5q-172 0 -293 55q-83 39 -157 113q-148 139 -201 332q-33 119 -33 291q0 299 168 514q193 247 529 247q227 0 399 -118q195 -133 223 -369h-192q-41 174 -183 252q-106 59 -256 59q-208 0 -342 -153
q-141 -164 -141 -445q0 -264 98 -415q123 -191 394 -191q77 0 137 14q90 23 162 80q92 72 131 174q32 88 32 219h-458z" />
    <glyph glyph-name="H" unicode="H" horiz-adv-x="1569" 
d="M1126 864v606h197v-1470h-197v688h-770v-688h-196v1470h196v-606h770z" />
    <glyph glyph-name="I" unicode="I" horiz-adv-x="602" 
d="M385 1470v-1470h-197v1470h197z" />
    <glyph glyph-name="J" unicode="J" horiz-adv-x="1085" 
d="M37 475h184v-102q0 -127 57.5 -184.5t163.5 -57.5q131 0 189 72q49 61 49 182v1085h197v-1073q0 -235 -138 -348q-108 -90 -284 -90q-230 0 -338 133q-80 98 -80 236v147z" />
    <glyph glyph-name="K" unicode="K" horiz-adv-x="1454" 
d="M356 516v-516h-200v1470h200v-712l713 712h274l-614 -593l631 -877h-258l-516 737z" />
    <glyph glyph-name="L" unicode="L" 
d="M356 1470v-1294h746v-176h-946v1470h200z" />
    <glyph glyph-name="M" unicode="M" horiz-adv-x="1798" 
d="M1561 0h-193v1237l-414 -1237h-196l-414 1233v-1233h-192v1470h282l422 -1241l422 1241h283v-1470z" />
    <glyph glyph-name="N" unicode="N" horiz-adv-x="1569" 
d="M1130 1470h193v-1470h-221l-750 1188l-4 -1188h-192v1470h237l733 -1187z" />
    <glyph glyph-name="O" unicode="O" horiz-adv-x="1573" 
d="M1323 737q0 264 -135 428q-141 170 -377 170q-233 0 -372.5 -168t-139.5 -430q0 -266 137 -432t375 -166q236 0 374 167t138 431zM1528 737q0 -297 -152 -508q-192 -270 -565 -270q-371 0 -563 268q-154 215 -154 510q0 293 152 504q194 270 565 270t563 -268
q154 -213 154 -506z" />
    <glyph glyph-name="P" unicode="P" horiz-adv-x="1454" 
d="M377 1303v-512h393q145 0 217 57q82 65 82 209q0 131 -84 192q-72 54 -207 54h-401zM377 623v-623h-201v1470h664q198 0 316 -115.5t118 -297.5q0 -176 -96 -293q-117 -141 -338 -141h-463z" />
    <glyph glyph-name="Q" unicode="Q" horiz-adv-x="1683" 
d="M860 303l103 123l184 -143q78 75 121 195t43 259q0 264 -135 428q-142 170 -377 170q-234 0 -373 -168t-139 -430q0 -266 137 -432t375 -166q121 0 217 45zM1503 4l-102 -119l-225 176q-148 -102 -377 -102q-371 0 -563 268q-154 215 -154 510q0 293 151 504
q195 270 566 270q370 0 563 -268q154 -213 154 -506q0 -157 -48 -299q-55 -166 -165 -278z" />
    <glyph glyph-name="R" unicode="R" horiz-adv-x="1569" 
d="M381 631v-631h-201v1470h680q209 0 332 -79q151 -99 151 -314q0 -147 -65 -237q-43 -62 -139 -115q88 -39 121 -76q55 -65 55 -203l12 -266q0 -63 13.5 -91t60.5 -56v-33h-242q-18 55 -27.5 178t-9.5 191q0 151 -73 211q-64 51 -189 51h-479zM381 1303v-500h459
q135 0 204 45q95 61 95 209q0 147 -95 207q-61 39 -167 39h-496z" />
    <glyph glyph-name="S" unicode="S" horiz-adv-x="1454" 
d="M1229 1040h-185q0 158 -120 236q-99 63 -244 63q-135 0 -215 -43q-121 -63 -121 -215q0 -84 53 -131q39 -35 119 -53l422 -98q154 -37 236 -125q96 -103 96 -268q0 -238 -193 -355q-151 -92 -381 -92q-182 0 -301 49q-71 29 -145 94q-84 78 -116 169t-32 204h185
q0 -182 131 -272q104 -72 274 -72q197 0 299 76q86 63 86 174q0 113 -62.5 163t-248.5 95l-303 70q-121 30 -191 86q-120 94 -120 262q0 190 116 313q135 141 387 141q338 0 480 -174q94 -116 94 -297z" />
    <glyph glyph-name="T" unicode="T" horiz-adv-x="1315" 
d="M29 1294v176h1196v-176h-500v-1294h-197v1294h-499z" />
    <glyph glyph-name="U" unicode="U" horiz-adv-x="1479" 
d="M1110 1470h197v-954q0 -242 -144 -391q-157 -166 -446 -166q-281 0 -432 162q-133 143 -133 371v978h196v-925q0 -219 119 -322q96 -84 254 -84q166 0 264 80q125 103 125 322v929z" />
    <glyph glyph-name="V" unicode="V" horiz-adv-x="1454" 
d="M1102 1470h225l-536 -1470h-213l-537 1470h221l422 -1253z" />
    <glyph glyph-name="W" unicode="W" horiz-adv-x="2028" 
d="M627 0h-209l-385 1470h217l274 -1196l332 1196h217l332 -1196l278 1196h218l-385 -1470h-209l-336 1221z" />
    <glyph glyph-name="X" unicode="X" horiz-adv-x="1454" 
d="M811 754l516 -754h-246l-393 606l-409 -606h-238l524 754l-491 716h250l372 -561l373 561h238z" />
    <glyph glyph-name="Y" unicode="Y" horiz-adv-x="1454" 
d="M782 594v-594h-196v594l-557 876h233l422 -704l422 704h233z" />
    <glyph glyph-name="Z" unicode="Z" horiz-adv-x="1315" 
d="M1204 176v-176h-1155v168l901 1126h-835v176h1089v-172l-905 -1122h905z" />
    <glyph glyph-name="bracketleft" unicode="[" horiz-adv-x="602" 
d="M291 1335v-1593h221v-143h-381v1880h381v-144h-221z" />
    <glyph glyph-name="backslash" unicode="\" horiz-adv-x="602" 
d="M467 -41l-504 1552h139l504 -1552h-139z" />
    <glyph glyph-name="bracketright" unicode="]" horiz-adv-x="602" 
d="M279 -258v1593h-222v144h385v-1880h-385v143h222z" />
    <glyph glyph-name="asciicircum" unicode="^" horiz-adv-x="1016" 
d="M991 541h-160l-348 704l-352 -704h-160l439 868h147z" />
    <glyph glyph-name="underscore" unicode="_" 
d="M1139 -258h-1139v102h1139v-102z" />
    <glyph glyph-name="grave" unicode="`" horiz-adv-x="737" 
d="M295 1217l-266 286h221l184 -286h-139z" />
    <glyph glyph-name="a" unicode="a" horiz-adv-x="1176" 
d="M295 745h-168q0 185 123 275q112 82 319 82q131 0 230 -45q168 -76 168 -254v-615q0 -65 61 -65l57 8v-131q-22 -6 -47.5 -13t-50.5 -7q-108 0 -153 51q-35 39 -35 112q-72 -75 -142 -114q-110 -62 -247 -62q-148 0 -242 86t-94 226q0 108 51 186q82 125 276 149l295 37
q43 4 64 25q31 31 31 102q0 176 -250 176q-133 0 -195 -73q-37 -45 -51 -136zM786 373v176q-22 -21 -79.5 -35t-199.5 -32.5t-193.5 -61.5t-51.5 -113q0 -92 46 -140t147 -48q131 0 231 73.5t100 180.5z" />
    <glyph glyph-name="b" unicode="b" 
d="M291 0h-172v1470h180v-532q121 164 315 164q207 0 330 -154q117 -145 117 -379q0 -235 -98 -397q-125 -205 -373 -205q-123 0 -203 60q-49 36 -92 108zM872 541q0 159 -41 250q-69 151 -249 151q-174 0 -244 -162q-47 -108 -47 -293q0 -190 104 -286q80 -74 191 -74
q143 0 214.5 112.5t71.5 301.5z" />
    <glyph glyph-name="c" unicode="c" horiz-adv-x="1085" 
d="M979 713h-176q-17 108 -80.5 168.5t-173.5 60.5q-152 0 -230 -129q-65 -111 -65 -276q0 -175 53 -275q72 -135 242 -135q90 0 161.5 67.5t92.5 186.5h176q-18 -162 -109 -270q-118 -144 -329 -144q-222 0 -351 150.5t-129 390.5q0 266 123 422q135 172 394 172
q192 0 299 -125q88 -103 102 -264z" />
    <glyph glyph-name="d" unicode="d" 
d="M1024 1470v-1470h-172v147q-55 -98 -145 -143q-72 -37 -162 -37q-248 0 -373 203q-98 160 -98 399q0 234 117.5 383.5t328.5 149.5q127 0 215 -66q45 -32 105 -114l4 12v536h180zM258 541q0 -185 75 -299.5t216 -114.5q110 0 188 72q103 94 103 288q0 185 -45 291
q-70 164 -242 164q-182 0 -252 -149q-43 -93 -43 -252z" />
    <glyph glyph-name="e" unicode="e" 
d="M864 336h180q-10 -62 -47 -129q-55 -103 -145 -162q-55 -37 -98 -51q-78 -27 -193 -27q-221 0 -350 150.5t-129 390.5q0 266 123 422q135 172 393 172q225 0 342 -167t117 -456h-783q0 -170 79 -261t233 -91q119 0 200 74q70 63 78 135zM274 623h598q0 137 -67 221
q-78 98 -232 98q-122 0 -210.5 -96t-88.5 -223z" />
    <glyph glyph-name="f" unicode="f" horiz-adv-x="602" 
d="M537 922h-181v-922h-180v922h-147v151h147v184q0 234 279 234h37.5t44.5 -4v-160l-74 4q-107 0 -107 -127v-131h181v-151z" />
    <glyph glyph-name="g" unicode="g" 
d="M270 541q0 -187 73 -300.5t214 -113.5q113 0 191 72q104 96 104 288q0 183 -47 291q-72 164 -244 164q-182 0 -250 -149q-41 -91 -41 -252zM1024 1073v-983q0 -211 -63 -328q-115 -213 -437 -213q-141 0 -237 52q-148 80 -172 268h180q16 -84 78.5 -128t163.5 -44
q196 0 266 135q41 80 41 234v57l-4 -8q-41 -66 -107 -103q-78 -45 -180 -45q-248 0 -373 203q-98 160 -98 399q0 232 120 382.5t326 150.5q129 0 217 -66q52 -39 103 -114l4 151h172z" />
    <glyph glyph-name="h" unicode="h" 
d="M1008 729v-729h-181v700q0 123 -41 177q-49 65 -172 65q-127 0 -204 -76q-95 -92 -95 -280v-586h-180v1470h180v-540q62 76 113 110q90 62 203 62q157 0 252 -70q125 -92 125 -303z" />
    <glyph glyph-name="i" unicode="i" horiz-adv-x="487" 
d="M319 1073v-1073h-180v1073h180zM319 1266h-180v204h180v-204z" />
    <glyph glyph-name="j" unicode="j" horiz-adv-x="487" 
d="M319 1073v-1233q0 -108 -36 -168q-64 -102 -238 -102h-29h-24q-17 4 -25 4v156h37q82 0 108.5 22.5t26.5 108.5v1212h180zM319 1470v-204h-180v204h180z" />
    <glyph glyph-name="k" unicode="k" horiz-adv-x="1085" 
d="M594 672l434 -672h-233l-332 541l-152 -135v-406h-172v1470h172v-852l463 455h230z" />
    <glyph glyph-name="l" unicode="l" horiz-adv-x="487" 
d="M319 1470v-1470h-180v1470h180z" />
    <glyph glyph-name="m" unicode="m" horiz-adv-x="1798" 
d="M135 0v1073h168v-151q57 73 109 110q96 70 219 70q96 0 163.5 -38t123.5 -134q81 90 135 123q80 49 192 49q123 0 209 -66q123 -94 123 -295v-741h-180v692q0 121 -41 180q-49 70 -160 70t-180.5 -85t-69.5 -202v-655h-180v741q0 80 -35 133q-45 68 -133 68
q-104 0 -178 -68q-105 -94 -105 -288v-586h-180z" />
    <glyph glyph-name="n" unicode="n" 
d="M1008 729v-729h-181v659q0 148 -47 211q-53 72 -182 72q-104 0 -178 -68q-105 -94 -105 -288v-586h-180v1073h168v-151q57 71 111 110q98 70 217 70q157 0 252 -70q125 -92 125 -303z" />
    <glyph glyph-name="o" unicode="o" horiz-adv-x="1180" 
d="M74 537q0 231 119 387q135 178 376 178q242 0 379 -178q121 -158 121 -387q0 -228 -121 -385q-137 -181 -379 -181q-239 0 -374 179q-121 157 -121 387zM258 537q0 -152 57 -258q82 -152 254 -152q170 0 252 149q60 109 60 261q0 151 -58 258q-82 151 -254 151
q-170 0 -252 -149q-59 -109 -59 -260z" />
    <glyph glyph-name="p" unicode="p" 
d="M291 487q0 -190 104 -286q80 -74 191 -74q143 0 214.5 112.5t71.5 301.5q0 159 -41 250q-69 151 -249 151q-174 0 -244 -162q-47 -108 -47 -293zM119 -426v1499h172v-151q57 77 104 112q92 68 219 68q207 0 330 -154q117 -145 117 -379q0 -235 -98 -397
q-125 -205 -373 -205q-103 0 -173.5 40t-113.5 108l-4 -541h-180z" />
    <glyph glyph-name="q" unicode="q" 
d="M1012 1073v-1499h-181v541q-40 -66 -106 -103q-78 -45 -180 -45q-248 0 -373 203q-98 160 -98 399q0 234 117.5 383.5t328.5 149.5q127 0 215 -66q45 -32 105 -114l4 151h168zM840 487q0 185 -45 291q-70 164 -242 164q-182 0 -252 -149q-43 -93 -43 -252
q0 -185 75 -299.5t216 -114.5q110 0 188 72q103 94 103 288z" />
    <glyph glyph-name="r" unicode="r" horiz-adv-x="737" 
d="M340 623v-623h-180v1073h168v-180q61 100 131 151q78 58 176 58q33 0 45 -4v-189h-66q-122 0 -198 -82t-76 -204z" />
    <glyph glyph-name="s" unicode="s" horiz-adv-x="1085" 
d="M918 766h-177q0 72 -41 115q-63 65 -213 65q-98 0 -155.5 -42t-57.5 -109q0 -62 45 -90q35 -23 152 -54l180 -45q164 -39 231.5 -104.5t67.5 -177.5q0 -164 -117.5 -260.5t-304.5 -96.5q-280 0 -391 139q-71 91 -71 238h176q0 -117 80 -170q71 -47 202 -47q107 0 172 39
q74 45 74 129q0 61 -44 92t-169 64l-209 49q-119 30 -178 88q-68 65 -68 174q0 166 123 258q109 82 283 82q190 0 300 -94.5t110 -241.5z" />
    <glyph glyph-name="t" unicode="t" horiz-adv-x="602" 
d="M528 922h-172v-697q0 -53 39 -71q23 -11 68 -11h65v-143l-135 -16q-125 0 -176 67q-41 53 -41 166v705h-147v151h147v299h180v-299h172v-151z" />
    <glyph glyph-name="u" unicode="u" 
d="M1004 0h-173v156l-4 4q-57 -97 -137 -145t-203 -48q-139 0 -231 70q-117 88 -117 266v770h180v-713q0 -124 60 -182q51 -51 149 -51q154 0 232 119q63 96 63 237v590h181v-1073z" />
    <glyph glyph-name="v" unicode="v" horiz-adv-x="1085" 
d="M811 1073h197l-406 -1073h-192l-394 1073h209l279 -872z" />
    <glyph glyph-name="w" unicode="w" horiz-adv-x="1569" 
d="M524 0h-184l-311 1073h196l205 -844l213 844h201l209 -844l221 844h180l-311 -1073h-189l-217 831z" />
    <glyph glyph-name="x" unicode="x" horiz-adv-x="1085" 
d="M627 553l377 -553h-230l-266 406l-258 -406h-225l376 553l-360 520h233l246 -377l250 377h221z" />
    <glyph glyph-name="y" unicode="y" horiz-adv-x="1085" 
d="M803 1073h201q-95 -264 -188 -522t-198 -531q-129 -325 -189 -391.5t-232 -66.5q-17 0 -27 2q-31 10 -47 14v164q16 -6 46 -13.5t60 -7.5q68 0 96.5 39t96.5 211l-397 1102h204l283 -872z" />
    <glyph glyph-name="z" unicode="z" horiz-adv-x="1085" 
d="M942 926l-639 -774h660v-152h-897v143l643 779h-594v151h827v-147z" />
    <glyph glyph-name="braceleft" unicode="{" horiz-adv-x="737" 
d="M86 479v123q70 0 119 75t49 187v353q0 120 61.5 191t147.5 71h135v-131h-90q-49 0 -71.5 -45.5t-22.5 -122.5v-349q0 -131 -74 -215q-53 -61 -107 -71q39 -15 74 -45q107 -90 107 -254v-348q0 -74 22.5 -121t71.5 -47h90v-131h-135q-84 0 -144 67q-65 74 -65 195v352
q0 117 -48 191.5t-120 74.5z" />
    <glyph glyph-name="bar" unicode="|" horiz-adv-x="578" 
d="M193 -41v1552h151v-1552h-151z" />
    <glyph glyph-name="braceright" unicode="}" horiz-adv-x="737" 
d="M598 602v-123q-72 0 -118 -74.5t-46 -191.5v-352q0 -121 -62.5 -191.5t-146.5 -70.5h-139v131h90q51 0 72.5 46t21.5 122v348q0 139 74 223q47 53 107 72q-35 10 -74 43q-107 90 -107 247v349q0 77 -18 116q-25 52 -76 52h-90v131h139q84 0 146.5 -71t62.5 -191v-353
q0 -116 45 -189t119 -73z" />
    <glyph glyph-name="asciitilde" unicode="~" horiz-adv-x="1270" 
d="M999 668l74 -115q-51 -80 -115.5 -128t-142.5 -48q-39 0 -83 13t-126 56q-61 35 -104 50q-60 20 -129 20q-62 0 -107 -45q-37 -37 -65 -102l-74 114q41 80 92 121q68 55 162 55q49 0 106.5 -17t122.5 -48q78 -33 131.5 -53.5t77.5 -20.5q53 0 103 47q22 23 77 101z" />
    <glyph glyph-name="sterling" unicode="&#xa3;" 
d="M418 778h344v-127h-283q6 -24 11.5 -64t5.5 -71q0 -94 -60 -190q-65 -109 -186 -191l4 4q65 33 130 51.5t136 18.5q68 0 186.5 -35t157.5 -35q43 0 86 17.5t70 44.5l86 -135q-129 -99 -262 -99q-58 0 -201 47t-225 47q-56 0 -117 -23.5t-125 -62.5l-98 144
q141 96 205 217q45 88 45 168q0 33 -13.5 75t-27.5 72h-217v127h139q-37 80 -43 92q-43 103 -43 183q0 159 104 272q135 145 400 145q217 0 338 -137q104 -119 104 -297v-32h-180v20q0 127 -78 209t-205 82q-149 0 -229 -94q-62 -72 -62 -156q0 -57 25 -122.5t78 -164.5z
" />
    <glyph glyph-name="yen" unicode="&#xa5;" 
d="M86 672v114h315l-393 623h205l356 -602l361 602h205l-398 -623h320v-114h-398v-176h398v-115h-398v-381h-180v381h-393v115h393v176h-393z" />
    <glyph glyph-name="dieresis" unicode="&#xa8;" horiz-adv-x="1024" 
 />
    <glyph glyph-name="copyright" unicode="&#xa9;" horiz-adv-x="1642" 
d="M807 -41q-324 0 -555.5 223.5t-231.5 554.5q0 330 230.5 552t556.5 222q321 0 551.5 -222t230.5 -552q0 -331 -229.5 -554.5t-552.5 -223.5zM176 737q0 -278 182.5 -462.5t448.5 -184.5t446.5 184.5t180.5 462.5q0 275 -180.5 459t-446.5 184t-448.5 -184t-182.5 -459z
M1077 594h140q-31 -152 -135.5 -242t-245.5 -90q-207 0 -333 136.5t-126 342.5q0 205 123 338t327 133q154 0 259.5 -81.5t125.5 -237.5h-135q-18 84 -84.5 134t-165.5 50q-141 0 -218 -92t-77 -244q0 -145 82 -244.5t222 -99.5q92 0 158.5 55.5t82.5 141.5z" />
    <glyph glyph-name="registered" unicode="&#xae;" horiz-adv-x="1642" 
d="M807 -41q-324 0 -555.5 223.5t-231.5 554.5q0 330 230.5 552t556.5 222q321 0 551.5 -222t230.5 -552q0 -331 -229.5 -554.5t-552.5 -223.5zM176 737q0 -278 182.5 -462.5t448.5 -184.5t446.5 184.5t180.5 462.5q0 275 -180.5 459t-446.5 184t-448.5 -184t-182.5 -459z
M643 676v-385h-135v893h340q162 0 238.5 -60.5t76.5 -193.5q0 -113 -62.5 -173.5t-166.5 -72.5l254 -393h-152l-237 385h-156zM643 791h164q137 0 177 35.5t40 111.5t-54.5 103.5t-142.5 27.5h-184v-278z" />
    <glyph glyph-name="degree" unicode="&#xb0;" horiz-adv-x="82" 
d="M-850 1384q0 95 64.5 159.5t158.5 64.5q92 0 158 -65.5t66 -158.5q0 -92 -66 -157.5t-158 -65.5t-157.5 63.5t-65.5 159.5zM-758 1384q0 -59 38 -95t93 -36q56 0 93.5 38t37.5 93q0 56 -37.5 94t-93.5 38q-53 0 -92 -39t-39 -93z" />
    <glyph glyph-name="plusminus" unicode="&#xb1;" horiz-adv-x="1270" 
d="M524 709v327h152v-327h442v-152h-442v-328h-152v328h-442v152h442zM82 0v152h1036v-152h-1036z" />
    <glyph glyph-name="onequarter" unicode="&#xbc;" horiz-adv-x="1780" 
 />
    <glyph glyph-name="onehalf" unicode="&#xbd;" horiz-adv-x="1780" 
 />
    <glyph glyph-name="threequarters" unicode="&#xbe;" horiz-adv-x="1780" 
 />
    <glyph glyph-name=".notdef.106" unicode="&#xc0;" horiz-adv-x="1454" 
d="M979 430h-590l-156 -430h-204l553 1470h225l532 -1470h-217zM451 606h454l-217 647zM668 1614l-266 291h221l180 -291h-135z" />
    <glyph glyph-name=".notdef.107" unicode="&#xc1;" horiz-adv-x="1454" 
d="M979 430h-590l-156 -430h-204l553 1470h225l532 -1470h-217zM451 606h454l-217 647zM982 1905l-266 -291h-135l180 291h221z" />
    <glyph glyph-name=".notdef.111" unicode="&#xc2;" horiz-adv-x="1454" 
d="M979 430h-590l-156 -430h-204l553 1470h225l532 -1470h-217zM451 606h454l-217 647zM698 1810l-135 -192h-164l205 291h188l205 -291h-164z" />
    <glyph glyph-name=".notdef.109" unicode="&#xc3;" horiz-adv-x="1454" 
d="M979 430h-590l-156 -430h-204l553 1470h225l532 -1470h-217zM451 606h454l-217 647zM943 1880h102q-10 -96 -64.5 -160.5t-140.5 -64.5q-45 0 -118 28l-54 17q-98 33 -127 33q-39 0 -59 -21.5t-35 -69.5h-98q14 101 59 154q54 64 154 64q35 0 68.5 -7.5t70.5 -21.5
l45 -21q25 -10 53.5 -17t40.5 -7q54 0 78 31q17 20 25 63z" />
    <glyph glyph-name=".notdef.123" unicode="&#xc8;" horiz-adv-x="1454" 
d="M1262 176v-176h-1086v1470h1073v-176h-872v-450h803v-176h-803v-492h885zM668 1614l-266 291h221l180 -291h-135z" />
    <glyph glyph-name=".notdef.124" unicode="&#xc9;" horiz-adv-x="1454" 
d="M1262 176v-176h-1086v1470h1073v-176h-872v-450h803v-176h-803v-492h885zM982 1905l-266 -291h-135l180 291h221z" />
    <glyph glyph-name=".notdef.128" unicode="&#xca;" horiz-adv-x="1454" 
d="M1262 176v-176h-1086v1470h1073v-176h-872v-450h803v-176h-803v-492h885zM717 1810l-135 -192h-164l205 291h188l205 -291h-164z" />
    <glyph glyph-name=".notdef.104" unicode="&#xcc;" horiz-adv-x="602" 
d="M385 1470v-1470h-197v1470h197zM245 1611l-266 291h221l180 -291h-135z" />
    <glyph glyph-name=".notdef.103" unicode="&#xcd;" horiz-adv-x="602" 
d="M385 1470v-1470h-197v1470h197zM589 1905l-266 -291h-135l180 291h221z" />
    <glyph glyph-name=".notdef.099" unicode="&#xd2;" horiz-adv-x="1573" 
d="M1323 737q0 264 -135 428q-141 170 -377 170q-233 0 -372.5 -168t-139.5 -430q0 -266 137 -432t375 -166q236 0 374 167t138 431zM1528 737q0 -297 -152 -508q-192 -270 -565 -270q-371 0 -563 268q-154 215 -154 510q0 293 152 504q194 270 565 270t563 -268
q154 -213 154 -506zM812 1614l-266 291h221l180 -291h-135z" />
    <glyph glyph-name=".notdef.098" unicode="&#xd3;" horiz-adv-x="1573" 
d="M1323 737q0 264 -135 428q-141 170 -377 170q-233 0 -372.5 -168t-139.5 -430q0 -266 137 -432t375 -166q236 0 374 167t138 431zM1528 737q0 -297 -152 -508q-192 -270 -565 -270q-371 0 -563 268q-154 215 -154 510q0 293 152 504q194 270 565 270t563 -268
q154 -213 154 -506zM1070 1905l-266 -291h-135l180 291h221z" />
    <glyph glyph-name=".notdef.094" unicode="&#xd4;" horiz-adv-x="1573" 
d="M1323 737q0 264 -135 428q-141 170 -377 170q-233 0 -372.5 -168t-139.5 -430q0 -266 137 -432t375 -166q236 0 374 167t138 431zM1528 737q0 -297 -152 -508q-192 -270 -565 -270q-371 0 -563 268q-154 215 -154 510q0 293 152 504q194 270 565 270t563 -268
q154 -213 154 -506zM811 1810l-135 -192h-164l205 291h188l205 -291h-164z" />
    <glyph glyph-name=".notdef.096" unicode="&#xd5;" horiz-adv-x="1573" 
d="M1323 737q0 264 -135 428q-141 170 -377 170q-233 0 -372.5 -168t-139.5 -430q0 -266 137 -432t375 -166q236 0 374 167t138 431zM1528 737q0 -297 -152 -508q-192 -270 -565 -270q-371 0 -563 268q-154 215 -154 510q0 293 152 504q194 270 565 270t563 -268
q154 -213 154 -506zM1057 1880h102q-10 -96 -64.5 -160.5t-140.5 -64.5q-45 0 -118 28l-54 17q-98 33 -127 33q-39 0 -59 -21.5t-35 -69.5h-98q14 101 59 154q54 64 154 64q35 0 68.5 -7.5t70.5 -21.5l45 -21q25 -10 53.5 -17t40.5 -7q54 0 78 31q17 20 25 63z" />
    <glyph glyph-name="multiply" unicode="&#xd7;" horiz-adv-x="1270" 
d="M496 520l-414 414l106 102l410 -409l414 409l106 -102l-413 -414l413 -414l-106 -106l-414 414l-414 -414l-102 106z" />
    <glyph glyph-name=".notdef.088" unicode="&#xd9;" horiz-adv-x="1479" 
d="M1110 1470h197v-954q0 -242 -144 -391q-157 -166 -446 -166q-281 0 -432 162q-133 143 -133 371v978h196v-925q0 -219 119 -322q96 -84 254 -84q166 0 264 80q125 103 125 322v929zM728 1614l-266 291h221l180 -291h-135z" />
    <glyph glyph-name=".notdef.087" unicode="&#xda;" horiz-adv-x="1479" 
d="M1110 1470h197v-954q0 -242 -144 -391q-157 -166 -446 -166q-281 0 -432 162q-133 143 -133 371v978h196v-925q0 -219 119 -322q96 -84 254 -84q166 0 264 80q125 103 125 322v929zM982 1905l-266 -291h-135l180 291h221z" />
    <glyph glyph-name=".notdef.070" unicode="&#xdd;" horiz-adv-x="1454" 
d="M782 594v-594h-196v594l-557 876h233l422 -704l422 704h233zM937 1905l-266 -291h-135l180 291h221z" />
    <glyph glyph-name=".notdef.066" unicode="&#xe0;" horiz-adv-x="1176" 
d="M295 745h-168q0 185 123 275q112 82 319 82q131 0 230 -45q168 -76 168 -254v-615q0 -65 61 -65l57 8v-131q-22 -6 -47.5 -13t-50.5 -7q-108 0 -153 51q-35 39 -35 112q-72 -75 -142 -114q-110 -62 -247 -62q-148 0 -242 86t-94 226q0 108 51 186q82 125 276 149l295 37
q43 4 64 25q31 31 31 102q0 176 -250 176q-133 0 -195 -73q-37 -45 -51 -136zM786 373v176q-22 -21 -79.5 -35t-199.5 -32.5t-193.5 -61.5t-51.5 -113q0 -92 46 -140t147 -48q131 0 231 73.5t100 180.5zM569 1217l-270 286h225l180 -286h-135z" />
    <glyph glyph-name=".notdef.065" unicode="&#xe1;" horiz-adv-x="1176" 
d="M295 745h-168q0 185 123 275q112 82 319 82q131 0 230 -45q168 -76 168 -254v-615q0 -65 61 -65l57 8v-131q-22 -6 -47.5 -13t-50.5 -7q-108 0 -153 51q-35 39 -35 112q-72 -75 -142 -114q-110 -62 -247 -62q-148 0 -242 86t-94 226q0 108 51 186q82 125 276 149l295 37
q43 4 64 25q31 31 31 102q0 176 -250 176q-133 0 -195 -73q-37 -45 -51 -136zM786 373v176q-22 -21 -79.5 -35t-199.5 -32.5t-193.5 -61.5t-51.5 -113q0 -92 46 -140t147 -48q131 0 231 73.5t100 180.5zM831 1503l-267 -286h-139l185 286h221z" />
    <glyph glyph-name=".notdef.061" unicode="&#xe2;" horiz-adv-x="1176" 
d="M295 745h-168q0 185 123 275q112 82 319 82q131 0 230 -45q168 -76 168 -254v-615q0 -65 61 -65l57 8v-131q-22 -6 -47.5 -13t-50.5 -7q-108 0 -153 51q-35 39 -35 112q-72 -75 -142 -114q-110 -62 -247 -62q-148 0 -242 86t-94 226q0 108 51 186q82 125 276 149l295 37
q43 4 64 25q31 31 31 102q0 176 -250 176q-133 0 -195 -73q-37 -45 -51 -136zM786 373v176q-22 -21 -79.5 -35t-199.5 -32.5t-193.5 -61.5t-51.5 -113q0 -92 46 -140t147 -48q131 0 231 73.5t100 180.5zM578 1384l-135 -188h-160l201 287h193l200 -287h-164z" />
    <glyph glyph-name=".notdef.063" unicode="&#xe3;" horiz-adv-x="1176" 
d="M295 745h-168q0 185 123 275q112 82 319 82q131 0 230 -45q168 -76 168 -254v-615q0 -65 61 -65l57 8v-131q-22 -6 -47.5 -13t-50.5 -7q-108 0 -153 51q-35 39 -35 112q-72 -75 -142 -114q-110 -62 -247 -62q-148 0 -242 86t-94 226q0 108 51 186q82 125 276 149l295 37
q43 4 64 25q31 31 31 102q0 176 -250 176q-133 0 -195 -73q-37 -45 -51 -136zM786 373v176q-22 -21 -79.5 -35t-199.5 -32.5t-193.5 -61.5t-51.5 -113q0 -92 46 -140t147 -48q131 0 231 73.5t100 180.5zM817 1479h102q-12 -95 -67.5 -158.5t-137.5 -63.5q-24 0 -49.5 5.5
t-73.5 19.5l-53 21q-26 8 -63 18t-60 10q-39 0 -61.5 -23.5t-36.5 -66.5h-98q12 98 64 159.5t149 61.5q34 0 67 -9t72 -23l45 -17q72 -29 98 -29q54 0 78 33q16 21 25 62z" />
    <glyph glyph-name=".notdef.049" unicode="&#xe8;" 
d="M864 336h180q-10 -62 -47 -129q-55 -103 -145 -162q-55 -37 -98 -51q-78 -27 -193 -27q-221 0 -350 150.5t-129 390.5q0 266 123 422q135 172 393 172q225 0 342 -167t117 -456h-783q0 -170 79 -261t233 -91q119 0 200 74q70 63 78 135zM274 623h598q0 137 -67 221
q-78 98 -232 98q-122 0 -210.5 -96t-88.5 -223zM596 1217l-270 286h225l180 -286h-135z" />
    <glyph glyph-name=".notdef.048" unicode="&#xe9;" 
d="M864 336h180q-10 -62 -47 -129q-55 -103 -145 -162q-55 -37 -98 -51q-78 -27 -193 -27q-221 0 -350 150.5t-129 390.5q0 266 123 422q135 172 393 172q225 0 342 -167t117 -456h-783q0 -170 79 -261t233 -91q119 0 200 74q70 63 78 135zM274 623h598q0 137 -67 221
q-78 98 -232 98q-122 0 -210.5 -96t-88.5 -223zM860 1503l-267 -286h-139l185 286h221z" />
    <glyph glyph-name=".notdef.044" unicode="&#xea;" 
d="M864 336h180q-10 -62 -47 -129q-55 -103 -145 -162q-55 -37 -98 -51q-78 -27 -193 -27q-221 0 -350 150.5t-129 390.5q0 266 123 422q135 172 393 172q225 0 342 -167t117 -456h-783q0 -170 79 -261t233 -91q119 0 200 74q70 63 78 135zM274 623h598q0 137 -67 221
q-78 98 -232 98q-122 0 -210.5 -96t-88.5 -223zM578 1384l-135 -188h-160l201 287h193l200 -287h-164z" />
    <glyph glyph-name=".notdef.038" unicode="&#xec;" horiz-adv-x="487" 
d="M319 1073v-1073h-180v1073h180zM182 1217l-270 286h225l180 -286h-135z" />
    <glyph glyph-name=".notdef.037" unicode="&#xed;" horiz-adv-x="487" 
d="M319 1073v-1073h-180v1073h180zM541 1503l-267 -286h-139l185 286h221z" />
    <glyph glyph-name=".notdef.033" unicode="&#xf2;" horiz-adv-x="1180" 
d="M74 537q0 231 119 387q135 178 376 178q242 0 379 -178q121 -158 121 -387q0 -228 -121 -385q-137 -181 -379 -181q-239 0 -374 179q-121 157 -121 387zM258 537q0 -152 57 -258q82 -152 254 -152q170 0 252 149q60 109 60 261q0 151 -58 258q-82 151 -254 151
q-170 0 -252 -149q-59 -109 -59 -260zM567 1217l-270 286h225l180 -286h-135z" />
    <glyph glyph-name=".notdef.032" unicode="&#xf3;" horiz-adv-x="1180" 
d="M74 537q0 231 119 387q135 178 376 178q242 0 379 -178q121 -158 121 -387q0 -228 -121 -385q-137 -181 -379 -181q-239 0 -374 179q-121 157 -121 387zM258 537q0 -152 57 -258q82 -152 254 -152q170 0 252 149q60 109 60 261q0 151 -58 258q-82 151 -254 151
q-170 0 -252 -149q-59 -109 -59 -260zM831 1503l-267 -286h-139l185 286h221z" />
    <glyph glyph-name=".notdef.028" unicode="&#xf4;" horiz-adv-x="1180" 
d="M74 537q0 231 119 387q135 178 376 178q242 0 379 -178q121 -158 121 -387q0 -228 -121 -385q-137 -181 -379 -181q-239 0 -374 179q-121 157 -121 387zM258 537q0 -152 57 -258q82 -152 254 -152q170 0 252 149q60 109 60 261q0 151 -58 258q-82 151 -254 151
q-170 0 -252 -149q-59 -109 -59 -260zM567 1384l-135 -188h-160l201 287h193l200 -287h-164z" />
    <glyph glyph-name=".notdef.030" unicode="&#xf5;" horiz-adv-x="1180" 
d="M74 537q0 231 119 387q135 178 376 178q242 0 379 -178q121 -158 121 -387q0 -228 -121 -385q-137 -181 -379 -181q-239 0 -374 179q-121 157 -121 387zM258 537q0 -152 57 -258q82 -152 254 -152q170 0 252 149q60 109 60 261q0 151 -58 258q-82 151 -254 151
q-170 0 -252 -149q-59 -109 -59 -260zM820 1479h102q-12 -95 -67.5 -158.5t-137.5 -63.5q-24 0 -49.5 5.5t-73.5 19.5l-53 21q-26 8 -63 18t-60 10q-39 0 -61.5 -23.5t-36.5 -66.5h-98q12 98 64 159.5t149 61.5q34 0 67 -9t72 -23l45 -17q72 -29 98 -29q54 0 78 33
q16 21 25 62z" />
    <glyph glyph-name="divide" unicode="&#xf7;" horiz-adv-x="1706" 
 />
    <glyph glyph-name=".notdef.022" unicode="&#xf9;" 
d="M1004 0h-173v156l-4 4q-57 -97 -137 -145t-203 -48q-139 0 -231 70q-117 88 -117 266v770h180v-713q0 -124 60 -182q51 -51 149 -51q154 0 232 119q63 96 63 237v590h181v-1073zM567 1217l-270 286h225l180 -286h-135z" />
    <glyph glyph-name=".notdef.021" unicode="&#xfa;" 
d="M1004 0h-173v156l-4 4q-57 -97 -137 -145t-203 -48q-139 0 -231 70q-117 88 -117 266v770h180v-713q0 -124 60 -182q51 -51 149 -51q154 0 232 119q63 96 63 237v590h181v-1073zM831 1503l-267 -286h-139l185 286h221z" />
    <glyph glyph-name=".notdef.004" unicode="&#xfd;" horiz-adv-x="1085" 
d="M803 1073h201q-95 -264 -188 -522t-198 -531q-129 -325 -189 -391.5t-232 -66.5q-17 0 -27 2q-31 10 -47 14v164q16 -6 46 -13.5t60 -7.5q68 0 96.5 39t96.5 211l-397 1102h204l283 -872zM773 1503l-267 -286h-139l185 286h221z" />
    <glyph glyph-name=".notdef.117" unicode="&#x102;" horiz-adv-x="1454" 
d="M979 430h-590l-156 -430h-204l553 1470h225l532 -1470h-217zM451 606h454l-217 647zM888 1829h125q-18 -135 -96 -205q-80 -63 -221 -63q-136 0 -206.5 67.5t-86.5 200.5h114q9 -17 12 -27q15 -27 29 -46q23 -27 58.5 -42t89.5 -15q92 0 137 50q26 28 45 80z" />
    <glyph glyph-name=".notdef.055" unicode="&#x103;" horiz-adv-x="1176" 
d="M295 745h-168q0 185 123 275q112 82 319 82q131 0 230 -45q168 -76 168 -254v-615q0 -65 61 -65l57 8v-131q-22 -6 -47.5 -13t-50.5 -7q-108 0 -153 51q-35 39 -35 112q-72 -75 -142 -114q-110 -62 -247 -62q-148 0 -242 86t-94 226q0 108 51 186q82 125 276 149l295 37
q43 4 64 25q31 31 31 102q0 176 -250 176q-133 0 -195 -73q-37 -45 -51 -136zM786 373v176q-22 -21 -79.5 -35t-199.5 -32.5t-193.5 -61.5t-51.5 -113q0 -92 46 -140t147 -48q131 0 231 73.5t100 180.5zM762 1465h125q-18 -135 -96 -205q-80 -63 -221 -63
q-136 0 -206.5 67.5t-86.5 200.5h114q9 -17 12 -27q15 -27 29 -46q23 -27 58.5 -42t89.5 -15q92 0 137 50q26 28 45 80z" />
    <glyph glyph-name="Ccaron" unicode="&#x10c;" horiz-adv-x="1274" 
 />
    <glyph glyph-name="ccaron" unicode="&#x10d;" horiz-adv-x="922" 
 />
    <glyph glyph-name="Dslash" unicode="&#x110;" horiz-adv-x="1569" 
d="M758 844v-176h-393v-496h385q196 0 311 148.5t115 424.5q0 273 -116 415.5t-323 142.5h-372v-459h393zM61 668v176h107v626h594q285 0 451.5 -195.5t166.5 -516.5q0 -129 -28 -252q-52 -213 -168 -338q-160 -168 -430 -168h-586v668h-107z" />
    <glyph glyph-name="dcroat" unicode="&#x111;" 
d="M1024 1200v-1200h-172v147q-55 -98 -145 -143q-72 -37 -162 -37q-248 0 -373 203q-98 160 -98 399q0 234 117.5 383.5t328.5 149.5q127 0 215 -66q45 -32 105 -114l4 12v258h-258v156h258v122h180v-127h82v-143h-82zM258 541q0 -185 75 -299.5t216 -114.5q110 0 188 72
q103 94 103 288q0 185 -45 291q-70 164 -242 164q-182 0 -252 -149q-43 -93 -43 -252z" />
    <glyph glyph-name=".notdef.101" unicode="&#x128;" horiz-adv-x="602" 
d="M385 1470v-1470h-197v1470h197zM539 1880h102q-10 -96 -64.5 -160.5t-140.5 -64.5q-45 0 -118 28l-54 17q-98 33 -127 33q-39 0 -59 -21.5t-35 -69.5h-98q14 101 59 154q54 64 154 64q35 0 68.5 -7.5t70.5 -21.5l45 -21q25 -10 53.5 -17t40.5 -7q54 0 78 31q17 20 25 63z
" />
    <glyph glyph-name=".notdef.035" unicode="&#x129;" horiz-adv-x="487" 
d="M319 1073v-1073h-180v1073h180zM478 1479h102q-12 -95 -67.5 -158.5t-137.5 -63.5q-24 0 -49.5 5.5t-73.5 19.5l-53 21q-26 8 -63 18t-60 10q-39 0 -61.5 -23.5t-36.5 -66.5h-98q12 98 64 159.5t149 61.5q34 0 67 -9t72 -23l45 -17q72 -29 98 -29q54 0 78 33q16 21 25 62
z" />
    <glyph glyph-name=".notdef.085" unicode="&#x168;" horiz-adv-x="1479" 
d="M1110 1470h197v-954q0 -242 -144 -391q-157 -166 -446 -166q-281 0 -432 162q-133 143 -133 371v978h196v-925q0 -219 119 -322q96 -84 254 -84q166 0 264 80q125 103 125 322v929zM993 1880h102q-10 -96 -64.5 -160.5t-140.5 -64.5q-45 0 -118 28l-54 17q-98 33 -127 33
q-39 0 -59 -21.5t-35 -69.5h-98q14 101 59 154q54 64 154 64q35 0 68.5 -7.5t70.5 -21.5l45 -21q25 -10 53.5 -17t40.5 -7q54 0 78 31q17 20 25 63z" />
    <glyph glyph-name=".notdef.019" unicode="&#x169;" 
d="M1004 0h-173v156l-4 4q-57 -97 -137 -145t-203 -48q-139 0 -231 70q-117 88 -117 266v770h180v-713q0 -124 60 -182q51 -51 149 -51q154 0 232 119q63 96 63 237v590h181v-1073zM820 1479h102q-12 -95 -67.5 -158.5t-137.5 -63.5q-24 0 -49.5 5.5t-73.5 19.5l-53 21
q-26 8 -63 18t-60 10q-39 0 -61.5 -23.5t-36.5 -66.5h-98q12 98 64 159.5t149 61.5q34 0 67 -9t72 -23l45 -17q72 -29 98 -29q54 0 78 33q16 21 25 62z" />
    <glyph glyph-name=".notdef.077" unicode="&#x1a0;" horiz-adv-x="1573" 
d="M1233 1376q151 -108 229 -301q66 -160 66 -338q0 -297 -152 -508q-192 -270 -565 -270q-371 0 -563 268q-154 215 -154 510q0 293 152 504q194 270 565 270q102 0 189 -21.5t163 -64.5q13 2 42.5 25t39.5 33q27 24 36 53t9 66h-114v127h196v-181q0 -57 -61 -118
q-45 -39 -78 -54zM1323 737q0 264 -135 428q-141 170 -377 170q-233 0 -372.5 -168t-139.5 -430q0 -266 137 -432t375 -166q236 0 374 167t138 431z" />
    <glyph glyph-name=".notdef.011" unicode="&#x1a1;" 
d="M905 979q10 2 33 22.5t37 34.5q26 25 35.5 53.5t9.5 65.5h-115v127h197v-180q0 -58 -62 -119q-22 -20 -43.5 -39.5t-38.5 -25.5q56 -76 83.5 -176.5t27.5 -204.5q0 -228 -121 -385q-137 -181 -379 -181q-239 0 -374 179q-121 157 -121 387q0 231 119 387q135 178 376 178
q213 0 336 -123zM258 537q0 -152 57 -258q82 -152 254 -152q170 0 252 149q60 109 60 261q0 151 -58 258q-82 151 -254 151q-170 0 -252 -149q-59 -109 -59 -260z" />
    <glyph glyph-name=".notdef.083" unicode="&#x1af;" horiz-adv-x="1479" 
d="M1307 1401q12 4 31.5 15t32.5 22.5t19.5 29t6.5 31.5v49h-115v127h197v-180q0 -57 -62 -119q-22 -20 -55 -37q-10 -4 -55 -24v-799q0 -242 -144 -391q-157 -166 -446 -166q-281 0 -432 162q-133 143 -133 371v978h196v-925q0 -219 119 -322q96 -84 254 -84q166 0 264 80
q125 103 125 322v929h197v-69z" />
    <glyph glyph-name=".notdef.017" unicode="&#x1b0;" 
d="M1004 1004q12 4 30 20q10 12 15 16q26 25 33.5 53.5t7.5 69.5h-115v127h196v-180q0 -57 -61 -119q-53 -47 -106 -69v-922h-173v156l-4 4q-57 -97 -137 -145t-203 -48q-139 0 -231 70q-117 88 -117 266v770h180v-713q0 -124 60 -182q51 -51 149 -51q154 0 232 119
q63 96 63 237v590h181v-69z" />
    <glyph glyph-name=".notdef.110" unicode="&#x1ea0;" horiz-adv-x="1454" 
d="M979 430h-590l-156 -430h-204l553 1470h225l532 -1470h-217zM451 606h454l-217 647zM775 -324h-180v205h180v-205z" />
    <glyph glyph-name=".notdef.062" unicode="&#x1ea1;" horiz-adv-x="1176" 
d="M295 745h-168q0 185 123 275q112 82 319 82q131 0 230 -45q168 -76 168 -254v-615q0 -65 61 -65l57 8v-131q-22 -6 -47.5 -13t-50.5 -7q-108 0 -153 51q-35 39 -35 112q-72 -75 -142 -114q-110 -62 -247 -62q-148 0 -242 86t-94 226q0 108 51 186q82 125 276 149l295 37
q43 4 64 25q31 31 31 102q0 176 -250 176q-133 0 -195 -73q-37 -45 -51 -136zM786 373v176q-22 -21 -79.5 -35t-199.5 -32.5t-193.5 -61.5t-51.5 -113q0 -92 46 -140t147 -48q131 0 231 73.5t100 180.5zM645 -324h-180v205h180v-205z" />
    <glyph glyph-name=".notdef.108" unicode="&#x1ea2;" horiz-adv-x="1454" 
d="M979 430h-590l-156 -430h-204l553 1470h225l532 -1470h-217zM451 606h454l-217 647zM758 1570h-117q-1 62 15.5 108t75 87t58.5 93q0 49 -27 70.5t-62 21.5q-55 0 -76.5 -31t-21.5 -76l-131 -2q0 111 72 168q61 49 149 49q78 0 138 -30q98 -52 98 -166q0 -54 -25.5 -90.5
t-86 -79.5t-59.5 -122z" />
    <glyph glyph-name=".notdef.064" unicode="&#x1ea3;" horiz-adv-x="1176" 
d="M295 745h-168q0 185 123 275q112 82 319 82q131 0 230 -45q168 -76 168 -254v-615q0 -65 61 -65l57 8v-131q-22 -6 -47.5 -13t-50.5 -7q-108 0 -153 51q-35 39 -35 112q-72 -75 -142 -114q-110 -62 -247 -62q-148 0 -242 86t-94 226q0 108 51 186q82 125 276 149l295 37
q43 4 64 25q31 31 31 102q0 176 -250 176q-133 0 -195 -73q-37 -45 -51 -136zM786 373v176q-22 -21 -79.5 -35t-199.5 -32.5t-193.5 -61.5t-51.5 -113q0 -92 46 -140t147 -48q131 0 231 73.5t100 180.5zM633 1198h-117q-1 62 15.5 108t75 87t58.5 93q0 49 -27 70.5t-62 21.5
q-55 0 -76.5 -31t-21.5 -76l-131 -2q0 111 72 168q61 49 149 49q78 0 138 -30q98 -52 98 -166q0 -54 -25.5 -90.5t-86 -79.5t-59.5 -122z" />
    <glyph glyph-name=".notdef.113" unicode="&#x1ea4;" horiz-adv-x="1454" 
d="M979 430h-590l-156 -430h-204l553 1470h225l532 -1470h-217zM451 606h454l-217 647zM698 1810l-135 -192h-164l205 291h188l205 -291h-164zM1332 2142l-266 -291h-135l180 291h221z" />
    <glyph glyph-name=".notdef.059" unicode="&#x1ea5;" horiz-adv-x="1176" 
d="M295 745h-168q0 185 123 275q112 82 319 82q131 0 230 -45q168 -76 168 -254v-615q0 -65 61 -65l57 8v-131q-22 -6 -47.5 -13t-50.5 -7q-108 0 -153 51q-35 39 -35 112q-72 -75 -142 -114q-110 -62 -247 -62q-148 0 -242 86t-94 226q0 108 51 186q82 125 276 149l295 37
q43 4 64 25q31 31 31 102q0 176 -250 176q-133 0 -195 -73q-37 -45 -51 -136zM786 373v176q-22 -21 -79.5 -35t-199.5 -32.5t-193.5 -61.5t-51.5 -113q0 -92 46 -140t147 -48q131 0 231 73.5t100 180.5zM578 1384l-135 -188h-160l201 287h193l200 -287h-164zM1213 1720
l-266 -291h-135l180 291h221z" />
    <glyph glyph-name=".notdef.112" unicode="&#x1ea6;" horiz-adv-x="1454" 
d="M979 430h-590l-156 -430h-204l553 1470h225l532 -1470h-217zM451 606h454l-217 647zM698 1810l-135 -192h-164l205 291h188l205 -291h-164zM1000 1850l-266 291h221l180 -291h-135z" />
    <glyph glyph-name=".notdef.060" unicode="&#x1ea7;" horiz-adv-x="1176" 
d="M295 745h-168q0 185 123 275q112 82 319 82q131 0 230 -45q168 -76 168 -254v-615q0 -65 61 -65l57 8v-131q-22 -6 -47.5 -13t-50.5 -7q-108 0 -153 51q-35 39 -35 112q-72 -75 -142 -114q-110 -62 -247 -62q-148 0 -242 86t-94 226q0 108 51 186q82 125 276 149l295 37
q43 4 64 25q31 31 31 102q0 176 -250 176q-133 0 -195 -73q-37 -45 -51 -136zM786 373v176q-22 -21 -79.5 -35t-199.5 -32.5t-193.5 -61.5t-51.5 -113q0 -92 46 -140t147 -48q131 0 231 73.5t100 180.5zM578 1384l-135 -188h-160l201 287h193l200 -287h-164zM881 1428
l-266 291h221l180 -291h-135z" />
    <glyph glyph-name=".notdef.114" unicode="&#x1ea8;" horiz-adv-x="1454" 
d="M979 430h-590l-156 -430h-204l553 1470h225l532 -1470h-217zM451 606h454l-217 647zM698 1810l-135 -192h-164l205 291h188l205 -291h-164zM1081 1814h-117q-1 62 15.5 108t75 87t58.5 93q0 49 -27 70.5t-62 21.5q-55 0 -76.5 -31t-21.5 -76l-131 -2q0 111 72 168
q61 49 149 49q78 0 138 -30q98 -52 98 -166q0 -54 -25.5 -90.5t-86 -79.5t-59.5 -122z" />
    <glyph glyph-name=".notdef.058" unicode="&#x1ea9;" horiz-adv-x="1176" 
d="M295 745h-168q0 185 123 275q112 82 319 82q131 0 230 -45q168 -76 168 -254v-615q0 -65 61 -65l57 8v-131q-22 -6 -47.5 -13t-50.5 -7q-108 0 -153 51q-35 39 -35 112q-72 -75 -142 -114q-110 -62 -247 -62q-148 0 -242 86t-94 226q0 108 51 186q82 125 276 149l295 37
q43 4 64 25q31 31 31 102q0 176 -250 176q-133 0 -195 -73q-37 -45 -51 -136zM786 373v176q-22 -21 -79.5 -35t-199.5 -32.5t-193.5 -61.5t-51.5 -113q0 -92 46 -140t147 -48q131 0 231 73.5t100 180.5zM578 1384l-135 -188h-160l201 287h193l200 -287h-164zM963 1392h-117
q-1 62 15.5 108t75 87t58.5 93q0 49 -27 70.5t-62 21.5q-55 0 -76.5 -31t-21.5 -76l-131 -2q0 111 72 168q61 49 149 49q78 0 138 -30q98 -52 98 -166q0 -54 -25.5 -90.5t-86 -79.5t-59.5 -122z" />
    <glyph glyph-name=".notdef.115" unicode="&#x1eaa;" horiz-adv-x="1454" 
d="M979 430h-590l-156 -430h-204l553 1470h225l532 -1470h-217zM451 606h454l-217 647zM698 1810l-135 -192h-164l205 291h188l205 -291h-164zM956 2232h102q-10 -96 -64.5 -160.5t-140.5 -64.5q-45 0 -118 28l-54 17q-98 33 -127 33q-39 0 -59 -21.5t-35 -69.5h-98
q14 101 59 154q54 64 154 64q35 0 68.5 -7.5t70.5 -21.5l45 -21q25 -10 53.5 -17t40.5 -7q54 0 78 31q17 20 25 63z" />
    <glyph glyph-name=".notdef.057" unicode="&#x1eab;" horiz-adv-x="1176" 
d="M295 745h-168q0 185 123 275q112 82 319 82q131 0 230 -45q168 -76 168 -254v-615q0 -65 61 -65l57 8v-131q-22 -6 -47.5 -13t-50.5 -7q-108 0 -153 51q-35 39 -35 112q-72 -75 -142 -114q-110 -62 -247 -62q-148 0 -242 86t-94 226q0 108 51 186q82 125 276 149l295 37
q43 4 64 25q31 31 31 102q0 176 -250 176q-133 0 -195 -73q-37 -45 -51 -136zM786 373v176q-22 -21 -79.5 -35t-199.5 -32.5t-193.5 -61.5t-51.5 -113q0 -92 46 -140t147 -48q131 0 231 73.5t100 180.5zM578 1384l-135 -188h-160l201 287h193l200 -287h-164zM836 1810h102
q-10 -96 -64.5 -160.5t-140.5 -64.5q-45 0 -118 28l-54 17q-98 33 -127 33q-39 0 -59 -21.5t-35 -69.5h-98q14 101 59 154q54 64 154 64q35 0 68.5 -7.5t70.5 -21.5l45 -21q25 -10 53.5 -17t40.5 -7q54 0 78 31q17 20 25 63z" />
    <glyph glyph-name=".notdef.116" unicode="&#x1eac;" horiz-adv-x="1454" 
d="M979 430h-590l-156 -430h-204l553 1470h225l532 -1470h-217zM451 606h454l-217 647zM698 1810l-135 -192h-164l205 291h188l205 -291h-164zM775 -324h-180v205h180v-205z" />
    <glyph glyph-name=".notdef.056" unicode="&#x1ead;" horiz-adv-x="1176" 
d="M295 745h-168q0 185 123 275q112 82 319 82q131 0 230 -45q168 -76 168 -254v-615q0 -65 61 -65l57 8v-131q-22 -6 -47.5 -13t-50.5 -7q-108 0 -153 51q-35 39 -35 112q-72 -75 -142 -114q-110 -62 -247 -62q-148 0 -242 86t-94 226q0 108 51 186q82 125 276 149l295 37
q43 4 64 25q31 31 31 102q0 176 -250 176q-133 0 -195 -73q-37 -45 -51 -136zM786 373v176q-22 -21 -79.5 -35t-199.5 -32.5t-193.5 -61.5t-51.5 -113q0 -92 46 -140t147 -48q131 0 231 73.5t100 180.5zM578 1384l-135 -188h-160l201 287h193l200 -287h-164zM645 -324h-180
v205h180v-205z" />
    <glyph glyph-name=".notdef.119" unicode="&#x1eae;" horiz-adv-x="1454" 
d="M979 430h-590l-156 -430h-204l553 1470h225l532 -1470h-217zM451 606h454l-217 647zM888 1829h125q-18 -135 -96 -205q-80 -63 -221 -63q-136 0 -206.5 67.5t-86.5 200.5h114q9 -17 12 -27q15 -27 29 -46q23 -27 58.5 -42t89.5 -15q92 0 137 50q26 28 45 80zM969 2182
l-266 -291h-135l180 291h221z" />
    <glyph glyph-name=".notdef.053" unicode="&#x1eaf;" horiz-adv-x="1176" 
d="M295 745h-168q0 185 123 275q112 82 319 82q131 0 230 -45q168 -76 168 -254v-615q0 -65 61 -65l57 8v-131q-22 -6 -47.5 -13t-50.5 -7q-108 0 -153 51q-35 39 -35 112q-72 -75 -142 -114q-110 -62 -247 -62q-148 0 -242 86t-94 226q0 108 51 186q82 125 276 149l295 37
q43 4 64 25q31 31 31 102q0 176 -250 176q-133 0 -195 -73q-37 -45 -51 -136zM786 373v176q-22 -21 -79.5 -35t-199.5 -32.5t-193.5 -61.5t-51.5 -113q0 -92 46 -140t147 -48q131 0 231 73.5t100 180.5zM762 1465h125q-18 -135 -96 -205q-80 -63 -221 -63
q-136 0 -206.5 67.5t-86.5 200.5h114q9 -17 12 -27q15 -27 29 -46q23 -27 58.5 -42t89.5 -15q92 0 137 50q26 28 45 80zM842 1818l-266 -291h-135l180 291h221z" />
    <glyph glyph-name=".notdef.118" unicode="&#x1eb0;" horiz-adv-x="1454" 
d="M979 430h-590l-156 -430h-204l553 1470h225l532 -1470h-217zM451 606h454l-217 647zM888 1829h125q-18 -135 -96 -205q-80 -63 -221 -63q-136 0 -206.5 67.5t-86.5 200.5h114q9 -17 12 -27q15 -27 29 -46q23 -27 58.5 -42t89.5 -15q92 0 137 50q26 28 45 80zM694 1890
l-266 291h221l180 -291h-135z" />
    <glyph glyph-name=".notdef.054" unicode="&#x1eb1;" horiz-adv-x="1176" 
d="M295 745h-168q0 185 123 275q112 82 319 82q131 0 230 -45q168 -76 168 -254v-615q0 -65 61 -65l57 8v-131q-22 -6 -47.5 -13t-50.5 -7q-108 0 -153 51q-35 39 -35 112q-72 -75 -142 -114q-110 -62 -247 -62q-148 0 -242 86t-94 226q0 108 51 186q82 125 276 149l295 37
q43 4 64 25q31 31 31 102q0 176 -250 176q-133 0 -195 -73q-37 -45 -51 -136zM786 373v176q-22 -21 -79.5 -35t-199.5 -32.5t-193.5 -61.5t-51.5 -113q0 -92 46 -140t147 -48q131 0 231 73.5t100 180.5zM762 1465h125q-18 -135 -96 -205q-80 -63 -221 -63
q-136 0 -206.5 67.5t-86.5 200.5h114q9 -17 12 -27q15 -27 29 -46q23 -27 58.5 -42t89.5 -15q92 0 137 50q26 28 45 80zM568 1527l-266 291h221l180 -291h-135z" />
    <glyph glyph-name=".notdef.120" unicode="&#x1eb2;" horiz-adv-x="1454" 
d="M979 430h-590l-156 -430h-204l553 1470h225l532 -1470h-217zM451 606h454l-217 647zM888 1829h125q-18 -135 -96 -205q-80 -63 -221 -63q-136 0 -206.5 67.5t-86.5 200.5h114q9 -17 12 -27q15 -27 29 -46q23 -27 58.5 -42t89.5 -15q92 0 137 50q26 28 45 80zM763 1817
h-117q-1 62 15.5 108t75 87t58.5 93q0 49 -27 70.5t-62 21.5q-55 0 -76.5 -31t-21.5 -76l-131 -2q0 111 72 168q61 49 149 49q78 0 138 -30q98 -52 98 -166q0 -54 -25.5 -90.5t-86 -79.5t-59.5 -122z" />
    <glyph glyph-name=".notdef.052" unicode="&#x1eb3;" horiz-adv-x="1176" 
d="M295 745h-168q0 185 123 275q112 82 319 82q131 0 230 -45q168 -76 168 -254v-615q0 -65 61 -65l57 8v-131q-22 -6 -47.5 -13t-50.5 -7q-108 0 -153 51q-35 39 -35 112q-72 -75 -142 -114q-110 -62 -247 -62q-148 0 -242 86t-94 226q0 108 51 186q82 125 276 149l295 37
q43 4 64 25q31 31 31 102q0 176 -250 176q-133 0 -195 -73q-37 -45 -51 -136zM786 373v176q-22 -21 -79.5 -35t-199.5 -32.5t-193.5 -61.5t-51.5 -113q0 -92 46 -140t147 -48q131 0 231 73.5t100 180.5zM762 1465h125q-18 -135 -96 -205q-80 -63 -221 -63
q-136 0 -206.5 67.5t-86.5 200.5h114q9 -17 12 -27q15 -27 29 -46q23 -27 58.5 -42t89.5 -15q92 0 137 50q26 28 45 80zM637 1453h-117q-1 62 15.5 108t75 87t58.5 93q0 49 -27 70.5t-62 21.5q-55 0 -76.5 -31t-21.5 -76l-131 -2q0 111 72 168q61 49 149 49q78 0 138 -30
q98 -52 98 -166q0 -54 -25.5 -90.5t-86 -79.5t-59.5 -122z" />
    <glyph glyph-name=".notdef.121" unicode="&#x1eb4;" horiz-adv-x="1454" 
d="M979 430h-590l-156 -430h-204l553 1470h225l532 -1470h-217zM451 606h454l-217 647zM888 1829h125q-18 -135 -96 -205q-80 -63 -221 -63q-136 0 -206.5 67.5t-86.5 200.5h114q9 -17 12 -27q15 -27 29 -46q23 -27 58.5 -42t89.5 -15q92 0 137 50q26 28 45 80zM951 2143
h102q-10 -96 -64.5 -160.5t-140.5 -64.5q-45 0 -118 28l-54 17q-98 33 -127 33q-39 0 -59 -21.5t-35 -69.5h-98q14 101 59 154q54 64 154 64q35 0 68.5 -7.5t70.5 -21.5l45 -21q25 -10 53.5 -17t40.5 -7q54 0 78 31q17 20 25 63z" />
    <glyph glyph-name=".notdef.051" unicode="&#x1eb5;" horiz-adv-x="1176" 
d="M295 745h-168q0 185 123 275q112 82 319 82q131 0 230 -45q168 -76 168 -254v-615q0 -65 61 -65l57 8v-131q-22 -6 -47.5 -13t-50.5 -7q-108 0 -153 51q-35 39 -35 112q-72 -75 -142 -114q-110 -62 -247 -62q-148 0 -242 86t-94 226q0 108 51 186q82 125 276 149l295 37
q43 4 64 25q31 31 31 102q0 176 -250 176q-133 0 -195 -73q-37 -45 -51 -136zM786 373v176q-22 -21 -79.5 -35t-199.5 -32.5t-193.5 -61.5t-51.5 -113q0 -92 46 -140t147 -48q131 0 231 73.5t100 180.5zM762 1465h125q-18 -135 -96 -205q-80 -63 -221 -63
q-136 0 -206.5 67.5t-86.5 200.5h114q9 -17 12 -27q15 -27 29 -46q23 -27 58.5 -42t89.5 -15q92 0 137 50q26 28 45 80zM824 1779h102q-10 -96 -64.5 -160.5t-140.5 -64.5q-45 0 -118 28l-54 17q-98 33 -127 33q-39 0 -59 -21.5t-35 -69.5h-98q14 101 59 154q54 64 154 64
q35 0 68.5 -7.5t70.5 -21.5l45 -21q25 -10 53.5 -17t40.5 -7q54 0 78 31q17 20 25 63z" />
    <glyph glyph-name=".notdef.122" unicode="&#x1eb6;" horiz-adv-x="1454" 
d="M979 430h-590l-156 -430h-204l553 1470h225l532 -1470h-217zM451 606h454l-217 647zM888 1829h125q-18 -135 -96 -205q-80 -63 -221 -63q-136 0 -206.5 67.5t-86.5 200.5h114q9 -17 12 -27q15 -27 29 -46q23 -27 58.5 -42t89.5 -15q92 0 137 50q26 28 45 80zM775 -324
h-180v205h180v-205z" />
    <glyph glyph-name=".notdef.050" unicode="&#x1eb7;" horiz-adv-x="1176" 
d="M295 745h-168q0 185 123 275q112 82 319 82q131 0 230 -45q168 -76 168 -254v-615q0 -65 61 -65l57 8v-131q-22 -6 -47.5 -13t-50.5 -7q-108 0 -153 51q-35 39 -35 112q-72 -75 -142 -114q-110 -62 -247 -62q-148 0 -242 86t-94 226q0 108 51 186q82 125 276 149l295 37
q43 4 64 25q31 31 31 102q0 176 -250 176q-133 0 -195 -73q-37 -45 -51 -136zM786 373v176q-22 -21 -79.5 -35t-199.5 -32.5t-193.5 -61.5t-51.5 -113q0 -92 46 -140t147 -48q131 0 231 73.5t100 180.5zM762 1465h125q-18 -135 -96 -205q-80 -63 -221 -63
q-136 0 -206.5 67.5t-86.5 200.5h114q9 -17 12 -27q15 -27 29 -46q23 -27 58.5 -42t89.5 -15q92 0 137 50q26 28 45 80zM645 -324h-180v205h180v-205z" />
    <glyph glyph-name=".notdef.127" unicode="&#x1eb8;" horiz-adv-x="1454" 
d="M1262 176v-176h-1086v1470h1073v-176h-872v-450h803v-176h-803v-492h885zM815 -324h-180v205h180v-205z" />
    <glyph glyph-name=".notdef.045" unicode="&#x1eb9;" 
d="M864 336h180q-10 -62 -47 -129q-55 -103 -145 -162q-55 -37 -98 -51q-78 -27 -193 -27q-221 0 -350 150.5t-129 390.5q0 266 123 422q135 172 393 172q225 0 342 -167t117 -456h-783q0 -170 79 -261t233 -91q119 0 200 74q70 63 78 135zM274 623h598q0 137 -67 221
q-78 98 -232 98q-122 0 -210.5 -96t-88.5 -223zM668 -324h-180v205h180v-205z" />
    <glyph glyph-name=".notdef.125" unicode="&#x1eba;" horiz-adv-x="1454" 
d="M1262 176v-176h-1086v1470h1073v-176h-872v-450h803v-176h-803v-492h885zM758 1570h-117q-1 62 15.5 108t75 87t58.5 93q0 49 -27 70.5t-62 21.5q-55 0 -76.5 -31t-21.5 -76l-131 -2q0 111 72 168q61 49 149 49q78 0 138 -30q98 -52 98 -166q0 -54 -25.5 -90.5t-86 -79.5
t-59.5 -122z" />
    <glyph glyph-name=".notdef.047" unicode="&#x1ebb;" 
d="M864 336h180q-10 -62 -47 -129q-55 -103 -145 -162q-55 -37 -98 -51q-78 -27 -193 -27q-221 0 -350 150.5t-129 390.5q0 266 123 422q135 172 393 172q225 0 342 -167t117 -456h-783q0 -170 79 -261t233 -91q119 0 200 74q70 63 78 135zM274 623h598q0 137 -67 221
q-78 98 -232 98q-122 0 -210.5 -96t-88.5 -223zM659 1196h-117q-1 62 15.5 108t75 87t58.5 93q0 49 -27 70.5t-62 21.5q-55 0 -76.5 -31t-21.5 -76l-131 -2q0 111 72 168q61 49 149 49q78 0 138 -30q98 -52 98 -166q0 -54 -25.5 -90.5t-86 -79.5t-59.5 -122z" />
    <glyph glyph-name=".notdef.126" unicode="&#x1ebc;" horiz-adv-x="1454" 
d="M1262 176v-176h-1086v1470h1073v-176h-872v-450h803v-176h-803v-492h885zM943 1880h102q-10 -96 -64.5 -160.5t-140.5 -64.5q-45 0 -118 28l-54 17q-98 33 -127 33q-39 0 -59 -21.5t-35 -69.5h-98q14 101 59 154q54 64 154 64q35 0 68.5 -7.5t70.5 -21.5l45 -21
q25 -10 53.5 -17t40.5 -7q54 0 78 31q17 20 25 63z" />
    <glyph glyph-name=".notdef.046" unicode="&#x1ebd;" 
d="M864 336h180q-10 -62 -47 -129q-55 -103 -145 -162q-55 -37 -98 -51q-78 -27 -193 -27q-221 0 -350 150.5t-129 390.5q0 266 123 422q135 172 393 172q225 0 342 -167t117 -456h-783q0 -170 79 -261t233 -91q119 0 200 74q70 63 78 135zM274 623h598q0 137 -67 221
q-78 98 -232 98q-122 0 -210.5 -96t-88.5 -223zM850 1479h102q-12 -95 -67.5 -158.5t-137.5 -63.5q-24 0 -49.5 5.5t-73.5 19.5l-53 21q-26 8 -63 18t-60 10q-39 0 -61.5 -23.5t-36.5 -66.5h-98q12 98 64 159.5t149 61.5q34 0 67 -9t72 -23l45 -17q72 -29 98 -29q54 0 78 33
q16 21 25 62z" />
    <glyph glyph-name=".notdef.130" unicode="&#x1ebe;" horiz-adv-x="1454" 
d="M1262 176v-176h-1086v1470h1073v-176h-872v-450h803v-176h-803v-492h885zM717 1810l-135 -192h-164l205 291h188l205 -291h-164zM1351 2142l-266 -291h-135l180 291h221z" />
    <glyph glyph-name=".notdef.042" unicode="&#x1ebf;" 
d="M864 336h180q-10 -62 -47 -129q-55 -103 -145 -162q-55 -37 -98 -51q-78 -27 -193 -27q-221 0 -350 150.5t-129 390.5q0 266 123 422q135 172 393 172q225 0 342 -167t117 -456h-783q0 -170 79 -261t233 -91q119 0 200 74q70 63 78 135zM274 623h598q0 137 -67 221
q-78 98 -232 98q-122 0 -210.5 -96t-88.5 -223zM578 1384l-135 -188h-160l201 287h193l200 -287h-164zM1213 1720l-266 -291h-135l180 291h221z" />
    <glyph glyph-name=".notdef.129" unicode="&#x1ec0;" horiz-adv-x="1454" 
d="M1262 176v-176h-1086v1470h1073v-176h-872v-450h803v-176h-803v-492h885zM717 1810l-135 -192h-164l205 291h188l205 -291h-164zM1019 1850l-266 291h221l180 -291h-135z" />
    <glyph glyph-name=".notdef.043" unicode="&#x1ec1;" 
d="M864 336h180q-10 -62 -47 -129q-55 -103 -145 -162q-55 -37 -98 -51q-78 -27 -193 -27q-221 0 -350 150.5t-129 390.5q0 266 123 422q135 172 393 172q225 0 342 -167t117 -456h-783q0 -170 79 -261t233 -91q119 0 200 74q70 63 78 135zM274 623h598q0 137 -67 221
q-78 98 -232 98q-122 0 -210.5 -96t-88.5 -223zM578 1384l-135 -188h-160l201 287h193l200 -287h-164zM881 1428l-266 291h221l180 -291h-135z" />
    <glyph glyph-name=".notdef.131" unicode="&#x1ec2;" horiz-adv-x="1454" 
d="M1262 176v-176h-1086v1470h1073v-176h-872v-450h803v-176h-803v-492h885zM717 1810l-135 -192h-164l205 291h188l205 -291h-164zM1100 1814h-117q-1 62 15.5 108t75 87t58.5 93q0 49 -27 70.5t-62 21.5q-55 0 -76.5 -31t-21.5 -76l-131 -2q0 111 72 168q61 49 149 49
q78 0 138 -30q98 -52 98 -166q0 -54 -25.5 -90.5t-86 -79.5t-59.5 -122z" />
    <glyph glyph-name=".notdef.041" unicode="&#x1ec3;" 
d="M864 336h180q-10 -62 -47 -129q-55 -103 -145 -162q-55 -37 -98 -51q-78 -27 -193 -27q-221 0 -350 150.5t-129 390.5q0 266 123 422q135 172 393 172q225 0 342 -167t117 -456h-783q0 -170 79 -261t233 -91q119 0 200 74q70 63 78 135zM274 623h598q0 137 -67 221
q-78 98 -232 98q-122 0 -210.5 -96t-88.5 -223zM578 1384l-135 -188h-160l201 287h193l200 -287h-164zM963 1392h-117q-1 62 15.5 108t75 87t58.5 93q0 49 -27 70.5t-62 21.5q-55 0 -76.5 -31t-21.5 -76l-131 -2q0 111 72 168q61 49 149 49q78 0 138 -30q98 -52 98 -166
q0 -54 -25.5 -90.5t-86 -79.5t-59.5 -122z" />
    <glyph glyph-name=".notdef.132" unicode="&#x1ec4;" horiz-adv-x="1454" 
d="M1262 176v-176h-1086v1470h1073v-176h-872v-450h803v-176h-803v-492h885zM717 1810l-135 -192h-164l205 291h188l205 -291h-164zM975 2232h102q-10 -96 -64.5 -160.5t-140.5 -64.5q-45 0 -118 28l-54 17q-98 33 -127 33q-39 0 -59 -21.5t-35 -69.5h-98q14 101 59 154
q54 64 154 64q35 0 68.5 -7.5t70.5 -21.5l45 -21q25 -10 53.5 -17t40.5 -7q54 0 78 31q17 20 25 63z" />
    <glyph glyph-name=".notdef.040" unicode="&#x1ec5;" 
d="M864 336h180q-10 -62 -47 -129q-55 -103 -145 -162q-55 -37 -98 -51q-78 -27 -193 -27q-221 0 -350 150.5t-129 390.5q0 266 123 422q135 172 393 172q225 0 342 -167t117 -456h-783q0 -170 79 -261t233 -91q119 0 200 74q70 63 78 135zM274 623h598q0 137 -67 221
q-78 98 -232 98q-122 0 -210.5 -96t-88.5 -223zM578 1384l-135 -188h-160l201 287h193l200 -287h-164zM836 1810h102q-10 -96 -64.5 -160.5t-140.5 -64.5q-45 0 -118 28l-54 17q-98 33 -127 33q-39 0 -59 -21.5t-35 -69.5h-98q14 101 59 154q54 64 154 64q35 0 68.5 -7.5
t70.5 -21.5l45 -21q25 -10 53.5 -17t40.5 -7q54 0 78 31q17 20 25 63z" />
    <glyph glyph-name=".notdef.105" unicode="&#x1ec6;" horiz-adv-x="1454" 
d="M1262 176v-176h-1086v1470h1073v-176h-872v-450h803v-176h-803v-492h885zM717 1810l-135 -192h-164l205 291h188l205 -291h-164zM815 -324h-180v205h180v-205z" />
    <glyph glyph-name=".notdef.039" unicode="&#x1ec7;" 
d="M864 336h180q-10 -62 -47 -129q-55 -103 -145 -162q-55 -37 -98 -51q-78 -27 -193 -27q-221 0 -350 150.5t-129 390.5q0 266 123 422q135 172 393 172q225 0 342 -167t117 -456h-783q0 -170 79 -261t233 -91q119 0 200 74q70 63 78 135zM274 623h598q0 137 -67 221
q-78 98 -232 98q-122 0 -210.5 -96t-88.5 -223zM578 1384l-135 -188h-160l201 287h193l200 -287h-164zM668 -324h-180v205h180v-205z" />
    <glyph glyph-name=".notdef.102" unicode="&#x1ec8;" horiz-adv-x="602" 
d="M385 1470v-1470h-197v1470h197zM346 1570h-117q-1 62 15.5 108t75 87t58.5 93q0 49 -27 70.5t-62 21.5q-55 0 -76.5 -31t-21.5 -76l-131 -2q0 111 72 168q61 49 149 49q78 0 138 -30q98 -52 98 -166q0 -54 -25.5 -90.5t-86 -79.5t-59.5 -122z" />
    <glyph glyph-name=".notdef.036" unicode="&#x1ec9;" horiz-adv-x="487" 
d="M319 1073v-1073h-180v1073h180zM291 1196h-117q-1 62 15.5 108t75 87t58.5 93q0 49 -27 70.5t-62 21.5q-55 0 -76.5 -31t-21.5 -76l-131 -2q0 111 72 168q61 49 149 49q78 0 138 -30q98 -52 98 -166q0 -54 -25.5 -90.5t-86 -79.5t-59.5 -122z" />
    <glyph glyph-name=".notdef.100" unicode="&#x1eca;" horiz-adv-x="602" 
d="M385 1470v-1470h-197v1470h197zM380 -324h-180v205h180v-205z" />
    <glyph glyph-name=".notdef.034" unicode="&#x1ecb;" horiz-adv-x="487" 
d="M319 1073v-1073h-180v1073h180zM319 1266h-180v204h180v-204zM320 -324h-180v205h180v-205z" />
    <glyph glyph-name=".notdef.095" unicode="&#x1ecc;" horiz-adv-x="1573" 
d="M1323 737q0 264 -135 428q-141 170 -377 170q-233 0 -372.5 -168t-139.5 -430q0 -266 137 -432t375 -166q236 0 374 167t138 431zM1528 737q0 -297 -152 -508q-192 -270 -565 -270q-371 0 -563 268q-154 215 -154 510q0 293 152 504q194 270 565 270t563 -268
q154 -213 154 -506zM900 -324h-180v205h180v-205z" />
    <glyph glyph-name=".notdef.029" unicode="&#x1ecd;" horiz-adv-x="1180" 
d="M74 537q0 231 119 387q135 178 376 178q242 0 379 -178q121 -158 121 -387q0 -228 -121 -385q-137 -181 -379 -181q-239 0 -374 179q-121 157 -121 387zM258 537q0 -152 57 -258q82 -152 254 -152q170 0 252 149q60 109 60 261q0 151 -58 258q-82 151 -254 151
q-170 0 -252 -149q-59 -109 -59 -260zM660 -324h-180v205h180v-205z" />
    <glyph glyph-name=".notdef.097" unicode="&#x1ece;" horiz-adv-x="1573" 
d="M1323 737q0 264 -135 428q-141 170 -377 170q-233 0 -372.5 -168t-139.5 -430q0 -266 137 -432t375 -166q236 0 374 167t138 431zM1528 737q0 -297 -152 -508q-192 -270 -565 -270q-371 0 -563 268q-154 215 -154 510q0 293 152 504q194 270 565 270t563 -268
q154 -213 154 -506zM871 1570h-117q-1 62 15.5 108t75 87t58.5 93q0 49 -27 70.5t-62 21.5q-55 0 -76.5 -31t-21.5 -76l-131 -2q0 111 72 168q61 49 149 49q78 0 138 -30q98 -52 98 -166q0 -54 -25.5 -90.5t-86 -79.5t-59.5 -122z" />
    <glyph glyph-name=".notdef.031" unicode="&#x1ecf;" horiz-adv-x="1180" 
d="M74 537q0 231 119 387q135 178 376 178q242 0 379 -178q121 -158 121 -387q0 -228 -121 -385q-137 -181 -379 -181q-239 0 -374 179q-121 157 -121 387zM258 537q0 -152 57 -258q82 -152 254 -152q170 0 252 149q60 109 60 261q0 151 -58 258q-82 151 -254 151
q-170 0 -252 -149q-59 -109 -59 -260zM629 1196h-117q-1 62 15.5 108t75 87t58.5 93q0 49 -27 70.5t-62 21.5q-55 0 -76.5 -31t-21.5 -76l-131 -2q0 111 72 168q61 49 149 49q78 0 138 -30q98 -52 98 -166q0 -54 -25.5 -90.5t-86 -79.5t-59.5 -122z" />
    <glyph glyph-name=".notdef.092" unicode="&#x1ed0;" horiz-adv-x="1573" 
d="M1323 737q0 264 -135 428q-141 170 -377 170q-233 0 -372.5 -168t-139.5 -430q0 -266 137 -432t375 -166q236 0 374 167t138 431zM1528 737q0 -297 -152 -508q-192 -270 -565 -270q-371 0 -563 268q-154 215 -154 510q0 293 152 504q194 270 565 270t563 -268
q154 -213 154 -506zM811 1810l-135 -192h-164l205 291h188l205 -291h-164zM1445 2142l-266 -291h-135l180 291h221z" />
    <glyph glyph-name=".notdef.026" unicode="&#x1ed1;" horiz-adv-x="1180" 
d="M74 537q0 231 119 387q135 178 376 178q242 0 379 -178q121 -158 121 -387q0 -228 -121 -385q-137 -181 -379 -181q-239 0 -374 179q-121 157 -121 387zM258 537q0 -152 57 -258q82 -152 254 -152q170 0 252 149q60 109 60 261q0 151 -58 258q-82 151 -254 151
q-170 0 -252 -149q-59 -109 -59 -260zM567 1384l-135 -188h-160l201 287h193l200 -287h-164zM1202 1720l-266 -291h-135l180 291h221z" />
    <glyph glyph-name=".notdef.093" unicode="&#x1ed2;" horiz-adv-x="1573" 
d="M1323 737q0 264 -135 428q-141 170 -377 170q-233 0 -372.5 -168t-139.5 -430q0 -266 137 -432t375 -166q236 0 374 167t138 431zM1528 737q0 -297 -152 -508q-192 -270 -565 -270q-371 0 -563 268q-154 215 -154 510q0 293 152 504q194 270 565 270t563 -268
q154 -213 154 -506zM811 1810l-135 -192h-164l205 291h188l205 -291h-164zM1113 1850l-266 291h221l180 -291h-135z" />
    <glyph glyph-name=".notdef.027" unicode="&#x1ed3;" horiz-adv-x="1180" 
d="M74 537q0 231 119 387q135 178 376 178q242 0 379 -178q121 -158 121 -387q0 -228 -121 -385q-137 -181 -379 -181q-239 0 -374 179q-121 157 -121 387zM258 537q0 -152 57 -258q82 -152 254 -152q170 0 252 149q60 109 60 261q0 151 -58 258q-82 151 -254 151
q-170 0 -252 -149q-59 -109 -59 -260zM567 1384l-135 -188h-160l201 287h193l200 -287h-164zM870 1428l-266 291h221l180 -291h-135z" />
    <glyph glyph-name=".notdef.091" unicode="&#x1ed4;" horiz-adv-x="1573" 
d="M1323 737q0 264 -135 428q-141 170 -377 170q-233 0 -372.5 -168t-139.5 -430q0 -266 137 -432t375 -166q236 0 374 167t138 431zM1528 737q0 -297 -152 -508q-192 -270 -565 -270q-371 0 -563 268q-154 215 -154 510q0 293 152 504q194 270 565 270t563 -268
q154 -213 154 -506zM811 1810l-135 -192h-164l205 291h188l205 -291h-164zM1194 1814h-117q-1 62 15.5 108t75 87t58.5 93q0 49 -27 70.5t-62 21.5q-55 0 -76.5 -31t-21.5 -76l-131 -2q0 111 72 168q61 49 149 49q78 0 138 -30q98 -52 98 -166q0 -54 -25.5 -90.5t-86 -79.5
t-59.5 -122z" />
    <glyph glyph-name=".notdef.025" unicode="&#x1ed5;" horiz-adv-x="1180" 
d="M74 537q0 231 119 387q135 178 376 178q242 0 379 -178q121 -158 121 -387q0 -228 -121 -385q-137 -181 -379 -181q-239 0 -374 179q-121 157 -121 387zM258 537q0 -152 57 -258q82 -152 254 -152q170 0 252 149q60 109 60 261q0 151 -58 258q-82 151 -254 151
q-170 0 -252 -149q-59 -109 -59 -260zM567 1384l-135 -188h-160l201 287h193l200 -287h-164zM952 1392h-117q-1 62 15.5 108t75 87t58.5 93q0 49 -27 70.5t-62 21.5q-55 0 -76.5 -31t-21.5 -76l-131 -2q0 111 72 168q61 49 149 49q78 0 138 -30q98 -52 98 -166
q0 -54 -25.5 -90.5t-86 -79.5t-59.5 -122z" />
    <glyph glyph-name=".notdef.090" unicode="&#x1ed6;" horiz-adv-x="1573" 
d="M1323 737q0 264 -135 428q-141 170 -377 170q-233 0 -372.5 -168t-139.5 -430q0 -266 137 -432t375 -166q236 0 374 167t138 431zM1528 737q0 -297 -152 -508q-192 -270 -565 -270q-371 0 -563 268q-154 215 -154 510q0 293 152 504q194 270 565 270t563 -268
q154 -213 154 -506zM811 1810l-135 -192h-164l205 291h188l205 -291h-164zM1069 2232h102q-10 -96 -64.5 -160.5t-140.5 -64.5q-45 0 -118 28l-54 17q-98 33 -127 33q-39 0 -59 -21.5t-35 -69.5h-98q14 101 59 154q54 64 154 64q35 0 68.5 -7.5t70.5 -21.5l45 -21
q25 -10 53.5 -17t40.5 -7q54 0 78 31q17 20 25 63z" />
    <glyph glyph-name=".notdef.024" unicode="&#x1ed7;" horiz-adv-x="1180" 
d="M74 537q0 231 119 387q135 178 376 178q242 0 379 -178q121 -158 121 -387q0 -228 -121 -385q-137 -181 -379 -181q-239 0 -374 179q-121 157 -121 387zM258 537q0 -152 57 -258q82 -152 254 -152q170 0 252 149q60 109 60 261q0 151 -58 258q-82 151 -254 151
q-170 0 -252 -149q-59 -109 -59 -260zM567 1384l-135 -188h-160l201 287h193l200 -287h-164zM825 1810h102q-10 -96 -64.5 -160.5t-140.5 -64.5q-45 0 -118 28l-54 17q-98 33 -127 33q-39 0 -59 -21.5t-35 -69.5h-98q14 101 59 154q54 64 154 64q35 0 68.5 -7.5t70.5 -21.5
l45 -21q25 -10 53.5 -17t40.5 -7q54 0 78 31q17 20 25 63z" />
    <glyph glyph-name=".notdef.089" unicode="&#x1ed8;" horiz-adv-x="1573" 
d="M1323 737q0 264 -135 428q-141 170 -377 170q-233 0 -372.5 -168t-139.5 -430q0 -266 137 -432t375 -166q236 0 374 167t138 431zM1528 737q0 -297 -152 -508q-192 -270 -565 -270q-371 0 -563 268q-154 215 -154 510q0 293 152 504q194 270 565 270t563 -268
q154 -213 154 -506zM811 1810l-135 -192h-164l205 291h188l205 -291h-164zM900 -324h-180v205h180v-205z" />
    <glyph glyph-name=".notdef.023" unicode="&#x1ed9;" horiz-adv-x="1180" 
d="M74 537q0 231 119 387q135 178 376 178q242 0 379 -178q121 -158 121 -387q0 -228 -121 -385q-137 -181 -379 -181q-239 0 -374 179q-121 157 -121 387zM258 537q0 -152 57 -258q82 -152 254 -152q170 0 252 149q60 109 60 261q0 151 -58 258q-82 151 -254 151
q-170 0 -252 -149q-59 -109 -59 -260zM567 1384l-135 -188h-160l201 287h193l200 -287h-164zM660 -324h-180v205h180v-205z" />
    <glyph glyph-name=".notdef.075" unicode="&#x1eda;" horiz-adv-x="1573" 
d="M1233 1376q151 -108 229 -301q66 -160 66 -338q0 -297 -152 -508q-192 -270 -565 -270q-371 0 -563 268q-154 215 -154 510q0 293 152 504q194 270 565 270q102 0 189 -21.5t163 -64.5q13 2 42.5 25t39.5 33q27 24 36 53t9 66h-114v127h196v-181q0 -57 -61 -118
q-45 -39 -78 -54zM1323 737q0 264 -135 428q-141 170 -377 170q-233 0 -372.5 -168t-139.5 -430q0 -266 137 -432t375 -166q236 0 374 167t138 431zM1070 1905l-266 -291h-135l180 291h221z" />
    <glyph glyph-name=".notdef.009" unicode="&#x1edb;" 
d="M905 979q10 2 33 22.5t37 34.5q26 25 35.5 53.5t9.5 65.5h-115v127h197v-180q0 -58 -62 -119q-22 -20 -43.5 -39.5t-38.5 -25.5q56 -76 83.5 -176.5t27.5 -204.5q0 -228 -121 -385q-137 -181 -379 -181q-239 0 -374 179q-121 157 -121 387q0 231 119 387q135 178 376 178
q213 0 336 -123zM258 537q0 -152 57 -258q82 -152 254 -152q170 0 252 149q60 109 60 261q0 151 -58 258q-82 151 -254 151q-170 0 -252 -149q-59 -109 -59 -260zM831 1503l-267 -286h-139l185 286h221z" />
    <glyph glyph-name=".notdef.076" unicode="&#x1edc;" horiz-adv-x="1573" 
d="M1233 1376q151 -108 229 -301q66 -160 66 -338q0 -297 -152 -508q-192 -270 -565 -270q-371 0 -563 268q-154 215 -154 510q0 293 152 504q194 270 565 270q102 0 189 -21.5t163 -64.5q13 2 42.5 25t39.5 33q27 24 36 53t9 66h-114v127h196v-181q0 -57 -61 -118
q-45 -39 -78 -54zM1323 737q0 264 -135 428q-141 170 -377 170q-233 0 -372.5 -168t-139.5 -430q0 -266 137 -432t375 -166q236 0 374 167t138 431zM812 1614l-266 291h221l180 -291h-135z" />
    <glyph glyph-name=".notdef.010" unicode="&#x1edd;" 
d="M905 979q10 2 33 22.5t37 34.5q26 25 35.5 53.5t9.5 65.5h-115v127h197v-180q0 -58 -62 -119q-22 -20 -43.5 -39.5t-38.5 -25.5q56 -76 83.5 -176.5t27.5 -204.5q0 -228 -121 -385q-137 -181 -379 -181q-239 0 -374 179q-121 157 -121 387q0 231 119 387q135 178 376 178
q213 0 336 -123zM258 537q0 -152 57 -258q82 -152 254 -152q170 0 252 149q60 109 60 261q0 151 -58 258q-82 151 -254 151q-170 0 -252 -149q-59 -109 -59 -260zM567 1217l-270 286h225l180 -286h-135z" />
    <glyph glyph-name=".notdef.074" unicode="&#x1ede;" horiz-adv-x="1573" 
d="M1233 1376q151 -108 229 -301q66 -160 66 -338q0 -297 -152 -508q-192 -270 -565 -270q-371 0 -563 268q-154 215 -154 510q0 293 152 504q194 270 565 270q102 0 189 -21.5t163 -64.5q13 2 42.5 25t39.5 33q27 24 36 53t9 66h-114v127h196v-181q0 -57 -61 -118
q-45 -39 -78 -54zM1323 737q0 264 -135 428q-141 170 -377 170q-233 0 -372.5 -168t-139.5 -430q0 -266 137 -432t375 -166q236 0 374 167t138 431zM871 1570h-117q-1 62 15.5 108t75 87t58.5 93q0 49 -27 70.5t-62 21.5q-55 0 -76.5 -31t-21.5 -76l-131 -2q0 111 72 168
q61 49 149 49q78 0 138 -30q98 -52 98 -166q0 -54 -25.5 -90.5t-86 -79.5t-59.5 -122z" />
    <glyph glyph-name=".notdef.008" unicode="&#x1edf;" 
d="M905 979q10 2 33 22.5t37 34.5q26 25 35.5 53.5t9.5 65.5h-115v127h197v-180q0 -58 -62 -119q-22 -20 -43.5 -39.5t-38.5 -25.5q56 -76 83.5 -176.5t27.5 -204.5q0 -228 -121 -385q-137 -181 -379 -181q-239 0 -374 179q-121 157 -121 387q0 231 119 387q135 178 376 178
q213 0 336 -123zM258 537q0 -152 57 -258q82 -152 254 -152q170 0 252 149q60 109 60 261q0 151 -58 258q-82 151 -254 151q-170 0 -252 -149q-59 -109 -59 -260zM629 1196h-117q-1 62 15.5 108t75 87t58.5 93q0 49 -27 70.5t-62 21.5q-55 0 -76.5 -31t-21.5 -76l-131 -2
q0 111 72 168q61 49 149 49q78 0 138 -30q98 -52 98 -166q0 -54 -25.5 -90.5t-86 -79.5t-59.5 -122z" />
    <glyph glyph-name=".notdef.073" unicode="&#x1ee0;" horiz-adv-x="1573" 
d="M1233 1376q151 -108 229 -301q66 -160 66 -338q0 -297 -152 -508q-192 -270 -565 -270q-371 0 -563 268q-154 215 -154 510q0 293 152 504q194 270 565 270q102 0 189 -21.5t163 -64.5q13 2 42.5 25t39.5 33q27 24 36 53t9 66h-114v127h196v-181q0 -57 -61 -118
q-45 -39 -78 -54zM1323 737q0 264 -135 428q-141 170 -377 170q-233 0 -372.5 -168t-139.5 -430q0 -266 137 -432t375 -166q236 0 374 167t138 431zM1057 1880h102q-10 -96 -64.5 -160.5t-140.5 -64.5q-45 0 -118 28l-54 17q-98 33 -127 33q-39 0 -59 -21.5t-35 -69.5h-98
q14 101 59 154q54 64 154 64q35 0 68.5 -7.5t70.5 -21.5l45 -21q25 -10 53.5 -17t40.5 -7q54 0 78 31q17 20 25 63z" />
    <glyph glyph-name=".notdef.007" unicode="&#x1ee1;" 
d="M905 979q10 2 33 22.5t37 34.5q26 25 35.5 53.5t9.5 65.5h-115v127h197v-180q0 -58 -62 -119q-22 -20 -43.5 -39.5t-38.5 -25.5q56 -76 83.5 -176.5t27.5 -204.5q0 -228 -121 -385q-137 -181 -379 -181q-239 0 -374 179q-121 157 -121 387q0 231 119 387q135 178 376 178
q213 0 336 -123zM258 537q0 -152 57 -258q82 -152 254 -152q170 0 252 149q60 109 60 261q0 151 -58 258q-82 151 -254 151q-170 0 -252 -149q-59 -109 -59 -260zM820 1479h102q-12 -95 -67.5 -158.5t-137.5 -63.5q-24 0 -49.5 5.5t-73.5 19.5l-53 21q-26 8 -63 18t-60 10
q-39 0 -61.5 -23.5t-36.5 -66.5h-98q12 98 64 159.5t149 61.5q34 0 67 -9t72 -23l45 -17q72 -29 98 -29q54 0 78 33q16 21 25 62z" />
    <glyph glyph-name=".notdef.072" unicode="&#x1ee2;" horiz-adv-x="1573" 
d="M1233 1376q151 -108 229 -301q66 -160 66 -338q0 -297 -152 -508q-192 -270 -565 -270q-371 0 -563 268q-154 215 -154 510q0 293 152 504q194 270 565 270q102 0 189 -21.5t163 -64.5q13 2 42.5 25t39.5 33q27 24 36 53t9 66h-114v127h196v-181q0 -57 -61 -118
q-45 -39 -78 -54zM1323 737q0 264 -135 428q-141 170 -377 170q-233 0 -372.5 -168t-139.5 -430q0 -266 137 -432t375 -166q236 0 374 167t138 431zM900 -324h-180v205h180v-205z" />
    <glyph glyph-name=".notdef.006" unicode="&#x1ee3;" 
d="M905 979q10 2 33 22.5t37 34.5q26 25 35.5 53.5t9.5 65.5h-115v127h197v-180q0 -58 -62 -119q-22 -20 -43.5 -39.5t-38.5 -25.5q56 -76 83.5 -176.5t27.5 -204.5q0 -228 -121 -385q-137 -181 -379 -181q-239 0 -374 179q-121 157 -121 387q0 231 119 387q135 178 376 178
q213 0 336 -123zM258 537q0 -152 57 -258q82 -152 254 -152q170 0 252 149q60 109 60 261q0 151 -58 258q-82 151 -254 151q-170 0 -252 -149q-59 -109 -59 -260zM660 -324h-180v205h180v-205z" />
    <glyph glyph-name=".notdef.084" unicode="&#x1ee4;" horiz-adv-x="1479" 
d="M1110 1470h197v-954q0 -242 -144 -391q-157 -166 -446 -166q-281 0 -432 162q-133 143 -133 371v978h196v-925q0 -219 119 -322q96 -84 254 -84q166 0 264 80q125 103 125 322v929zM807 -324h-180v205h180v-205z" />
    <glyph glyph-name=".notdef.018" unicode="&#x1ee5;" 
d="M1004 0h-173v156l-4 4q-57 -97 -137 -145t-203 -48q-139 0 -231 70q-117 88 -117 266v770h180v-713q0 -124 60 -182q51 -51 149 -51q154 0 232 119q63 96 63 237v590h181v-1073zM660 -324h-180v205h180v-205z" />
    <glyph glyph-name=".notdef.086" unicode="&#x1ee6;" horiz-adv-x="1479" 
d="M1110 1470h197v-954q0 -242 -144 -391q-157 -166 -446 -166q-281 0 -432 162q-133 143 -133 371v978h196v-925q0 -219 119 -322q96 -84 254 -84q166 0 264 80q125 103 125 322v929zM788 1570h-117q-1 62 15.5 108t75 87t58.5 93q0 49 -27 70.5t-62 21.5q-55 0 -76.5 -31
t-21.5 -76l-131 -2q0 111 72 168q61 49 149 49q78 0 138 -30q98 -52 98 -166q0 -54 -25.5 -90.5t-86 -79.5t-59.5 -122z" />
    <glyph glyph-name=".notdef.020" unicode="&#x1ee7;" 
d="M1004 0h-173v156l-4 4q-57 -97 -137 -145t-203 -48q-139 0 -231 70q-117 88 -117 266v770h180v-713q0 -124 60 -182q51 -51 149 -51q154 0 232 119q63 96 63 237v590h181v-1073zM635 1196h-117q-1 62 15.5 108t75 87t58.5 93q0 49 -27 70.5t-62 21.5q-55 0 -76.5 -31
t-21.5 -76l-131 -2q0 111 72 168q61 49 149 49q78 0 138 -30q98 -52 98 -166q0 -54 -25.5 -90.5t-86 -79.5t-59.5 -122z" />
    <glyph glyph-name=".notdef.081" unicode="&#x1ee8;" horiz-adv-x="1479" 
d="M1307 1401q12 4 31.5 15t32.5 22.5t19.5 29t6.5 31.5v49h-115v127h197v-180q0 -57 -62 -119q-22 -20 -55 -37q-10 -4 -55 -24v-799q0 -242 -144 -391q-157 -166 -446 -166q-281 0 -432 162q-133 143 -133 371v978h196v-925q0 -219 119 -322q96 -84 254 -84q166 0 264 80
q125 103 125 322v929h197v-69zM982 1905l-266 -291h-135l180 291h221z" />
    <glyph glyph-name=".notdef.015" unicode="&#x1ee9;" 
d="M1004 1004q12 4 30 20q10 12 15 16q26 25 33.5 53.5t7.5 69.5h-115v127h196v-180q0 -57 -61 -119q-53 -47 -106 -69v-922h-173v156l-4 4q-57 -97 -137 -145t-203 -48q-139 0 -231 70q-117 88 -117 266v770h180v-713q0 -124 60 -182q51 -51 149 -51q154 0 232 119
q63 96 63 237v590h181v-69zM831 1503l-267 -286h-139l185 286h221z" />
    <glyph glyph-name=".notdef.082" unicode="&#x1eea;" horiz-adv-x="1479" 
d="M1307 1401q12 4 31.5 15t32.5 22.5t19.5 29t6.5 31.5v49h-115v127h197v-180q0 -57 -62 -119q-22 -20 -55 -37q-10 -4 -55 -24v-799q0 -242 -144 -391q-157 -166 -446 -166q-281 0 -432 162q-133 143 -133 371v978h196v-925q0 -219 119 -322q96 -84 254 -84q166 0 264 80
q125 103 125 322v929h197v-69zM728 1614l-266 291h221l180 -291h-135z" />
    <glyph glyph-name=".notdef.016" unicode="&#x1eeb;" 
d="M1004 1004q12 4 30 20q10 12 15 16q26 25 33.5 53.5t7.5 69.5h-115v127h196v-180q0 -57 -61 -119q-53 -47 -106 -69v-922h-173v156l-4 4q-57 -97 -137 -145t-203 -48q-139 0 -231 70q-117 88 -117 266v770h180v-713q0 -124 60 -182q51 -51 149 -51q154 0 232 119
q63 96 63 237v590h181v-69zM567 1217l-270 286h225l180 -286h-135z" />
    <glyph glyph-name=".notdef.080" unicode="&#x1eec;" horiz-adv-x="1479" 
d="M1307 1401q12 4 31.5 15t32.5 22.5t19.5 29t6.5 31.5v49h-115v127h197v-180q0 -57 -62 -119q-22 -20 -55 -37q-10 -4 -55 -24v-799q0 -242 -144 -391q-157 -166 -446 -166q-281 0 -432 162q-133 143 -133 371v978h196v-925q0 -219 119 -322q96 -84 254 -84q166 0 264 80
q125 103 125 322v929h197v-69zM788 1570h-117q-1 62 15.5 108t75 87t58.5 93q0 49 -27 70.5t-62 21.5q-55 0 -76.5 -31t-21.5 -76l-131 -2q0 111 72 168q61 49 149 49q78 0 138 -30q98 -52 98 -166q0 -54 -25.5 -90.5t-86 -79.5t-59.5 -122z" />
    <glyph glyph-name=".notdef.014" unicode="&#x1eed;" 
d="M1004 1004q12 4 30 20q10 12 15 16q26 25 33.5 53.5t7.5 69.5h-115v127h196v-180q0 -57 -61 -119q-53 -47 -106 -69v-922h-173v156l-4 4q-57 -97 -137 -145t-203 -48q-139 0 -231 70q-117 88 -117 266v770h180v-713q0 -124 60 -182q51 -51 149 -51q154 0 232 119
q63 96 63 237v590h181v-69zM635 1196h-117q-1 62 15.5 108t75 87t58.5 93q0 49 -27 70.5t-62 21.5q-55 0 -76.5 -31t-21.5 -76l-131 -2q0 111 72 168q61 49 149 49q78 0 138 -30q98 -52 98 -166q0 -54 -25.5 -90.5t-86 -79.5t-59.5 -122z" />
    <glyph glyph-name=".notdef.079" unicode="&#x1eee;" horiz-adv-x="1479" 
d="M1307 1401q12 4 31.5 15t32.5 22.5t19.5 29t6.5 31.5v49h-115v127h197v-180q0 -57 -62 -119q-22 -20 -55 -37q-10 -4 -55 -24v-799q0 -242 -144 -391q-157 -166 -446 -166q-281 0 -432 162q-133 143 -133 371v978h196v-925q0 -219 119 -322q96 -84 254 -84q166 0 264 80
q125 103 125 322v929h197v-69zM993 1880h102q-10 -96 -64.5 -160.5t-140.5 -64.5q-45 0 -118 28l-54 17q-98 33 -127 33q-39 0 -59 -21.5t-35 -69.5h-98q14 101 59 154q54 64 154 64q35 0 68.5 -7.5t70.5 -21.5l45 -21q25 -10 53.5 -17t40.5 -7q54 0 78 31q17 20 25 63z" />
    <glyph glyph-name=".notdef.013" unicode="&#x1eef;" 
d="M1004 1004q12 4 30 20q10 12 15 16q26 25 33.5 53.5t7.5 69.5h-115v127h196v-180q0 -57 -61 -119q-53 -47 -106 -69v-922h-173v156l-4 4q-57 -97 -137 -145t-203 -48q-139 0 -231 70q-117 88 -117 266v770h180v-713q0 -124 60 -182q51 -51 149 -51q154 0 232 119
q63 96 63 237v590h181v-69zM820 1479h102q-12 -95 -67.5 -158.5t-137.5 -63.5q-24 0 -49.5 5.5t-73.5 19.5l-53 21q-26 8 -63 18t-60 10q-39 0 -61.5 -23.5t-36.5 -66.5h-98q12 98 64 159.5t149 61.5q34 0 67 -9t72 -23l45 -17q72 -29 98 -29q54 0 78 33q16 21 25 62z" />
    <glyph glyph-name=".notdef.078" unicode="&#x1ef0;" horiz-adv-x="1479" 
d="M1307 1401q12 4 31.5 15t32.5 22.5t19.5 29t6.5 31.5v49h-115v127h197v-180q0 -57 -62 -119q-22 -20 -55 -37q-10 -4 -55 -24v-799q0 -242 -144 -391q-157 -166 -446 -166q-281 0 -432 162q-133 143 -133 371v978h196v-925q0 -219 119 -322q96 -84 254 -84q166 0 264 80
q125 103 125 322v929h197v-69zM807 -324h-180v205h180v-205z" />
    <glyph glyph-name=".notdef.012" unicode="&#x1ef1;" 
d="M1004 1004q12 4 30 20q10 12 15 16q26 25 33.5 53.5t7.5 69.5h-115v127h196v-180q0 -57 -61 -119q-53 -47 -106 -69v-922h-173v156l-4 4q-57 -97 -137 -145t-203 -48q-139 0 -231 70q-117 88 -117 266v770h180v-713q0 -124 60 -182q51 -51 149 -51q154 0 232 119
q63 96 63 237v590h181v-69zM660 -324h-180v205h180v-205z" />
    <glyph glyph-name=".notdef.071" unicode="&#x1ef2;" horiz-adv-x="1454" 
d="M782 594v-594h-196v594l-557 876h233l422 -704l422 704h233zM706 1614l-266 291h221l180 -291h-135z" />
    <glyph glyph-name=".notdef.005" unicode="&#x1ef3;" horiz-adv-x="1085" 
d="M803 1073h201q-95 -264 -188 -522t-198 -531q-129 -325 -189 -391.5t-232 -66.5q-17 0 -27 2q-31 10 -47 14v164q16 -6 46 -13.5t60 -7.5q68 0 96.5 39t96.5 211l-397 1102h204l283 -872zM536 1217l-270 286h225l180 -286h-135z" />
    <glyph glyph-name=".notdef.067" unicode="&#x1ef4;" horiz-adv-x="1454" 
d="M782 594v-594h-196v594l-557 876h233l422 -704l422 704h233zM778 -344h-180v205h180v-205z" />
    <glyph glyph-name=".notdef.001" unicode="&#x1ef5;" horiz-adv-x="1085" 
d="M803 1073h201q-95 -264 -188 -522t-198 -531q-129 -325 -189 -391.5t-232 -66.5q-17 0 -27 2q-31 10 -47 14v164q16 -6 46 -13.5t60 -7.5q68 0 96.5 39t96.5 211l-397 1102h204l283 -872zM901 -324h-180v205h180v-205z" />
    <glyph glyph-name=".notdef.069" unicode="&#x1ef6;" horiz-adv-x="1454" 
d="M782 594v-594h-196v594l-557 876h233l422 -704l422 704h233zM751 1570h-117q-1 62 15.5 108t75 87t58.5 93q0 49 -27 70.5t-62 21.5q-55 0 -76.5 -31t-21.5 -76l-131 -2q0 111 72 168q61 49 149 49q78 0 138 -30q98 -52 98 -166q0 -54 -25.5 -90.5t-86 -79.5t-59.5 -122z
" />
    <glyph glyph-name=".notdef.003" unicode="&#x1ef7;" horiz-adv-x="1085" 
d="M803 1073h201q-95 -264 -188 -522t-198 -531q-129 -325 -189 -391.5t-232 -66.5q-17 0 -27 2q-31 10 -47 14v164q16 -6 46 -13.5t60 -7.5q68 0 96.5 39t96.5 211l-397 1102h204l283 -872zM586 1196h-117q-1 62 15.5 108t75 87t58.5 93q0 49 -27 70.5t-62 21.5
q-55 0 -76.5 -31t-21.5 -76l-131 -2q0 111 72 168q61 49 149 49q78 0 138 -30q98 -52 98 -166q0 -54 -25.5 -90.5t-86 -79.5t-59.5 -122z" />
    <glyph glyph-name=".notdef.068" unicode="&#x1ef8;" horiz-adv-x="1454" 
d="M782 594v-594h-196v594l-557 876h233l422 -704l422 704h233zM943 1880h102q-10 -96 -64.5 -160.5t-140.5 -64.5q-45 0 -118 28l-54 17q-98 33 -127 33q-39 0 -59 -21.5t-35 -69.5h-98q14 101 59 154q54 64 154 64q35 0 68.5 -7.5t70.5 -21.5l45 -21q25 -10 53.5 -17
t40.5 -7q54 0 78 31q17 20 25 63z" />
    <glyph glyph-name=".notdef.002" unicode="&#x1ef9;" horiz-adv-x="1085" 
d="M803 1073h201q-95 -264 -188 -522t-198 -531q-129 -325 -189 -391.5t-232 -66.5q-17 0 -27 2q-31 10 -47 14v164q16 -6 46 -13.5t60 -7.5q68 0 96.5 39t96.5 211l-397 1102h204l283 -872zM778 1479h102q-12 -95 -67.5 -158.5t-137.5 -63.5q-24 0 -49.5 5.5t-73.5 19.5
l-53 21q-26 8 -63 18t-60 10q-39 0 -61.5 -23.5t-36.5 -66.5h-98q12 98 64 159.5t149 61.5q34 0 67 -9t72 -23l45 -17q72 -29 98 -29q54 0 78 33q16 21 25 62z" />
    <glyph glyph-name="quoteleft" unicode="&#x2018;" horiz-adv-x="487" 
d="M348 1180v-217h-213v200q0 131 46 213t167 111v-98q-69 -11 -94 -84q-16 -48 -16 -125h110z" />
    <glyph glyph-name="quoteright" unicode="&#x2019;" horiz-adv-x="487" 
d="M111 1253v217h213v-200q0 -127 -45 -205q-52 -88 -168 -115v94q67 11 92 84q14 46 14 125h-106z" />
    <glyph glyph-name="quotedblleft" unicode="&#x201c;" horiz-adv-x="737" 
d="M631 1180v-217h-213v200q0 131 46 213t167 111v-98q-70 -11 -94 -84q-17 -48 -17 -125h111zM291 1180v-217h-213v200q0 129 48 212t165 112v-98q-68 -11 -92 -84q-15 -45 -15 -125h107z" />
    <glyph glyph-name="quotedblright" unicode="&#x201d;" horiz-adv-x="737" 
d="M53 1253v217h213v-200q0 -129 -43 -205q-51 -88 -170 -115v94q70 11 94 84q17 48 17 125h-111zM393 1253v217h213v-200q0 -127 -45 -205q-51 -88 -168 -115v94q68 11 92 84q15 46 15 125h-107z" />
    <glyph glyph-name="ellipsis" unicode="&#x2026;" horiz-adv-x="1245" 
d="M373 209v-209h-189v209h189zM705 209v-209h-189v209h189zM1036 209v-209h-188v209h188z" />
    <glyph glyph-name="trademark" unicode="&#x2122;" horiz-adv-x="2048" 
d="M1141 1470l241 -620l238 620h229v-843h-149v686l-268 -686h-103l-264 686l-4 -686h-150v843h230zM764 1470v-122h-260v-721h-150v721h-260v122h670z" />
    <glyph glyph-name="ugrave" horiz-adv-x="582" 
 />
    <glyph glyph-name="uacute" horiz-adv-x="580" 
 />
    <glyph glyph-name="yacute" horiz-adv-x="629" 
 />
  </font>
</defs>
</svg>
